<svg width="16" height="16" viewBox="0 0 16 16" fill="none" xmlns="http://www.w3.org/2000/svg">
<path d="M7.9928 1.65973C7.8603 1.6618 7.73405 1.71637 7.64176 1.81147C7.54948 1.90656 7.49871 2.03439 7.50061 2.16689V7.50022H2.16728C2.10102 7.49929 2.03524 7.51153 1.97376 7.53623C1.91227 7.56094 1.85631 7.59762 1.80913 7.64414C1.76194 7.69067 1.72447 7.7461 1.6989 7.80723C1.67333 7.86836 1.66016 7.93396 1.66016 8.00022C1.66016 8.06649 1.67333 8.13209 1.6989 8.19322C1.72447 8.25434 1.76194 8.30978 1.80913 8.3563C1.85631 8.40283 1.91227 8.43951 1.97376 8.46421C2.03524 8.48892 2.10102 8.50116 2.16728 8.50022H7.50061V13.8336C7.49967 13.8998 7.51192 13.9656 7.53662 14.0271C7.56133 14.0886 7.59801 14.1445 7.64453 14.1917C7.69105 14.2389 7.74649 14.2764 7.80762 14.3019C7.86875 14.3275 7.93435 14.3407 8.00061 14.3407C8.06687 14.3407 8.13248 14.3275 8.1936 14.3019C8.25473 14.2764 8.31017 14.2389 8.35669 14.1917C8.40321 14.1445 8.43989 14.0886 8.4646 14.0271C8.48931 13.9656 8.50155 13.8998 8.50061 13.8336V8.50022H13.8339C13.9002 8.50116 13.966 8.48892 14.0275 8.46421C14.089 8.43951 14.1449 8.40283 14.1921 8.3563C14.2393 8.30978 14.2767 8.25434 14.3023 8.19322C14.3279 8.13209 14.3411 8.06649 14.3411 8.00022C14.3411 7.93396 14.3279 7.86836 14.3023 7.80723C14.2767 7.7461 14.2393 7.69067 14.1921 7.64414C14.1449 7.59762 14.089 7.56094 14.0275 7.53623C13.966 7.51153 13.9002 7.49929 13.8339 7.50022H8.50061V2.16689C8.50157 2.09997 8.48909 2.03353 8.4639 1.97153C8.43871 1.90952 8.40133 1.8532 8.35397 1.8059C8.30662 1.75861 8.25025 1.7213 8.18821 1.69619C8.12617 1.67108 8.05972 1.65868 7.9928 1.65973Z"/>
</svg>
