<svg width="16" height="16" viewBox="0 0 16 16" fill="none" xmlns="http://www.w3.org/2000/svg">
<path d="M5.19646 1.50063C5.36936 1.50817 5.53255 1.58265 5.65154 1.70831L11.3182 7.54165C11.4392 7.66611 11.507 7.83288 11.507 8.00649C11.507 8.18011 11.4392 8.34687 11.3182 8.47133L5.65154 14.3047C5.59086 14.3689 5.518 14.4205 5.4372 14.4564C5.35641 14.4922 5.26929 14.5117 5.18092 14.5135C5.09254 14.5154 5.00468 14.4997 4.92243 14.4673C4.84018 14.4349 4.7652 14.3865 4.70184 14.3249C4.63848 14.2632 4.588 14.1896 4.55336 14.1083C4.51871 14.027 4.50057 13.9396 4.50001 13.8512C4.49945 13.7628 4.51647 13.6752 4.55009 13.5934C4.5837 13.5117 4.63324 13.4374 4.69581 13.375L9.91065 8.00649L4.69581 2.638C4.60087 2.54299 4.53684 2.42151 4.51211 2.28949C4.48738 2.15747 4.5031 2.02106 4.55721 1.89812C4.61133 1.77519 4.70131 1.67146 4.81538 1.60053C4.92944 1.52961 5.06227 1.49479 5.19646 1.50063Z" fill="#C1C6C7"/>
</svg>
