<svg width="16" height="16" viewBox="0 0 16 16" fill="none" xmlns="http://www.w3.org/2000/svg">
<path d="M7.9903 1.99079C7.8136 1.99338 7.64516 2.06602 7.52198 2.19273C7.39881 2.31944 7.33098 2.48988 7.3334 2.66658V9.0572L6.47142 8.19522C6.40999 8.13124 6.33641 8.08016 6.25499 8.04497C6.17357 8.00977 6.08595 7.99118 5.99725 7.99028C5.90856 7.98938 5.82058 8.00618 5.73846 8.03971C5.65634 8.07323 5.58173 8.12281 5.51902 8.18553C5.4563 8.24825 5.40672 8.32285 5.3732 8.40497C5.33967 8.48709 5.32287 8.57507 5.32377 8.66376C5.32467 8.75246 5.34326 8.84008 5.37845 8.9215C5.41364 9.00292 5.46473 9.0765 5.52871 9.13793L7.52871 11.1379C7.65374 11.2629 7.82328 11.3331 8.00006 11.3331C8.17684 11.3331 8.34639 11.2629 8.47142 11.1379L10.4714 9.13793C10.5354 9.0765 10.5865 9.00292 10.6217 8.9215C10.6569 8.84008 10.6755 8.75246 10.6764 8.66376C10.6773 8.57507 10.6605 8.48709 10.6269 8.40497C10.5934 8.32285 10.5438 8.24825 10.4811 8.18553C10.4184 8.12281 10.3438 8.07323 10.2617 8.03971C10.1796 8.00618 10.0916 7.98938 10.0029 7.99028C9.91418 7.99118 9.82656 8.00977 9.74514 8.04497C9.66372 8.08016 9.59014 8.13124 9.52871 8.19522L8.66673 9.0572V2.66658C8.66795 2.57744 8.65128 2.48896 8.61771 2.40638C8.58414 2.3238 8.53435 2.24878 8.47128 2.18578C8.40822 2.12277 8.33316 2.07305 8.25054 2.03956C8.16793 2.00607 8.07943 1.98949 7.9903 1.99079ZM2.65696 10.3241C2.48027 10.3267 2.31183 10.3993 2.18865 10.5261C2.06548 10.6528 1.99765 10.8232 2.00006 10.9999V11.9999C2.00006 13.0966 2.90339 13.9999 4.00006 13.9999H12.0001C13.0967 13.9999 14.0001 13.0966 14.0001 11.9999V10.9999C14.0013 10.9116 13.985 10.8239 13.952 10.7419C13.9191 10.6599 13.8702 10.5853 13.8082 10.5224C13.7461 10.4595 13.6722 10.4095 13.5907 10.3754C13.5092 10.3413 13.4217 10.3237 13.3334 10.3237C13.245 10.3237 13.1576 10.3413 13.0761 10.3754C12.9946 10.4095 12.9207 10.4595 12.8586 10.5224C12.7966 10.5853 12.7477 10.6599 12.7147 10.7419C12.6818 10.8239 12.6655 10.9116 12.6667 10.9999V11.9999C12.6667 12.3759 12.3761 12.6666 12.0001 12.6666H4.00006C3.62407 12.6666 3.3334 12.3759 3.3334 11.9999V10.9999C3.33462 10.9108 3.31795 10.8223 3.28438 10.7397C3.25081 10.6571 3.20102 10.5821 3.13795 10.5191C3.07488 10.4561 2.99982 10.4064 2.91721 10.3729C2.83459 10.3394 2.7461 10.3228 2.65696 10.3241Z"/>
</svg>
