<svg width="16" height="16" viewBox="0 0 16 16" fill="none" xmlns="http://www.w3.org/2000/svg">
<path d="M8.00377 1.66651C7.91032 1.66593 7.81858 1.69154 7.73895 1.74045C7.65932 1.78936 7.59498 1.8596 7.55325 1.94321L5.8358 5.3781L1.75767 6.00571C1.66639 6.01981 1.5808 6.05892 1.51039 6.11871C1.43998 6.17849 1.3875 6.25661 1.35878 6.34439C1.33005 6.43218 1.32621 6.52621 1.34766 6.61605C1.36912 6.70589 1.41504 6.78803 1.48033 6.85336L4.30129 9.67432L3.67304 13.757C3.65898 13.8483 3.67051 13.9418 3.70635 14.027C3.74219 14.1122 3.80094 14.1858 3.87607 14.2396C3.9512 14.2934 4.03977 14.3253 4.13196 14.3319C4.22414 14.3384 4.31634 14.3192 4.3983 14.2765L8.00051 12.397L11.6027 14.2765C11.6847 14.3192 11.7769 14.3384 11.8691 14.3319C11.9612 14.3253 12.0498 14.2934 12.125 14.2396C12.2001 14.1858 12.2588 14.1122 12.2947 14.027C12.3305 13.9418 12.342 13.8483 12.328 13.757L11.6997 9.67432L14.5207 6.85336C14.586 6.78803 14.6319 6.70589 14.6534 6.61605C14.6748 6.52621 14.671 6.43218 14.6422 6.34439C14.6135 6.25661 14.561 6.17849 14.4906 6.11871C14.4202 6.05892 14.3346 6.01981 14.2434 6.00571L10.1652 5.3781L8.44778 1.94321C8.40653 1.86059 8.34321 1.791 8.26484 1.74216C8.18647 1.69332 8.09611 1.66714 8.00377 1.66651ZM8.00051 3.28435L9.38658 6.05649C9.42228 6.12801 9.47461 6.18992 9.53918 6.23704C9.60375 6.28417 9.67867 6.31512 9.75767 6.32732L13.1157 6.84425L10.8137 9.14633C10.7581 9.20187 10.7164 9.26972 10.692 9.34437C10.6676 9.41903 10.6611 9.49838 10.673 9.57602L11.1893 12.9328L8.23163 11.3898C8.16027 11.3526 8.08098 11.3332 8.00051 11.3332C7.92004 11.3332 7.84075 11.3526 7.76939 11.3898L4.81171 12.9328L5.32798 9.57602C5.33994 9.49838 5.33344 9.41903 5.30901 9.34437C5.28457 9.26972 5.2429 9.20187 5.18736 9.14633L2.88528 6.84425L6.24335 6.32732C6.32235 6.31512 6.39727 6.28417 6.46184 6.23704C6.52641 6.18992 6.57874 6.12801 6.61444 6.05649L8.00051 3.28435Z" fill="#399977"/>
</svg>
