<svg width="16" height="16" viewBox="0 0 16 16" fill="none" xmlns="http://www.w3.org/2000/svg">
<path d="M8.00065 1.3335C4.32467 1.3335 1.33398 4.32419 1.33398 8.00016C1.33398 11.6761 4.32467 14.6668 8.00065 14.6668C11.6766 14.6668 14.6673 11.6761 14.6673 8.00016C14.6673 4.32419 11.6766 1.3335 8.00065 1.3335ZM8.00065 2.3335C11.1362 2.3335 13.6673 4.86463 13.6673 8.00016C13.6673 11.1357 11.1362 13.6668 8.00065 13.6668C4.86511 13.6668 2.33398 11.1357 2.33398 8.00016C2.33398 4.86463 4.86511 2.3335 8.00065 2.3335ZM8.00065 4.66683C7.82384 4.66683 7.65427 4.73707 7.52925 4.86209C7.40422 4.98712 7.33398 5.15668 7.33398 5.3335C7.33398 5.51031 7.40422 5.67988 7.52925 5.8049C7.65427 5.92992 7.82384 6.00016 8.00065 6.00016C8.17746 6.00016 8.34703 5.92992 8.47205 5.8049C8.59708 5.67988 8.66732 5.51031 8.66732 5.3335C8.66732 5.15668 8.59708 4.98712 8.47205 4.86209C8.34703 4.73707 8.17746 4.66683 8.00065 4.66683ZM7.99284 6.993C7.86034 6.99507 7.73409 7.04965 7.6418 7.14474C7.54952 7.23983 7.49875 7.36767 7.50065 7.50016V11.1668C7.49971 11.2331 7.51195 11.2989 7.53666 11.3604C7.56137 11.4218 7.59805 11.4778 7.64457 11.525C7.69109 11.5722 7.74653 11.6096 7.80766 11.6352C7.86879 11.6608 7.93439 11.6739 8.00065 11.6739C8.06691 11.6739 8.13252 11.6608 8.19364 11.6352C8.25477 11.6096 8.31021 11.5722 8.35673 11.525C8.40325 11.4778 8.43993 11.4218 8.46464 11.3604C8.48935 11.2989 8.50159 11.2331 8.50065 11.1668V7.50016C8.50161 7.43324 8.48913 7.36681 8.46394 7.3048C8.43875 7.24279 8.40137 7.18647 8.35401 7.13917C8.30666 7.09188 8.25029 7.05457 8.18825 7.02946C8.12621 7.00435 8.05976 6.99196 7.99284 6.993Z" fill="white"/>
</svg>
