<svg  viewBox="0 0 16 16" fill="none" xmlns="http://www.w3.org/2000/svg">
<path d="M8.00065 1.3335C4.87707 1.3335 2.33398 3.87658 2.33398 7.00016C2.33398 8.40243 2.84842 9.68844 3.69336 10.6772L3.69596 10.6799L3.69792 10.6825C3.69792 10.6825 6.10856 13.4332 6.9668 14.2521C7.54151 14.8 8.45914 14.8 9.03385 14.2521C10.0121 13.3191 12.304 10.6812 12.304 10.6812L12.3053 10.6792L12.3073 10.6772C13.153 9.68843 13.6673 8.40243 13.6673 7.00016C13.6673 3.87658 11.1242 1.3335 8.00065 1.3335ZM8.00065 2.3335C10.5837 2.3335 12.6673 4.41708 12.6673 7.00016C12.6673 8.15857 12.2452 9.21103 11.5469 10.0275C11.5423 10.0327 9.19733 12.7147 8.34375 13.5288C8.14579 13.7175 7.85486 13.7175 7.6569 13.5288C6.94351 12.8481 4.46102 10.0357 4.45378 10.0275L4.45312 10.0269C3.75576 9.21044 3.33398 8.15825 3.33398 7.00016C3.33398 4.41708 5.41757 2.3335 8.00065 2.3335ZM8.00065 5.00016C7.37565 5.00016 6.84359 5.25254 6.50195 5.63688C6.16032 6.02122 6.00065 6.51405 6.00065 7.00016C6.00065 7.48627 6.16032 7.9791 6.50195 8.36344C6.84359 8.74779 7.37565 9.00016 8.00065 9.00016C8.62565 9.00016 9.15771 8.74779 9.49935 8.36344C9.84099 7.9791 10.0007 7.48627 10.0007 7.00016C10.0007 6.51405 9.84099 6.02122 9.49935 5.63688C9.15771 5.25254 8.62565 5.00016 8.00065 5.00016ZM8.00065 6.00016C8.37565 6.00016 8.59359 6.12279 8.75195 6.30094C8.91032 6.4791 9.00065 6.73627 9.00065 7.00016C9.00065 7.26405 8.91032 7.52122 8.75195 7.69938C8.59359 7.87754 8.37565 8.00016 8.00065 8.00016C7.62565 8.00016 7.40771 7.87754 7.24935 7.69938C7.09099 7.52122 7.00065 7.26405 7.00065 7.00016C7.00065 6.73627 7.09099 6.4791 7.24935 6.30094C7.40771 6.12279 7.62565 6.00016 8.00065 6.00016Z" fill="#399977" />
</svg>
