<svg width="16" height="16" viewBox="0 0 16 16" fill="none" xmlns="http://www.w3.org/2000/svg">
<path d="M9.20312 2.33266C8.78487 2.33733 8.3539 2.36805 7.91341 2.42641C6.15146 2.65986 4.55722 3.29261 3.36458 4.16599C2.17194 5.03938 1.33398 6.18689 1.33398 7.4811C1.33398 8.61996 2.03933 9.56493 3.04948 10.1673C3.02073 10.2827 3.00065 10.4002 3.00065 10.5195C3.00065 11.1385 3.36635 11.6586 3.79427 11.9394C4.22219 12.2203 4.70902 12.3333 5.17904 12.3333C5.18435 12.3333 5.19 12.3314 5.19531 12.3314C5.06168 13.1155 4.88086 13.7552 4.88086 13.7552C4.84534 13.8372 4.82668 13.9255 4.82599 14.0149C4.82529 14.1043 4.84257 14.1929 4.8768 14.2754C4.91103 14.358 4.96151 14.4329 5.02524 14.4955C5.08897 14.5582 5.16465 14.6074 5.24778 14.6402C5.33091 14.6731 5.41979 14.6888 5.50914 14.6866C5.59849 14.6844 5.68649 14.6643 5.7679 14.6274C5.84931 14.5905 5.92247 14.5376 5.98303 14.4719C6.0436 14.4062 6.09033 14.3289 6.12044 14.2448C6.12044 14.2448 6.43243 13.252 6.56641 12.0423C6.76676 11.9662 6.97249 11.906 7.1595 11.7949C7.48445 11.6018 7.79136 11.3301 8.01107 10.9948C9.75417 10.8803 11.3659 10.3327 12.5846 9.46222C13.8136 8.58441 14.6673 7.33188 14.6673 5.8919C14.6673 4.5977 13.7624 3.55342 12.5254 2.97524C11.9069 2.68615 11.1942 2.49065 10.416 2.39646C10.0269 2.34937 9.62138 2.32799 9.20312 2.33266ZM9.21615 3.66795C10.3046 3.65916 11.26 3.85596 11.9609 4.18357C12.8955 4.62039 13.334 5.19844 13.334 5.8919C13.334 6.80626 12.7955 7.67299 11.8099 8.37693C10.9133 9.01733 9.66504 9.47991 8.29557 9.62953C8.23369 9.35883 8.09655 9.1218 7.89909 8.89972C7.62705 8.59375 7.19182 8.33331 6.66732 8.33331C5.82194 8.33331 5.40651 8.78434 5.16602 9.12367C4.95385 9.0608 4.73897 8.99998 4.51107 8.99998C4.29591 8.99998 4.09562 9.04621 3.91536 9.12563C3.06681 8.69337 2.66732 8.14209 2.66732 7.4811C2.66732 6.78763 3.17332 5.95846 4.15234 5.24151C5.13137 4.52456 6.53651 3.95357 8.08789 3.74802C8.47573 3.69664 8.85334 3.67087 9.21615 3.66795ZM6.66732 9.66664C6.76615 9.66664 6.83087 9.70466 6.90299 9.78578C6.97512 9.8669 7.00065 10.0102 7.00065 9.95115C7.00065 10.1873 6.84987 10.3885 6.55404 10.5859C6.48492 10.3216 6.36895 10.0884 6.21745 9.87433C6.29436 9.77382 6.41931 9.66664 6.66732 9.66664ZM4.51107 10.3333C4.80434 10.3333 4.97727 10.4176 5.10482 10.5527C5.18249 10.635 5.20282 10.8323 5.24414 10.9909C5.22393 10.9915 5.19862 11 5.17904 11C4.94772 11 4.67862 10.925 4.52604 10.8248C4.37346 10.7247 4.33398 10.6712 4.33398 10.5195C4.33398 10.4255 4.36249 10.3333 4.51107 10.3333Z" fill="#399977"/>
</svg>
