<svg width="16" height="17" viewBox="0 0 16 17" fill="none" xmlns="http://www.w3.org/2000/svg">
<path fill-rule="evenodd" clip-rule="evenodd" d="M14.4777 7.33136C14.5637 7.8197 14.4057 8.3207 14.0547 8.6717L13.551 9.1747C13.3963 9.32903 13.3547 9.56603 13.447 9.76403L13.7483 10.4094C13.9583 10.8594 13.9353 11.3844 13.6873 11.814C13.4393 12.2437 12.996 12.526 12.5017 12.569L11.7927 12.631C11.575 12.6497 11.3907 12.8044 11.3343 13.0157L11.1503 13.7034C11.022 14.1824 10.667 14.5697 10.201 14.7397C10.032 14.801 9.85601 14.8314 9.68068 14.8314C9.37234 14.8314 9.06634 14.7377 8.80734 14.556L8.22401 14.147C8.04501 14.021 7.80434 14.0224 7.62534 14.147L7.04234 14.556C6.63501 14.841 6.11434 14.9094 5.64834 14.7397C5.18201 14.57 4.82734 14.1827 4.69901 13.7034L4.51501 13.0157C4.45834 12.8047 4.27434 12.65 4.05668 12.631L3.34701 12.569C2.85268 12.526 2.40968 12.2437 2.16134 11.814C1.91301 11.3844 1.89034 10.8594 2.10001 10.4097L2.40134 9.76403C2.49368 9.56603 2.45201 9.32903 2.29734 9.1747L1.79368 8.67136C1.44268 8.3207 1.28468 7.8197 1.37068 7.33103C1.45668 6.84236 1.77668 6.42536 2.22668 6.21603L2.87234 5.91536C3.07068 5.8227 3.19068 5.61436 3.17168 5.3967L3.10934 4.68736C3.06601 4.19303 3.26668 3.7077 3.64668 3.3887C4.02668 3.0697 4.53968 2.9567 5.01901 3.08436L5.70668 3.26936C5.91834 3.32503 6.14401 3.2437 6.26934 3.06436L6.67768 2.48103C6.96201 2.07503 7.42834 1.83203 7.92434 1.83203C8.42034 1.83203 8.88668 2.07503 9.17068 2.4817L9.57901 3.06503C9.70434 3.24436 9.93068 3.3257 10.1413 3.27003L10.8293 3.08503C11.308 2.9577 11.822 3.0707 12.202 3.38936C12.582 3.70836 12.7827 4.1937 12.7393 4.68803L12.677 5.39703C12.6577 5.61503 12.778 5.82336 12.976 5.91536L13.6217 6.21636C14.0717 6.4257 14.3917 6.84303 14.4777 7.33136ZM10.0267 6.87465C10.3047 6.87465 10.5614 6.98607 10.7539 7.20891C10.9464 7.43175 11.032 7.72145 10.9892 8.01114L10.6256 10.7298C10.5186 11.4652 9.94109 12 9.23522 12H7.24595C6.00533 12 5 10.9526 5 9.68245V8.2117C5 7.6546 5.25668 7.09749 5.70587 6.65181C6.1515 6.18756 7.16158 4.70195 7.49827 4.20675C7.56561 4.10771 7.60602 4.04828 7.60958 4.04457C7.63097 4 7.67375 4 7.71653 4C7.95182 4.04457 8.4224 4.28969 8.4224 4.93593C8.4224 5.09192 8.40101 5.24791 8.33684 5.49304C8.25128 5.93872 8.14433 6.29526 7.97321 6.69638C7.95182 6.74095 7.95182 6.78551 7.97321 6.83008C7.9946 6.85237 8.01599 6.87465 8.05877 6.87465H10.0267Z" fill="black"/>
</svg>
