<svg width="16" height="16" viewBox="0 0 16 16" fill="none" xmlns="http://www.w3.org/2000/svg">
<path d="M7.99023 2.00007C7.81683 2.00266 7.65125 2.07272 7.52865 2.19538L5.52865 4.19538C5.46466 4.25681 5.41358 4.33039 5.37839 4.41181C5.3432 4.49323 5.32461 4.58085 5.32371 4.66955C5.3228 4.75824 5.33961 4.84622 5.37313 4.92834C5.40666 5.01046 5.45623 5.08506 5.51895 5.14778C5.58167 5.2105 5.65628 5.26008 5.73839 5.2936C5.82051 5.32713 5.9085 5.34393 5.99719 5.34303C6.08588 5.34213 6.17351 5.32354 6.25493 5.28835C6.33634 5.25315 6.40992 5.20207 6.47135 5.13809L7.33333 4.27611V10.3334C7.33208 10.4217 7.3484 10.5095 7.38135 10.5914C7.41429 10.6734 7.4632 10.748 7.52523 10.8109C7.58726 10.8739 7.66117 10.9238 7.74268 10.9579C7.82418 10.992 7.91165 11.0096 8 11.0096C8.08835 11.0096 8.17582 10.992 8.25732 10.9579C8.33883 10.9238 8.41274 10.8739 8.47477 10.8109C8.5368 10.748 8.58571 10.6734 8.61865 10.5914C8.6516 10.5095 8.66792 10.4217 8.66667 10.3334V4.27611L9.52865 5.13809C9.59008 5.20207 9.66366 5.25315 9.74507 5.28835C9.82649 5.32354 9.91412 5.34213 10.0028 5.34303C10.0915 5.34393 10.1795 5.32713 10.2616 5.2936C10.3437 5.26008 10.4183 5.2105 10.481 5.14778C10.5438 5.08506 10.5933 5.01046 10.6269 4.92834C10.6604 4.84622 10.6772 4.75824 10.6763 4.66955C10.6754 4.58085 10.6568 4.49323 10.6216 4.41181C10.5864 4.33039 10.5353 4.25681 10.4714 4.19538L8.47135 2.19538C8.4083 2.1323 8.33323 2.08251 8.25059 2.04896C8.16795 2.01541 8.07942 1.99879 7.99023 2.00007ZM4 5.66674C2.90332 5.66674 2 6.57006 2 7.66674V12.0001C2 13.0967 2.90332 14.0001 4 14.0001H12C13.0967 14.0001 14 13.0967 14 12.0001V7.66674C14 6.57006 13.0967 5.66674 12 5.66674H11.6667C11.5783 5.66549 11.4906 5.68181 11.4086 5.71475C11.3267 5.74769 11.252 5.7966 11.1891 5.85863C11.1262 5.92066 11.0763 5.99457 11.0422 6.07608C11.0081 6.15758 10.9905 6.24505 10.9905 6.3334C10.9905 6.42175 11.0081 6.50922 11.0422 6.59073C11.0763 6.67223 11.1262 6.74615 11.1891 6.80818C11.252 6.87021 11.3267 6.91911 11.4086 6.95205C11.4906 6.985 11.5783 7.00132 11.6667 7.00007H12C12.376 7.00007 12.6667 7.29075 12.6667 7.66674V12.0001C12.6667 12.3761 12.376 12.6667 12 12.6667H4C3.62401 12.6667 3.33333 12.3761 3.33333 12.0001V7.66674C3.33333 7.29075 3.62401 7.00007 4 7.00007H4.33333C4.42167 7.00132 4.50938 6.985 4.59136 6.95205C4.67334 6.91911 4.74795 6.87021 4.81087 6.80818C4.87378 6.74615 4.92374 6.67223 4.95784 6.59073C4.99194 6.50922 5.0095 6.42175 5.0095 6.3334C5.0095 6.24505 4.99194 6.15758 4.95784 6.07608C4.92374 5.99457 4.87378 5.92066 4.81087 5.85863C4.74795 5.7966 4.67334 5.74769 4.59136 5.71475C4.50938 5.68181 4.42167 5.66549 4.33333 5.66674H4Z" fill="white"/>
</svg>
