<svg width="16" height="17" viewBox="0 0 16 17" fill="none" xmlns="http://www.w3.org/2000/svg">
<path d="M14.0527 8.67316C14.4037 8.32216 14.5617 7.82116 14.4757 7.33283C14.3897 6.8445 14.0697 6.42716 13.6197 6.21783L12.9741 5.91683C12.7761 5.82483 12.6557 5.6165 12.6751 5.3985L12.7374 4.6895C12.7807 4.19516 12.5801 3.70983 12.2001 3.39083C11.8201 3.07216 11.3061 2.95916 10.8274 3.0865L10.1394 3.2715C9.92872 3.32716 9.70239 3.24583 9.57706 3.0665L9.16872 2.48316C8.88472 2.0765 8.41839 1.8335 7.92239 1.8335C7.42639 1.8335 6.96006 2.0765 6.67572 2.4825L6.26739 3.06583C6.14206 3.24516 5.91639 3.3265 5.70472 3.27083L5.01706 3.08583C4.53772 2.95816 4.02472 3.07116 3.64472 3.39016C3.26472 3.70916 3.06406 4.1945 3.10739 4.68883L3.16972 5.39816C3.18872 5.61583 3.06872 5.82416 2.87039 5.91683L2.22472 6.2175C1.77472 6.42683 1.45472 6.84383 1.36872 7.3325C1.28272 7.82116 1.44072 8.32216 1.79172 8.67283L2.29539 9.17616C2.45006 9.3305 2.49172 9.5675 2.39939 9.7655L2.09806 10.4112C1.88839 10.8608 1.91106 11.3858 2.15939 11.8155C2.40772 12.2452 2.85072 12.5275 3.34506 12.5705L4.05472 12.6325C4.27239 12.6515 4.45639 12.8062 4.51306 13.0172L4.69706 13.7048C4.82539 14.1842 5.18006 14.5715 5.64639 14.7412C6.11239 14.9108 6.63306 14.8425 7.04039 14.5575L7.62339 14.1485C7.80239 14.0238 8.04306 14.0225 8.22206 14.1485L8.80539 14.5575C9.06439 14.7392 9.37039 14.8328 9.67872 14.8328C9.85406 14.8328 10.0301 14.8025 10.1991 14.7412C10.6651 14.5712 11.0201 14.1838 11.1484 13.7048L11.3324 13.0172C11.3887 12.8058 11.5731 12.6512 11.7907 12.6325L12.4997 12.5705C12.9941 12.5275 13.4374 12.2452 13.6854 11.8155C13.9334 11.3858 13.9564 10.8608 13.7464 10.4108L13.4451 9.7655C13.3527 9.5675 13.3944 9.3305 13.5491 9.17616L14.0527 8.67316ZM10.6861 7.35383L7.35272 10.6872C7.25506 10.7848 7.12706 10.8335 6.99906 10.8335C6.87106 10.8335 6.74306 10.7848 6.64539 10.6872L4.97872 9.0205C4.78339 8.82516 4.78339 8.50883 4.97872 8.3135C5.17406 8.11816 5.49039 8.11816 5.68572 8.3135L6.99906 9.6265L9.97872 6.64683C10.1741 6.4515 10.4904 6.4515 10.6857 6.64683C10.8811 6.84216 10.8811 7.1585 10.6861 7.35383Z" fill="#4664FF"/>
</svg>
