<svg width="21" height="21" viewBox="0 0 21 21" fill="none" xmlns="http://www.w3.org/2000/svg">
<path d="M15.214 0.0185547C13.799 0.0185547 12.384 0.55556 11.3087 1.63086L1.21984 11.7197C1.14786 11.7888 1.0904 11.8716 1.05081 11.9632C1.01122 12.0548 0.990311 12.1534 0.989297 12.2532C0.988282 12.3529 1.00719 12.4519 1.0449 12.5443C1.08262 12.6367 1.13839 12.7206 1.20895 12.7912C1.27951 12.8617 1.36344 12.9175 1.45582 12.9552C1.5482 12.9929 1.64718 13.0118 1.74696 13.0108C1.84674 13.0098 1.94531 12.9889 2.03691 12.9493C2.1285 12.9097 2.21128 12.8523 2.28039 12.7803L12.3693 2.69141C13.9467 1.114 16.4813 1.114 18.0587 2.69141C19.6361 4.26881 19.6361 6.80346 18.0587 8.38086L8.53723 17.9023C7.71938 18.7202 6.41562 18.7202 5.59777 17.9023C4.77993 17.0845 4.77992 15.7807 5.59777 14.9629L13.2804 7.28027C13.3524 7.21116 13.4098 7.12839 13.4494 7.03679C13.489 6.9452 13.5099 6.84662 13.5109 6.74684C13.512 6.64706 13.493 6.54808 13.4553 6.4557C13.4176 6.36332 13.3618 6.27939 13.2913 6.20883C13.2207 6.13828 13.1368 6.08251 13.0444 6.04479C12.952 6.00707 12.8531 5.98817 12.7533 5.98918C12.6535 5.9902 12.5549 6.01111 12.4633 6.0507C12.3717 6.09028 12.289 6.14775 12.2198 6.21973L4.53723 13.9023C3.14607 15.2935 3.14607 17.5717 4.53723 18.9629C5.92838 20.354 8.20662 20.354 9.59777 18.9629L19.1193 9.44141C21.2699 7.29081 21.2699 3.78146 19.1193 1.63086C18.044 0.55556 16.629 0.0185547 15.214 0.0185547Z" fill="#C1C6C7"/>
</svg>
