<svg width="40" height="40" viewBox="0 0 40 40" fill="none" xmlns="http://www.w3.org/2000/svg">
<path d="M30.4167 5H9.58333C7.05583 5 5 7.05583 5 9.58333V30.4167C5 32.9442 7.05583 35 9.58333 35H30.4167C32.9442 35 35 32.9442 35 30.4167V9.58333C35 7.05583 32.9442 5 30.4167 5ZM26.3008 24.5325C26.7892 25.02 26.7892 25.8125 26.3008 26.3C26.0567 26.545 25.7367 26.6667 25.4167 26.6667C25.0967 26.6667 24.7767 26.545 24.5325 26.3008L20 21.7675L15.4675 26.3C15.2233 26.545 14.9033 26.6667 14.5833 26.6667C14.2633 26.6667 13.9433 26.545 13.6992 26.3008C13.2108 25.8133 13.2108 25.0208 13.6992 24.5333L18.2325 20L13.7 15.4675C13.2117 14.98 13.2117 14.1875 13.7 13.7C14.1883 13.2117 14.9792 13.2117 15.4675 13.7L20 18.2325L24.5325 13.7C25.0208 13.2117 25.8117 13.2117 26.3 13.7C26.7883 14.1875 26.7883 14.98 26.3 15.4675L21.7675 20L26.3008 24.5325Z" fill="#399977"/>
</svg>
