<svg width="21" height="20" viewBox="0 0 21 20" fill="none" xmlns="http://www.w3.org/2000/svg">
<path d="M16.1152 2.49129C15.9496 2.49387 15.7918 2.56209 15.6764 2.68096C15.5611 2.79982 15.4976 2.95962 15.5 3.12524V4.41918C14.1733 3.22822 12.4206 2.50024 10.5 2.50024C6.36517 2.50024 3 5.86541 3 10.0002C3 14.1351 6.36517 17.5002 10.5 17.5002C14.6348 17.5002 18 14.1351 18 10.0002C18 9.60367 17.9603 9.22567 17.9056 8.86498C17.8958 8.78175 17.8693 8.70134 17.8278 8.62855C17.7862 8.55575 17.7305 8.49205 17.6638 8.44123C17.5972 8.39041 17.521 8.35351 17.4398 8.33273C17.3586 8.31196 17.2741 8.30772 17.1912 8.32027C17.1083 8.33283 17.0289 8.36192 16.9575 8.40582C16.8861 8.44972 16.8242 8.50753 16.7756 8.57581C16.727 8.64409 16.6926 8.72144 16.6745 8.80328C16.6564 8.88511 16.655 8.96975 16.6702 9.05216C16.7188 9.37231 16.75 9.68681 16.75 10.0002C16.75 13.4596 13.9593 16.2502 10.5 16.2502C7.04067 16.2502 4.25 13.4596 4.25 10.0002C4.25 6.54091 7.04067 3.75024 10.5 3.75024C12.1393 3.75024 13.6169 4.3867 14.7293 5.41691H13.2083C13.1255 5.41573 13.0433 5.43104 12.9664 5.46192C12.8896 5.4928 12.8196 5.53865 12.7606 5.59681C12.7017 5.65496 12.6548 5.72425 12.6229 5.80066C12.5909 5.87708 12.5744 5.95908 12.5744 6.04191C12.5744 6.12473 12.5909 6.20674 12.6229 6.28315C12.6548 6.35956 12.7017 6.42885 12.7606 6.48701C12.8196 6.54516 12.8896 6.59101 12.9664 6.62189C13.0433 6.65278 13.1255 6.66808 13.2083 6.66691H16.125C16.2908 6.66689 16.4497 6.60104 16.5669 6.48383C16.6841 6.36662 16.75 6.20766 16.75 6.04191V3.12524C16.7512 3.04159 16.7356 2.95854 16.7041 2.88103C16.6726 2.80352 16.6259 2.73312 16.5667 2.674C16.5075 2.61488 16.437 2.56825 16.3595 2.53686C16.2819 2.50548 16.1989 2.48998 16.1152 2.49129Z" fill="#8E9394"/>
</svg>
