<svg width="20" height="20" viewBox="0 0 20 20" fill="none" xmlns="http://www.w3.org/2000/svg">
<path d="M10 0C4.48603 0 0 4.48604 0 10C0 15.514 4.48603 20 10 20C15.514 20 20 15.514 20 10C20 4.48604 15.514 0 10 0ZM10 1.5C14.7033 1.5 18.5 5.2967 18.5 10C18.5 14.7033 14.7033 18.5 10 18.5C5.29669 18.5 1.5 14.7033 1.5 10C1.5 5.2967 5.29669 1.5 10 1.5ZM7 6.25C6.66848 6.25 6.35054 6.3817 6.11612 6.61612C5.8817 6.85054 5.75 7.16848 5.75 7.5C5.75 7.83152 5.8817 8.14946 6.11612 8.38388C6.35054 8.6183 6.66848 8.75 7 8.75C7.33152 8.75 7.64946 8.6183 7.88388 8.38388C8.1183 8.14946 8.25 7.83152 8.25 7.5C8.25 7.16848 8.1183 6.85054 7.88388 6.61612C7.64946 6.3817 7.33152 6.25 7 6.25ZM13 6.25C12.6685 6.25 12.3505 6.3817 12.1161 6.61612C11.8817 6.85054 11.75 7.16848 11.75 7.5C11.75 7.83152 11.8817 8.14946 12.1161 8.38388C12.3505 8.6183 12.6685 8.75 13 8.75C13.3315 8.75 13.6495 8.6183 13.8839 8.38388C14.1183 8.14946 14.25 7.83152 14.25 7.5C14.25 7.16848 14.1183 6.85054 13.8839 6.61612C13.6495 6.3817 13.3315 6.25 13 6.25ZM5.88672 11.9922C5.74404 11.9898 5.60365 12.0282 5.48201 12.1028C5.36037 12.1774 5.26254 12.2852 5.2 12.4134C5.13746 12.5417 5.1128 12.6851 5.12893 12.8269C5.14505 12.9687 5.20128 13.1029 5.29102 13.2139C6.38816 14.6082 8.09647 15.5 10 15.5C11.9035 15.5 13.6118 14.6082 14.709 13.2139C14.7715 13.1366 14.818 13.0478 14.8458 12.9524C14.8737 12.857 14.8823 12.7571 14.8712 12.6584C14.8601 12.5596 14.8295 12.4641 14.7812 12.3773C14.7329 12.2905 14.6678 12.2142 14.5897 12.1527C14.5117 12.0913 14.4222 12.046 14.3264 12.0194C14.2307 11.9928 14.1307 11.9855 14.0321 11.9979C13.9335 12.0104 13.8384 12.0422 13.7523 12.0917C13.6661 12.1412 13.5907 12.2073 13.5303 12.2861C12.7074 13.3318 11.4365 14 10 14C8.56353 14 7.29258 13.3318 6.46973 12.2861C6.40099 12.1964 6.31284 12.1233 6.21188 12.0724C6.11093 12.0215 5.99977 11.9941 5.88672 11.9922Z" fill="#C1C6C7"/>
</svg>
