<svg width="24" height="24" viewBox="0 0 24 24" fill="none" xmlns="http://www.w3.org/2000/svg">
<path d="M5.75 3C4.24011 3 3 4.24011 3 5.75V18.25C3 19.7599 4.24011 21 5.75 21H18.25C19.7599 21 21 19.7599 21 18.25V5.75C21 4.24011 19.7599 3 18.25 3H5.75ZM5.75 4.5H18.25C18.9491 4.5 19.5 5.05089 19.5 5.75V18.25C19.5 18.9491 18.9491 19.5 18.25 19.5H5.75C5.05089 19.5 4.5 18.9491 4.5 18.25V5.75C4.5 5.05089 5.05089 4.5 5.75 4.5ZM7.25 8C7.15062 7.99859 7.05194 8.01696 6.95972 8.05402C6.86749 8.09108 6.78355 8.1461 6.71277 8.21588C6.642 8.28566 6.58579 8.36882 6.54743 8.46051C6.50907 8.5522 6.48932 8.65061 6.48932 8.75C6.48932 8.84939 6.50907 8.9478 6.54743 9.03949C6.58579 9.13118 6.642 9.21434 6.71277 9.28412C6.78355 9.3539 6.86749 9.40892 6.95972 9.44598C7.05194 9.48304 7.15062 9.50141 7.25 9.5H16.75C16.8494 9.50141 16.9481 9.48304 17.0403 9.44598C17.1325 9.40892 17.2164 9.3539 17.2872 9.28412C17.358 9.21434 17.4142 9.13118 17.4526 9.03949C17.4909 8.9478 17.5107 8.84939 17.5107 8.75C17.5107 8.65061 17.4909 8.5522 17.4526 8.46051C17.4142 8.36882 17.358 8.28566 17.2872 8.21588C17.2164 8.1461 17.1325 8.09108 17.0403 8.05402C16.9481 8.01696 16.8494 7.99859 16.75 8H7.25ZM7.25 11C7.15062 10.9986 7.05194 11.017 6.95972 11.054C6.86749 11.0911 6.78355 11.1461 6.71277 11.2159C6.642 11.2857 6.58579 11.3688 6.54743 11.4605C6.50907 11.5522 6.48932 11.6506 6.48932 11.75C6.48932 11.8494 6.50907 11.9478 6.54743 12.0395C6.58579 12.1312 6.642 12.2143 6.71277 12.2841C6.78355 12.3539 6.86749 12.4089 6.95972 12.446C7.05194 12.483 7.15062 12.5014 7.25 12.5H16.75C16.8494 12.5014 16.9481 12.483 17.0403 12.446C17.1325 12.4089 17.2164 12.3539 17.2872 12.2841C17.358 12.2143 17.4142 12.1312 17.4526 12.0395C17.4909 11.9478 17.5107 11.8494 17.5107 11.75C17.5107 11.6506 17.4909 11.5522 17.4526 11.4605C17.4142 11.3688 17.358 11.2857 17.2872 11.2159C17.2164 11.1461 17.1325 11.0911 17.0403 11.054C16.9481 11.017 16.8494 10.9986 16.75 11H7.25ZM7.25 14C7.15062 13.9986 7.05194 14.017 6.95972 14.054C6.86749 14.0911 6.78355 14.1461 6.71277 14.2159C6.642 14.2857 6.58579 14.3688 6.54743 14.4605C6.50907 14.5522 6.48932 14.6506 6.48932 14.75C6.48932 14.8494 6.50907 14.9478 6.54743 15.0395C6.58579 15.1312 6.642 15.2143 6.71277 15.2841C6.78355 15.3539 6.86749 15.4089 6.95972 15.446C7.05194 15.483 7.15062 15.5014 7.25 15.5H13.75C13.8494 15.5014 13.9481 15.483 14.0403 15.446C14.1325 15.4089 14.2164 15.3539 14.2872 15.2841C14.358 15.2143 14.4142 15.1312 14.4526 15.0395C14.4909 14.9478 14.5107 14.8494 14.5107 14.75C14.5107 14.6506 14.4909 14.5522 14.4526 14.4605C14.4142 14.3688 14.358 14.2857 14.2872 14.2159C14.2164 14.1461 14.1325 14.0911 14.0403 14.054C13.9481 14.017 13.8494 13.9986 13.75 14H7.25Z" />
</svg>
