<svg width="24" height="24" viewBox="0 0 24 24" fill="none" xmlns="http://www.w3.org/2000/svg">
<path d="M3.25 3.5C2.01765 3.5 1 4.51765 1 5.75C1 6.71857 1.63258 7.54589 2.5 7.85938V19H2.25C2.15062 18.9986 2.05194 19.017 1.95972 19.054C1.86749 19.0911 1.78355 19.1461 1.71277 19.2159C1.642 19.2857 1.58579 19.3688 1.54743 19.4605C1.50907 19.5522 1.48932 19.6506 1.48932 19.75C1.48932 19.8494 1.50907 19.9478 1.54743 20.0395C1.58579 20.1312 1.642 20.2143 1.71277 20.2841C1.78355 20.3539 1.86749 20.4089 1.95972 20.446C2.05194 20.483 2.15062 20.5014 2.25 20.5H11.25V21.75C11.2497 21.7784 11.251 21.8067 11.2539 21.835C11.1257 21.9789 11.0418 22.1569 11.0124 22.3475C10.983 22.538 11.0093 22.733 11.0881 22.9089C11.167 23.0849 11.295 23.2343 11.4568 23.3391C11.6186 23.444 11.8072 23.4999 12 23.5C12.193 23.5 12.3818 23.4442 12.5438 23.3393C12.7058 23.2344 12.8339 23.0848 12.9128 22.9087C12.9917 22.7326 13.0179 22.5374 12.9883 22.3467C12.9588 22.156 12.8746 21.9779 12.7461 21.834C12.749 21.8061 12.7503 21.778 12.75 21.75V20.5H21.75C21.8494 20.5014 21.9481 20.483 22.0403 20.446C22.1325 20.4089 22.2164 20.3539 22.2872 20.2841C22.358 20.2143 22.4142 20.1312 22.4526 20.0395C22.4909 19.9478 22.5107 19.8494 22.5107 19.75C22.5107 19.6506 22.4909 19.5522 22.4526 19.4605C22.4142 19.3688 22.358 19.2857 22.2872 19.2159C22.2164 19.1461 22.1325 19.0911 22.0403 19.054C21.9481 19.017 21.8494 18.9986 21.75 19H21.5V7.85938C22.3674 7.54589 23 6.71857 23 5.75C23 4.51765 21.9824 3.5 20.75 3.5H3.25ZM3.25 5H20.75C21.2176 5 21.5 5.28235 21.5 5.75C21.5 6.21765 21.2176 6.5 20.75 6.5H3.25C2.78235 6.5 2.5 6.21765 2.5 5.75C2.5 5.28235 2.78235 5 3.25 5ZM4 8H20V19H12.123C12.0785 18.9924 12.0334 18.9888 11.9883 18.9893C11.9519 18.9902 11.9157 18.9938 11.8799 19H4V8ZM17 10C16.7459 10.0002 16.5015 10.0972 16.3163 10.2711C16.1311 10.4451 16.0191 10.683 16.0029 10.9365L13 13.9395L11.4971 12.4365C11.4809 12.183 11.3689 11.9451 11.1837 11.7711C10.9985 11.5972 10.7541 11.5002 10.5 11.5C10.2459 11.5002 10.0015 11.5972 9.81628 11.7711C9.63109 11.9451 9.51906 12.183 9.50293 12.4365L6.93652 15.0029C6.67963 15.0224 6.44016 15.1402 6.26802 15.3319C6.09589 15.5236 6.00438 15.7743 6.01256 16.0318C6.02075 16.2893 6.128 16.5337 6.31196 16.7141C6.49591 16.8945 6.74239 16.9969 7 17C7.25407 16.9998 7.49853 16.9028 7.68372 16.7289C7.86891 16.5549 7.98094 16.317 7.99707 16.0635L10.5 13.5605L12.0029 15.0635C12.0191 15.317 12.1311 15.5549 12.3163 15.7289C12.5015 15.9028 12.7459 15.9998 13 16C13.2541 15.9998 13.4985 15.9028 13.6837 15.7289C13.8689 15.5549 13.9809 15.317 13.9971 15.0635L17.0635 11.9971C17.3204 11.9776 17.5598 11.8598 17.732 11.6681C17.9041 11.4764 17.9956 11.2257 17.9874 10.9682C17.9793 10.7107 17.872 10.4663 17.688 10.2859C17.5041 10.1055 17.2576 10.0031 17 10Z" />
</svg>
