<svg width="24" height="24" viewBox="0 0 24 24" fill="none" xmlns="http://www.w3.org/2000/svg">
<path d="M6.5 3C3.7385 3 1.5 5.2385 1.5 8C1.5 9.8499 2.50665 11.4614 4 12.3262V19.75C4 19.9485 4.07923 20.1393 4.21973 20.2803L5.71973 21.7803C5.86623 21.9268 6.058 22 6.25 22C6.442 22 6.63377 21.9268 6.78027 21.7803L8.78027 19.7803C9.07327 19.4873 9.07327 19.0127 8.78027 18.7197L7.81055 17.75L8.78027 16.7803C9.07327 16.4873 9.07327 16.0127 8.78027 15.7197L7.81055 14.75L8.78027 13.7803C8.92127 13.6393 9 13.4485 9 13.25V12.3262C10.4934 11.4614 11.5 9.8499 11.5 8C11.5 5.2385 9.2615 3 6.5 3ZM6.5 6C7.0525 6 7.5 6.4475 7.5 7C7.5 7.5525 7.0525 8 6.5 8C5.9475 8 5.5 7.5525 5.5 7C5.5 6.4475 5.9475 6 6.5 6ZM12.8252 6.5C12.9402 6.98 13 7.485 13 8C13 9.69 12.3297 11.3001 11.1797 12.4951C11.2047 12.5001 11.225 12.5 11.25 12.5H20.75C21.715 12.5 22.5 11.715 22.5 10.75V8.25C22.5 7.285 21.715 6.5 20.75 6.5H12.8252ZM10.3701 14C10.2751 14.275 10.1248 14.53 9.9248 14.75C10.6898 15.6 10.6898 16.9 9.9248 17.75C10.4848 18.375 10.6351 19.245 10.3701 20H20.75C21.715 20 22.5 19.215 22.5 18.25V15.75C22.5 14.785 21.715 14 20.75 14H10.3701Z" />
</svg>
