<svg width="24" height="24" viewBox="0 0 24 24" fill="none" xmlns="http://www.w3.org/2000/svg">
<path d="M12 3C11.0625 3 10.2644 3.37857 9.75195 3.95508C9.2395 4.53159 9 5.27083 9 6C9 6.72917 9.2395 7.46841 9.75195 8.04492C10.2644 8.62143 11.0625 9 12 9C12.9375 9 13.7356 8.62143 14.248 8.04492C14.7605 7.46841 15 6.72917 15 6C15 5.27083 14.7605 4.53159 14.248 3.95508C13.7356 3.37857 12.9375 3 12 3ZM5.5 4C4.72917 4 4.05607 4.31607 3.62695 4.79883C3.19783 5.28159 3 5.89583 3 6.5C3 7.10417 3.19783 7.71841 3.62695 8.20117C4.05607 8.68393 4.72917 9 5.5 9C6.27083 9 6.94393 8.68393 7.37305 8.20117C7.80217 7.71841 8 7.10417 8 6.5C8 5.89583 7.80217 5.28159 7.37305 4.79883C6.94393 4.31607 6.27083 4 5.5 4ZM18.5 4C17.7292 4 17.0561 4.31607 16.627 4.79883C16.1978 5.28159 16 5.89583 16 6.5C16 7.10417 16.1978 7.71841 16.627 8.20117C17.0561 8.68393 17.7292 9 18.5 9C19.2708 9 19.9439 8.68393 20.373 8.20117C20.8022 7.71841 21 7.10417 21 6.5C21 5.89583 20.8022 5.28159 20.373 4.79883C19.9439 4.31607 19.2708 4 18.5 4ZM12 4.5C12.5625 4.5 12.8894 4.68393 13.127 4.95117C13.3645 5.21841 13.5 5.60417 13.5 6C13.5 6.39583 13.3645 6.78159 13.127 7.04883C12.8894 7.31607 12.5625 7.5 12 7.5C11.4375 7.5 11.1106 7.31607 10.873 7.04883C10.6355 6.78159 10.5 6.39583 10.5 6C10.5 5.60417 10.6355 5.21841 10.873 4.95117C11.1106 4.68393 11.4375 4.5 12 4.5ZM5.5 5.5C5.89583 5.5 6.09774 5.62143 6.25195 5.79492C6.40617 5.96841 6.5 6.22917 6.5 6.5C6.5 6.77083 6.40617 7.03159 6.25195 7.20508C6.09774 7.37857 5.89583 7.5 5.5 7.5C5.10417 7.5 4.90226 7.37857 4.74805 7.20508C4.59383 7.03159 4.5 6.77083 4.5 6.5C4.5 6.22917 4.59383 5.96841 4.74805 5.79492C4.90226 5.62143 5.10417 5.5 5.5 5.5ZM18.5 5.5C18.8958 5.5 19.0977 5.62143 19.252 5.79492C19.4062 5.96841 19.5 6.22917 19.5 6.5C19.5 6.77083 19.4062 7.03159 19.252 7.20508C19.0977 7.37857 18.8958 7.5 18.5 7.5C18.1042 7.5 17.9023 7.37857 17.748 7.20508C17.5938 7.03159 17.5 6.77083 17.5 6.5C17.5 6.22917 17.5938 5.96841 17.748 5.79492C17.9023 5.62143 18.1042 5.5 18.5 5.5ZM3.75 10C2.785 10 2 10.785 2 11.75V15C2 17.205 3.795 19 6 19C6.355 19 6.70027 18.9552 7.03027 18.8652C6.82027 18.4152 6.66508 17.9347 6.58008 17.4297C6.39508 17.4747 6.2 17.5 6 17.5C4.62 17.5 3.5 16.38 3.5 15V11.75C3.5 11.61 3.61 11.5 3.75 11.5H6.51465C6.56465 10.93 6.78488 10.415 7.12988 10H3.75ZM9.25 10C8.29252 10 7.5 10.7925 7.5 11.75V16.5C7.5 18.9764 9.52364 21 12 21C14.4764 21 16.5 18.9764 16.5 16.5V11.75C16.5 10.7925 15.7075 10 14.75 10H9.25ZM16.8701 10C17.2151 10.415 17.4354 10.93 17.4854 11.5H20.25C20.39 11.5 20.5 11.61 20.5 11.75V15C20.5 16.38 19.38 17.5 18 17.5C17.8 17.5 17.6049 17.4747 17.4199 17.4297C17.3349 17.9347 17.1797 18.4152 16.9697 18.8652C17.2997 18.9552 17.645 19 18 19C20.205 19 22 17.205 22 15V11.75C22 10.785 21.215 10 20.25 10H16.8701ZM9.25 11.5H11.0303L11.4893 12.418C11.4913 12.4215 11.4941 12.4242 11.4961 12.4277C11.4956 12.4307 11.4937 12.4325 11.4932 12.4355L11.0059 15.248C10.9879 15.3515 11.0141 15.458 11.0781 15.541L11.7031 16.3535C11.7736 16.446 11.8835 16.5 12 16.5C12.1165 16.5 12.2264 16.446 12.2969 16.3535L12.9219 15.541C12.9859 15.458 13.0121 15.3515 12.9941 15.248L12.5068 12.4355C12.5063 12.4325 12.5049 12.4307 12.5039 12.4277C12.5059 12.4242 12.5087 12.422 12.5107 12.418L12.9688 11.5H14.75C14.8975 11.5 15 11.6025 15 11.75V16.5C15 18.1656 13.6656 19.5 12 19.5C10.3344 19.5 9 18.1656 9 16.5V11.75C9 11.6025 9.10248 11.5 9.25 11.5Z" />
</svg>
