<svg width="24" height="25" viewBox="0 0 24 25" fill="none" xmlns="http://www.w3.org/2000/svg">
<path d="M10.2499 2.50006C10.1291 2.49851 10.0098 2.52617 9.90195 2.58067C9.79413 2.63517 9.70108 2.7149 9.6307 2.81309C9.56032 2.91128 9.51469 3.02501 9.49771 3.14462C9.48072 3.26422 9.49288 3.38616 9.53314 3.50006H7.32025C6.40163 3.50006 5.5414 3.95979 5.03217 4.72467L3.84857 6.50006H3.74994C3.65056 6.49866 3.55188 6.51702 3.45966 6.55408C3.36743 6.59114 3.28349 6.64616 3.21271 6.71594C3.14194 6.78572 3.08573 6.86888 3.04737 6.96057C3.00901 7.05227 2.98926 7.15067 2.98926 7.25006C2.98926 7.34946 3.00901 7.44786 3.04737 7.53955C3.08573 7.63124 3.14194 7.7144 3.21271 7.78418C3.28349 7.85396 3.36743 7.90899 3.45966 7.94605C3.55188 7.98311 3.65056 8.00147 3.74994 8.00006H4.13178C4.19611 8.00979 4.26144 8.0111 4.32611 8.00397L5.56244 19.543C5.71162 20.9342 6.89786 22.0001 8.29681 22.0001H15.7021C17.101 22.0001 18.2873 20.9342 18.4365 19.543L19.6738 8.00397C19.7372 8.01076 19.8011 8.00945 19.8642 8.00006H20.2499C20.3493 8.00147 20.448 7.98311 20.5402 7.94605C20.6324 7.90899 20.7164 7.85396 20.7872 7.78418C20.8579 7.7144 20.9141 7.63124 20.9525 7.53955C20.9909 7.44786 21.0106 7.34946 21.0106 7.25006C21.0106 7.15067 20.9909 7.05227 20.9525 6.96057C20.9141 6.86888 20.8579 6.78572 20.7872 6.71594C20.7164 6.64616 20.6324 6.59114 20.5402 6.55408C20.448 6.51702 20.3493 6.49866 20.2499 6.50006H20.1513L18.9677 4.72467C18.4581 3.9602 17.5979 3.50006 16.6796 3.50006H14.4667C14.507 3.38616 14.5192 3.26422 14.5022 3.14462C14.4852 3.02501 14.4396 2.91128 14.3692 2.81309C14.2988 2.7149 14.2057 2.63517 14.0979 2.58067C13.9901 2.52617 13.8707 2.49851 13.7499 2.50006H10.2499ZM7.32025 5.00006H16.6796C17.0983 5.00006 17.4873 5.20817 17.7197 5.5567L18.3486 6.50006H5.65131L6.28021 5.5567C6.28054 5.55638 6.28086 5.55605 6.28119 5.55573C6.51293 5.20763 6.90088 5.00006 7.32025 5.00006ZM5.8349 8.00006H18.165L16.9453 19.3829C16.8764 20.0247 16.3471 20.5001 15.7021 20.5001H8.29681C7.65177 20.5001 7.12345 20.0247 7.05463 19.3829L5.8349 8.00006Z" fill="#C1C6C7"/>
</svg>
