<svg width="24" height="24" viewBox="0 0 24 24" fill="none" xmlns="http://www.w3.org/2000/svg">
<path d="M13.5342 0.46317C13.2311 0.472575 12.9245 0.532083 12.628 0.634068C11.7041 0.951843 10.9492 1.46121 10.4551 2.18387C9.96106 2.90653 9.74907 3.79925 9.74907 4.80399C9.74888 4.84355 9.75182 4.88306 9.75786 4.92215C8.66851 5.40806 7.19243 6.06571 7.19243 6.06571C7.19015 6.067 7.18787 6.0683 7.1856 6.06961C6.80604 6.24454 6.09325 6.44209 5.41607 6.95829C4.73888 7.47448 4.1501 8.36117 4.00396 9.66727C4.00255 9.68189 4.00157 9.69654 4.00103 9.71122L3.50103 19.2112C3.49519 19.3226 3.51426 19.4338 3.55683 19.5368C3.5994 19.6399 3.66441 19.7322 3.74712 19.8069C4.66685 20.636 6.01901 21.2521 7.1729 21.7171C8.3268 22.182 9.28423 22.469 9.28423 22.469C9.46463 22.5232 9.65881 22.5075 9.82818 22.4251C13.4922 20.6413 17.1285 18.729 20.6651 16.3743C20.7617 16.31 20.842 16.2241 20.8998 16.1234C20.9576 16.0228 20.9913 15.9101 20.9981 15.7942C21.0887 14.2626 20.7012 11.3557 20.7012 11.3557C20.6963 11.3134 20.6878 11.2716 20.6758 11.2307C20.7436 11.1658 21.0235 10.9241 21.0235 10.9241C21.1045 10.8449 21.1665 10.7485 21.2049 10.6419C21.2433 10.5354 21.2571 10.4215 21.2452 10.3089C21.2452 10.3089 20.8841 6.52812 20.1172 4.43387C19.7212 3.35142 19.0647 2.62841 18.3067 2.28153C17.9277 2.10809 17.539 2.02874 17.1622 2.01883C16.7854 2.00893 16.4201 2.06816 16.0899 2.16922C16.0289 2.1879 15.9404 2.22896 15.879 2.25223C15.7202 1.66301 15.4066 1.17373 14.9542 0.860631C14.6185 0.628314 14.2346 0.503635 13.836 0.470982C13.7363 0.462819 13.6353 0.460034 13.5342 0.46317ZM13.7002 1.96122C13.8637 1.97328 13.9964 2.02253 14.0997 2.09403C14.266 2.20911 14.4176 2.42404 14.4727 2.83915C14.4352 2.85541 14.4135 2.86444 14.3751 2.88114C13.517 3.25365 12.434 3.73173 11.3702 4.2034C11.3238 4.22396 11.3256 4.2239 11.2793 4.24442C11.3379 3.73305 11.4804 3.34213 11.6934 3.03055C11.9782 2.61396 12.4106 2.29476 13.1163 2.05204C13.3424 1.97427 13.5368 1.94915 13.7002 1.96122ZM17.1143 3.51883C17.3096 3.52313 17.5024 3.56231 17.6827 3.64481C18.0432 3.80981 18.4161 4.14896 18.709 4.9495C19.2606 6.45576 19.6322 9.5056 19.7012 10.0862C19.3231 10.4369 17.6991 11.9206 16.1251 12.6204C14.1902 13.4814 12.9823 13.863 12.2891 14.0276C12.1068 14.0709 12.0473 14.0727 11.9327 14.0911C11.7118 13.5882 10.6409 11.1786 9.99126 9.1243C9.66856 8.10395 8.9957 7.56276 8.31743 7.20731C8.73147 7.02174 10.1147 6.40089 11.9786 5.5745C13.0405 5.10367 14.1213 4.62673 14.9727 4.25711C15.3984 4.07231 15.7664 3.91443 16.044 3.79813C16.3216 3.68183 16.5565 3.5955 16.5293 3.60379C16.7211 3.54511 16.919 3.51453 17.1143 3.51883ZM6.57232 8.19657C6.74548 8.19834 6.97923 8.21814 7.23638 8.28739C7.76993 8.43106 8.28161 8.69433 8.5606 9.57645C8.61254 9.74071 8.69159 9.91195 8.74907 10.0823C8.74871 10.1009 8.74904 10.1194 8.75005 10.138C8.9424 13.902 8.91729 16.9642 8.75493 20.6897C8.39296 20.5678 8.29294 20.5519 7.73345 20.3265C6.75868 19.9337 5.69144 19.3847 5.02056 18.8694L5.49614 9.83036C5.60019 8.90679 5.89962 8.51275 6.27056 8.21317C6.28657 8.21104 6.39915 8.19479 6.57232 8.19657ZM19.2725 12.4075C19.3528 13.148 19.4747 14.3419 19.4756 15.3421C16.4809 17.307 13.3941 18.9625 10.2598 20.5159C10.352 18.3311 10.3769 16.2914 10.3555 14.2571C10.4996 14.5906 10.7579 15.2024 10.7579 15.2024C10.8091 15.3179 10.8887 15.4185 10.9893 15.495C11.0899 15.5715 11.2081 15.6213 11.3331 15.6399C11.3331 15.6399 11.5218 15.6591 11.7286 15.6429C11.9353 15.6266 12.2271 15.5847 12.6358 15.4876C13.1009 15.3771 13.7406 15.1809 14.5538 14.8811C14.7725 15.4231 15.3904 15.6537 16.0157 15.3899C16.6382 15.1273 17.0419 14.4714 16.9893 13.8636C17.8186 13.4598 18.6013 12.9224 19.2725 12.4075Z" />
</svg>
