<svg width="24" height="24" viewBox="0 0 24 24" fill="none" xmlns="http://www.w3.org/2000/svg">
<path d="M12.3037 2.02063C12.1735 2.01593 12.0407 2.02622 11.9072 2.05286L4.30859 3.57239C3.26142 3.78213 2.5 4.71065 2.5 5.77845V18.2199C2.5 19.2873 3.26151 20.2165 4.30859 20.4259L11.9072 21.9454C12.8794 22.1397 13.7783 21.4446 13.9375 20.4991H18.75C20.2599 20.4991 21.5 19.259 21.5 17.7491V6.74915C21.5 5.23926 20.2599 3.99915 18.75 3.99915H14V3.76868C14 2.81615 13.215 2.05358 12.3037 2.02063ZM12.2012 3.52356C12.3708 3.4897 12.5 3.59529 12.5 3.76868V20.2296C12.5 20.403 12.3706 20.5087 12.2012 20.4747C12.2012 20.4744 12.2012 20.4741 12.2012 20.4738L4.60352 18.9542C4.60319 18.9542 4.60286 18.9542 4.60254 18.9542C4.2471 18.8833 4 18.5821 4 18.2199V5.77845C4 5.41624 4.24769 5.11436 4.60352 5.04309L12.2012 3.52356ZM14 5.49915H18.75C19.4491 5.49915 20 6.05004 20 6.74915V17.7491C20 18.4483 19.4491 18.9991 18.75 18.9991H14V16.9991H17.75C17.8494 17.0006 17.9481 16.9822 18.0403 16.9451C18.1325 16.9081 18.2164 16.8531 18.2872 16.7833C18.358 16.7135 18.4142 16.6303 18.4526 16.5386C18.4909 16.4469 18.5107 16.3485 18.5107 16.2491C18.5107 16.1498 18.4909 16.0514 18.4526 15.9597C18.4142 15.868 18.358 15.7848 18.2872 15.715C18.2164 15.6452 18.1325 15.5902 18.0403 15.5532C17.9481 15.5161 17.8494 15.4977 17.75 15.4991H14V12.9991H17.75C17.8494 13.0006 17.9481 12.9822 18.0403 12.9451C18.1325 12.9081 18.2164 12.8531 18.2872 12.7833C18.358 12.7135 18.4142 12.6303 18.4526 12.5386C18.4909 12.4469 18.5107 12.3485 18.5107 12.2491C18.5107 12.1498 18.4909 12.0514 18.4526 11.9597C18.4142 11.868 18.358 11.7848 18.2872 11.715C18.2164 11.6452 18.1325 11.5902 18.0403 11.5532C17.9481 11.5161 17.8494 11.4977 17.75 11.4991H14V8.99915H17.75C17.8494 9.00056 17.9481 8.98219 18.0403 8.94513C18.1325 8.90807 18.2164 8.85305 18.2872 8.78327C18.358 8.71349 18.4142 8.63033 18.4526 8.53864C18.4909 8.44695 18.5107 8.34854 18.5107 8.24915C18.5107 8.14976 18.4909 8.05135 18.4526 7.95966C18.4142 7.86797 18.358 7.78481 18.2872 7.71503C18.2164 7.64525 18.1325 7.59023 18.0403 7.55317C17.9481 7.51611 17.8494 7.49774 17.75 7.49915H14V5.49915ZM5.7627 8.48841C5.65162 8.4862 5.54145 8.5087 5.44013 8.55427C5.33881 8.59984 5.24888 8.66734 5.17683 8.75191C5.10479 8.83648 5.05243 8.93599 5.02353 9.04326C4.99464 9.15054 4.98994 9.26289 5.00977 9.3722L6.00977 15.3722C6.03675 15.5352 6.11678 15.6847 6.23742 15.7975C6.35807 15.9103 6.51258 15.9801 6.67698 15.9962C6.84138 16.0122 7.00647 15.9735 7.14663 15.8861C7.2868 15.7987 7.39419 15.6675 7.45215 15.5128L8.25 13.3849L9.04785 15.5128C9.10581 15.6675 9.2132 15.7987 9.35337 15.8861C9.49353 15.9735 9.65862 16.0122 9.82302 15.9962C9.98742 15.9801 10.1419 15.9103 10.2626 15.7975C10.3832 15.6847 10.4632 15.5352 10.4902 15.3722L11.4902 9.3722C11.5064 9.27498 11.5033 9.17552 11.481 9.07951C11.4588 8.98351 11.4178 8.89282 11.3605 8.81264C11.3032 8.73246 11.2306 8.66436 11.147 8.61222C11.0634 8.56008 10.9703 8.52492 10.8731 8.50876C10.7759 8.4926 10.6764 8.49575 10.5804 8.51803C10.4844 8.54031 10.3937 8.58128 10.3135 8.63861C10.2334 8.69594 10.1653 8.76849 10.1132 8.85214C10.061 8.93578 10.0259 9.02888 10.0098 9.1261L9.46973 12.3663L8.95215 10.9855C8.89847 10.8426 8.8025 10.7195 8.67704 10.6327C8.55158 10.5458 8.40261 10.4992 8.25 10.4992C8.09739 10.4992 7.94842 10.5458 7.82296 10.6327C7.6975 10.7195 7.60153 10.8426 7.54785 10.9855L7.03027 12.3663L6.49023 9.1261C6.46374 8.95104 6.37617 8.79099 6.24302 8.67428C6.10987 8.55758 5.93972 8.49173 5.7627 8.48841Z" fill="#C1C6C7"/>
</svg>
