<svg width="24" height="24" viewBox="0 0 24 24" fill="none" xmlns="http://www.w3.org/2000/svg">
<path d="M14.2226 3.27435C13.7203 3.2976 13.2198 3.42664 12.7529 3.66009C12.7393 3.66685 12.726 3.67401 12.7128 3.68157L11.2949 4.50091C11.2799 4.50014 11.2649 4.49981 11.2499 4.49993H1.74994C1.65056 4.49853 1.55188 4.51689 1.45966 4.55395C1.36743 4.59101 1.28349 4.64603 1.21271 4.71581C1.14194 4.7856 1.08573 4.86875 1.04737 4.96044C1.00901 5.05214 0.989258 5.15054 0.989258 5.24993C0.989258 5.34933 1.00901 5.44773 1.04737 5.53942C1.08573 5.63112 1.14194 5.71427 1.21271 5.78405C1.28349 5.85384 1.36743 5.90886 1.45966 5.94592C1.55188 5.98298 1.65056 6.00134 1.74994 5.99993H8.13178L7.8056 6.13568C7.78941 6.14228 7.77345 6.14944 7.75775 6.15716C6.92658 6.57275 6.54312 7.45806 6.62592 8.25482C6.70871 9.05157 7.2791 9.84589 8.1933 10.0742C8.54966 10.1629 8.9455 10.2148 9.37689 10.2148C11.5637 10.2148 13.7065 9.53337 14.3408 9.32318C14.7578 9.78879 16.8145 12.0872 17.5019 12.7909C17.9996 13.3003 18.0501 13.7976 17.9218 14.1513C17.7936 14.505 17.5024 14.7783 16.8681 14.7802C16.6958 14.7807 16.529 14.8405 16.3956 14.9495C16.2623 15.0585 16.1705 15.2101 16.1357 15.3788C15.9487 16.2832 15.6187 16.4116 15.2822 16.4999C14.9457 16.5883 14.621 16.5117 14.621 16.5117C14.5117 16.4818 14.3969 16.4771 14.2855 16.498C14.1741 16.5188 14.0688 16.5647 13.9776 16.6321C13.8865 16.6995 13.8117 16.7866 13.7591 16.8871C13.7065 16.9875 13.6773 17.0985 13.6738 17.2118C13.6738 17.2118 13.6489 17.5991 13.4579 17.9306C13.267 18.2621 13.0682 18.5416 12.1777 18.4443C11.9887 18.4235 11.7988 18.4753 11.6465 18.5891C11.4943 18.703 11.3909 18.8704 11.3574 19.0576C11.2553 19.6284 10.9449 19.8761 10.4794 19.9618C10.014 20.0476 9.38188 19.8952 8.82904 19.3486C8.12118 18.649 5.54016 16.0168 4.37201 14.8242C3.8548 14.2959 3.14647 13.9999 2.40912 13.9999H1.74994C1.65056 13.9985 1.55188 14.0169 1.45966 14.0539C1.36743 14.091 1.28349 14.146 1.21271 14.2158C1.14194 14.2856 1.08573 14.3688 1.04737 14.4604C1.00901 14.5521 0.989258 14.6505 0.989258 14.7499C0.989258 14.8493 1.00901 14.9477 1.04737 15.0394C1.08573 15.1311 1.14194 15.2143 1.21271 15.2841C1.28349 15.3538 1.36743 15.4089 1.45966 15.4459C1.55188 15.483 1.65056 15.5013 1.74994 15.4999H2.40912C2.74777 15.4999 3.06494 15.6332 3.30072 15.874C4.46957 17.0673 7.02622 19.6756 7.77435 20.415C8.63701 21.2679 9.74938 21.6219 10.7509 21.4374C11.563 21.2879 12.2742 20.7215 12.6298 19.914C13.4851 19.8426 14.1423 19.4498 14.539 18.9814C14.5491 18.9819 14.5592 18.9822 14.5693 18.9824C14.5693 18.9824 16.8262 19.0217 18.082 18.9824C18.9555 18.9553 19.8362 18.6588 20.6132 17.9775C20.9638 17.6703 21.3854 17.499 21.8144 17.499H22.2499C22.3493 17.5004 22.448 17.482 22.5402 17.4449C22.6324 17.4079 22.7164 17.3529 22.7872 17.2831C22.8579 17.2133 22.9141 17.1301 22.9525 17.0384C22.9909 16.9468 23.0106 16.8484 23.0106 16.749C23.0106 16.6496 22.9909 16.5512 22.9525 16.4595C22.9141 16.3678 22.8579 16.2846 22.7872 16.2148C22.7164 16.1451 22.6324 16.09 22.5402 16.053C22.448 16.0159 22.3493 15.9976 22.2499 15.999H21.8144C20.9873 15.999 20.2194 16.3287 19.6249 16.8495C19.079 17.3282 18.6455 17.4644 18.0361 17.4833C18.0357 17.4833 18.0354 17.4833 18.0351 17.4833C17.6256 17.4962 17.0553 17.4935 16.5185 17.4931C16.9011 17.1777 17.2442 16.7192 17.456 16.1064C18.3225 15.9083 19.0569 15.4217 19.332 14.663C19.6715 13.7266 19.4074 12.5948 18.5742 11.7421C17.9428 11.0957 15.1396 7.97259 15.1396 7.97259C15.0413 7.86285 14.9128 7.78452 14.7702 7.74735C14.6276 7.71018 14.4772 7.71584 14.3378 7.76361C14.3378 7.76361 11.4815 8.71478 9.37689 8.71478C9.06529 8.71478 8.79422 8.67828 8.55658 8.61907C8.25728 8.54434 8.14419 8.35054 8.1181 8.09954C8.09217 7.84998 8.1743 7.62965 8.42572 7.50189L10.7734 6.52728C10.8036 6.51457 10.833 6.49989 10.8613 6.48333L13.4277 4.99993C13.9947 4.71765 14.5972 4.6964 15.1435 4.91497L18.5234 6.26654C18.9075 6.42084 19.3176 6.49883 19.7304 6.49896L22.2499 6.49993C22.3493 6.50134 22.448 6.48298 22.5402 6.44592C22.6324 6.40886 22.7164 6.35384 22.7872 6.28405C22.8579 6.21427 22.9141 6.13112 22.9525 6.03942C22.9909 5.94773 23.0106 5.84933 23.0106 5.74993C23.0106 5.65054 22.9909 5.55214 22.9525 5.46044C22.9141 5.36875 22.8579 5.2856 22.7872 5.21581C22.7164 5.14603 22.6324 5.09101 22.5402 5.05395C22.448 5.01689 22.3493 4.99853 22.2499 4.99993L19.7314 4.99896C19.5085 4.99896 19.2885 4.95751 19.0829 4.87493C19.0823 4.87461 19.0816 4.87428 19.081 4.87396L15.7011 3.52239C15.2288 3.33343 14.7249 3.25109 14.2226 3.27435Z" />
</svg>
