<svg width="24" height="24" viewBox="0 0 24 24" fill="none" xmlns="http://www.w3.org/2000/svg">
<path d="M16.2499 2.5C15.0162 2.5 13.9999 3.51625 13.9999 4.75V5H2.74994C2.65056 4.99859 2.55188 5.01696 2.45966 5.05402C2.36743 5.09108 2.28349 5.1461 2.21271 5.21588C2.14194 5.28566 2.08573 5.36882 2.04737 5.46051C2.00901 5.5522 1.98926 5.65061 1.98926 5.75C1.98926 5.84939 2.00901 5.9478 2.04737 6.03949C2.08573 6.13118 2.14194 6.21434 2.21271 6.28412C2.28349 6.3539 2.36743 6.40892 2.45966 6.44598C2.55188 6.48304 2.65056 6.50141 2.74994 6.5H13.9999V6.75C13.9999 7.98375 15.0162 9 16.2499 9C17.4837 9 18.4999 7.98375 18.4999 6.75V6.5H21.2499C21.3493 6.50141 21.448 6.48304 21.5402 6.44598C21.6324 6.40892 21.7164 6.3539 21.7872 6.28412C21.8579 6.21434 21.9141 6.13118 21.9525 6.03949C21.9909 5.9478 22.0106 5.84939 22.0106 5.75C22.0106 5.65061 21.9909 5.5522 21.9525 5.46051C21.9141 5.36882 21.8579 5.28566 21.7872 5.21588C21.7164 5.1461 21.6324 5.09108 21.5402 5.05402C21.448 5.01696 21.3493 4.99859 21.2499 5H18.4999V4.75C18.4999 3.51625 17.4837 2.5 16.2499 2.5ZM16.2499 4C16.6732 4 16.9999 4.32675 16.9999 4.75V5.62695C16.9867 5.70747 16.9867 5.7896 16.9999 5.87012V6.75C16.9999 7.17325 16.6732 7.5 16.2499 7.5C15.8267 7.5 15.4999 7.17325 15.4999 6.75V5.87305C15.5132 5.79253 15.5132 5.7104 15.4999 5.62988V4.75C15.4999 4.32675 15.8267 4 16.2499 4ZM7.74994 8.75C6.51619 8.75 5.49994 9.76625 5.49994 11V11.25H2.74994C2.65056 11.2486 2.55188 11.267 2.45966 11.304C2.36743 11.3411 2.28349 11.3961 2.21271 11.4659C2.14194 11.5357 2.08573 11.6188 2.04737 11.7105C2.00901 11.8022 1.98926 11.9006 1.98926 12C1.98926 12.0994 2.00901 12.1978 2.04737 12.2895C2.08573 12.3812 2.14194 12.4643 2.21271 12.5341C2.28349 12.6039 2.36743 12.6589 2.45966 12.696C2.55188 12.733 2.65056 12.7514 2.74994 12.75H5.49994V13C5.49994 14.2338 6.51619 15.25 7.74994 15.25C8.98369 15.25 9.99994 14.2338 9.99994 13V12.75H21.2499C21.3493 12.7514 21.448 12.733 21.5402 12.696C21.6324 12.6589 21.7164 12.6039 21.7872 12.5341C21.8579 12.4643 21.9141 12.3812 21.9525 12.2895C21.9909 12.1978 22.0106 12.0994 22.0106 12C22.0106 11.9006 21.9909 11.8022 21.9525 11.7105C21.9141 11.6188 21.8579 11.5357 21.7872 11.4659C21.7164 11.3961 21.6324 11.3411 21.5402 11.304C21.448 11.267 21.3493 11.2486 21.2499 11.25H9.99994V11C9.99994 9.76625 8.98369 8.75 7.74994 8.75ZM7.74994 10.25C8.17319 10.25 8.49994 10.5768 8.49994 11V11.877C8.48671 11.9575 8.48671 12.0396 8.49994 12.1201V13C8.49994 13.4232 8.17319 13.75 7.74994 13.75C7.32669 13.75 6.99994 13.4232 6.99994 13V12.123C7.01317 12.0425 7.01317 11.9604 6.99994 11.8799V11C6.99994 10.5768 7.32669 10.25 7.74994 10.25ZM15.2499 15C14.0162 15 12.9999 16.0162 12.9999 17.25V17.5H2.74994C2.65056 17.4986 2.55188 17.517 2.45966 17.554C2.36743 17.5911 2.28349 17.6461 2.21271 17.7159C2.14194 17.7857 2.08573 17.8688 2.04737 17.9605C2.00901 18.0522 1.98926 18.1506 1.98926 18.25C1.98926 18.3494 2.00901 18.4478 2.04737 18.5395C2.08573 18.6312 2.14194 18.7143 2.21271 18.7841C2.28349 18.8539 2.36743 18.9089 2.45966 18.946C2.55188 18.983 2.65056 19.0014 2.74994 19H12.9999V19.25C12.9999 20.4838 14.0162 21.5 15.2499 21.5C16.4837 21.5 17.4999 20.4838 17.4999 19.25V19H21.2499C21.3493 19.0014 21.448 18.983 21.5402 18.946C21.6324 18.9089 21.7164 18.8539 21.7872 18.7841C21.8579 18.7143 21.9141 18.6312 21.9525 18.5395C21.9909 18.4478 22.0106 18.3494 22.0106 18.25C22.0106 18.1506 21.9909 18.0522 21.9525 17.9605C21.9141 17.8688 21.8579 17.7857 21.7872 17.7159C21.7164 17.6461 21.6324 17.5911 21.5402 17.554C21.448 17.517 21.3493 17.4986 21.2499 17.5H17.4999V17.25C17.4999 16.0162 16.4837 15 15.2499 15ZM15.2499 16.5C15.6732 16.5 15.9999 16.8268 15.9999 17.25V18.127C15.9867 18.2075 15.9867 18.2896 15.9999 18.3701V19.25C15.9999 19.6733 15.6732 20 15.2499 20C14.8267 20 14.4999 19.6733 14.4999 19.25V18.373C14.5132 18.2925 14.5132 18.2104 14.4999 18.1299V17.25C14.4999 16.8268 14.8267 16.5 15.2499 16.5Z" fill="#399977"/>
</svg>
