<svg width="24" height="25" viewBox="0 0 24 25" fill="none" xmlns="http://www.w3.org/2000/svg">
<path d="M6.25 2.5C5.01625 2.5 4 3.51625 4 4.75V20.25C4 21.4838 5.01625 22.5 6.25 22.5H17.75C18.9838 22.5 20 21.4838 20 20.25V9.75C20 9.5511 19.9209 9.36036 19.7803 9.21973L19.7725 9.21191L13.2803 2.71973C13.1396 2.57907 12.9489 2.50004 12.75 2.5H6.25ZM6.25 4H12V8.25C12 9.48375 13.0162 10.5 14.25 10.5H18.5V20.25C18.5 20.6732 18.1732 21 17.75 21H6.25C5.82675 21 5.5 20.6732 5.5 20.25V4.75C5.5 4.32675 5.82675 4 6.25 4ZM13.5 5.06055L17.4395 9H14.25C13.8268 9 13.5 8.67325 13.5 8.25V5.06055Z" fill="#399977"/>
</svg>
