<svg width="20" height="20" viewBox="0 0 20 20" fill="none" xmlns="http://www.w3.org/2000/svg">
<path d="M6.90144 0C5.96109 0 5.11534 0.590206 4.79012 1.47168C4.79012 1.47201 4.79012 1.47233 4.79012 1.47266L4.59578 2H5.04012C3.92573 2 2.96755 2.82953 2.8116 3.93457C2.66987 4.94488 2.50008 6.29436 2.50008 7.25V10.5537C1.6088 11.1339 1.00008 12.1129 1.00008 13.25V16V16.25V19C1.00008 19.5525 1.44758 20 2.00008 20H3.00008C3.55258 20 4.00008 19.5525 4.00008 19V18.5H16.0001V19C16.0001 19.5525 16.4476 20 17.0001 20H18.0001C18.5526 20 19.0001 19.5525 19.0001 19V16.25V16V13.25C19.0001 12.1129 18.3914 11.1339 17.5001 10.5537V7.25C17.5001 6.29436 17.3303 4.94488 17.1886 3.93457C17.0333 2.82918 16.0747 2 14.96 2H15.4044L15.21 1.47266C14.8853 0.590357 14.0388 0 13.0987 0H6.90144ZM5.04012 3.5H5.11824H14.8682H14.96C15.3414 3.5 15.6504 3.76794 15.7032 4.14355C15.8286 5.03716 15.9649 6.21438 15.9903 7H4.00984C4.03529 6.21438 4.1716 5.03716 4.29695 4.14355C4.35001 3.7676 4.65951 3.5 5.04012 3.5ZM0.738358 4.48926C0.539616 4.49236 0.350233 4.57423 0.211805 4.71686C0.0733779 4.8595 -0.00277369 5.05125 7.72601e-05 5.25V7.25C-0.00132828 7.34938 0.0170326 7.44806 0.0540929 7.54028C0.0911532 7.63251 0.146174 7.71645 0.215957 7.78723C0.285741 7.858 0.368895 7.91421 0.460588 7.95257C0.552281 7.99093 0.650683 8.01068 0.750077 8.01068C0.849471 8.01068 0.947874 7.99093 1.03957 7.95257C1.13126 7.91421 1.21441 7.858 1.2842 7.78723C1.35398 7.71645 1.409 7.63251 1.44606 7.54028C1.48312 7.44806 1.50148 7.34938 1.50008 7.25V5.25C1.50152 5.14962 1.48279 5.04997 1.44501 4.95695C1.40723 4.86394 1.35116 4.77946 1.28012 4.70852C1.20909 4.63758 1.12453 4.58161 1.03147 4.54395C0.938414 4.50629 0.838739 4.48769 0.738358 4.48926ZM19.2384 4.48926C19.0396 4.49236 18.8502 4.57423 18.7118 4.71686C18.5734 4.8595 18.4972 5.05125 18.5001 5.25V7.25C18.4987 7.34938 18.517 7.44806 18.5541 7.54028C18.5912 7.63251 18.6462 7.71645 18.716 7.78723C18.7857 7.858 18.8689 7.91421 18.9606 7.95257C19.0523 7.99093 19.1507 8.01068 19.2501 8.01068C19.3495 8.01068 19.4479 7.99093 19.5396 7.95257C19.6313 7.91421 19.7144 7.858 19.7842 7.78723C19.854 7.71645 19.909 7.63251 19.9461 7.54028C19.9831 7.44806 20.0015 7.34938 20.0001 7.25V5.25C20.0015 5.14962 19.9828 5.04997 19.945 4.95695C19.9072 4.86394 19.8512 4.77946 19.7801 4.70852C19.7091 4.63758 19.6245 4.58161 19.5315 4.54395C19.4384 4.50629 19.3387 4.48769 19.2384 4.48926ZM8.50008 10.5H11.5001C12.3286 10.5 13.0001 11.1715 13.0001 12V15.5H7.00008V12C7.00008 11.1715 7.67158 10.5 8.50008 10.5ZM4.75008 13C5.16458 13 5.50008 13.3355 5.50008 13.75V14.75C5.50008 15.1645 5.16458 15.5 4.75008 15.5C4.33558 15.5 4.00008 15.1645 4.00008 14.75V13.75C4.00008 13.3355 4.33558 13 4.75008 13ZM15.2501 13C15.6646 13 16.0001 13.3355 16.0001 13.75V14.75C16.0001 15.1645 15.6646 15.5 15.2501 15.5C14.8356 15.5 14.5001 15.1645 14.5001 14.75V13.75C14.5001 13.3355 14.8356 13 15.2501 13Z" fill="#399977"/>
</svg>
