<svg width="24" height="24" viewBox="0 0 24 24" fill="none" xmlns="http://www.w3.org/2000/svg">
<path d="M8.90144 2C7.96109 2 7.11534 2.59021 6.79012 3.47168C6.79012 3.47201 6.79012 3.47233 6.79012 3.47266L6.59578 4H7.04012C5.92573 4 4.96755 4.82953 4.8116 5.93457C4.66987 6.94488 4.50008 8.29436 4.50008 9.25V12.5537C3.6088 13.1339 3.00008 14.1129 3.00008 15.25V18V18.25V21C3.00008 21.5525 3.44758 22 4.00008 22H5.00008C5.55258 22 6.00008 21.5525 6.00008 21V20.5H18.0001V21C18.0001 21.5525 18.4476 22 19.0001 22H20.0001C20.5526 22 21.0001 21.5525 21.0001 21V18.25V18V15.25C21.0001 14.1129 20.3914 13.1339 19.5001 12.5537V9.25C19.5001 8.29436 19.3303 6.94488 19.1886 5.93457C19.0333 4.82918 18.0747 4 16.96 4H17.4044L17.21 3.47266C16.8853 2.59036 16.0388 2 15.0987 2H8.90144ZM8.90144 3.5H15.0987C15.4146 3.5 15.6926 3.69353 15.8018 3.99023C15.8022 3.99056 15.8025 3.99089 15.8028 3.99121L16.1778 5.00977C16.231 5.15368 16.327 5.27783 16.4529 5.36549C16.5788 5.45315 16.7285 5.5001 16.8819 5.5H16.96C17.3414 5.5 17.6504 5.76794 17.7032 6.14355C17.8286 7.03716 17.9649 8.21438 17.9903 9H6.00984C6.03529 8.21438 6.1716 7.03716 6.29695 6.14355C6.35001 5.7676 6.65951 5.5 7.04012 5.5H7.11824C7.27177 5.50002 7.42161 5.45293 7.54752 5.36509C7.67343 5.27725 7.76936 5.15288 7.82234 5.00879L8.19734 3.99121V3.99023C8.30731 3.69314 8.58507 3.5 8.90144 3.5ZM2.73836 6.48926C2.53962 6.49236 2.35023 6.57423 2.21181 6.71686C2.07338 6.8595 1.99723 7.05125 2.00008 7.25V9.25C1.99867 9.34938 2.01703 9.44806 2.05409 9.54028C2.09115 9.63251 2.14617 9.71645 2.21596 9.78723C2.28574 9.858 2.36889 9.91421 2.46059 9.95257C2.55228 9.99093 2.65068 10.0107 2.75008 10.0107C2.84947 10.0107 2.94787 9.99093 3.03957 9.95257C3.13126 9.91421 3.21441 9.858 3.2842 9.78723C3.35398 9.71645 3.409 9.63251 3.44606 9.54028C3.48312 9.44806 3.50148 9.34938 3.50008 9.25V7.25C3.50152 7.14962 3.48279 7.04997 3.44501 6.95695C3.40723 6.86394 3.35116 6.77946 3.28012 6.70852C3.20909 6.63757 3.12453 6.58161 3.03147 6.54395C2.93841 6.50629 2.83874 6.48769 2.73836 6.48926V6.48926ZM21.2384 6.48926C21.0396 6.49236 20.8502 6.57423 20.7118 6.71686C20.5734 6.8595 20.4972 7.05125 20.5001 7.25V9.25C20.4987 9.34938 20.517 9.44806 20.5541 9.54028C20.5912 9.63251 20.6462 9.71645 20.716 9.78723C20.7857 9.858 20.8689 9.91421 20.9606 9.95257C21.0523 9.99093 21.1507 10.0107 21.2501 10.0107C21.3495 10.0107 21.4479 9.99093 21.5396 9.95257C21.6313 9.91421 21.7144 9.858 21.7842 9.78723C21.854 9.71645 21.909 9.63251 21.9461 9.54028C21.9831 9.44806 22.0015 9.34938 22.0001 9.25V7.25C22.0015 7.14962 21.9828 7.04997 21.945 6.95695C21.9072 6.86394 21.8512 6.77946 21.7801 6.70852C21.7091 6.63757 21.6245 6.58161 21.5315 6.54395C21.4384 6.50629 21.3387 6.48769 21.2384 6.48926V6.48926ZM6.00008 10.5H18.0001V12.9609C18 13.1068 18.0425 13.2495 18.1222 13.3716C18.202 13.4937 18.3157 13.5899 18.4493 13.6484C19.0663 13.9185 19.5001 14.5271 19.5001 15.25V18.25C19.5001 18.6732 19.1733 19 18.7501 19H5.25008C4.82683 19 4.50008 18.6732 4.50008 18.25V15.25C4.50008 14.5271 4.93388 13.9185 5.55086 13.6484C5.68447 13.5899 5.79813 13.4937 5.87792 13.3716C5.9577 13.2495 6.00016 13.1068 6.00008 12.9609V10.5ZM10.7501 11.5C9.51633 11.5 8.50008 12.5162 8.50008 13.75V16.75C8.5001 16.9489 8.57912 17.1397 8.71977 17.2803C8.86042 17.421 9.05117 17.5 9.25008 17.5H14.7501C14.949 17.5 15.1397 17.421 15.2804 17.2803C15.421 17.1397 15.5001 16.9489 15.5001 16.75V13.75C15.5001 12.5162 14.4838 11.5 13.2501 11.5H10.7501ZM10.7501 13H13.2501C13.6733 13 14.0001 13.3268 14.0001 13.75V16H10.0001V13.75C10.0001 13.3268 10.3268 13 10.7501 13ZM6.73836 14.9893C6.53962 14.9924 6.35023 15.0742 6.21181 15.2169C6.07338 15.3595 5.99723 15.5513 6.00008 15.75V16.75C5.99867 16.8494 6.01703 16.9481 6.05409 17.0403C6.09115 17.1325 6.14617 17.2164 6.21596 17.2872C6.28574 17.358 6.3689 17.4142 6.46059 17.4526C6.55228 17.4909 6.65068 17.5107 6.75008 17.5107C6.84947 17.5107 6.94787 17.4909 7.03957 17.4526C7.13126 17.4142 7.21441 17.358 7.2842 17.2872C7.35398 17.2164 7.409 17.1325 7.44606 17.0403C7.48312 16.9481 7.50148 16.8494 7.50008 16.75V15.75C7.50152 15.6496 7.48279 15.55 7.44501 15.457C7.40723 15.3639 7.35116 15.2795 7.28012 15.2085C7.20909 15.1376 7.12453 15.0816 7.03147 15.044C6.93841 15.0063 6.83874 14.9877 6.73836 14.9893V14.9893ZM17.2384 14.9893C17.0396 14.9924 16.8502 15.0742 16.7118 15.2169C16.5734 15.3595 16.4972 15.5513 16.5001 15.75V16.75C16.4987 16.8494 16.517 16.9481 16.5541 17.0403C16.5912 17.1325 16.6462 17.2164 16.716 17.2872C16.7857 17.358 16.8689 17.4142 16.9606 17.4526C17.0523 17.4909 17.1507 17.5107 17.2501 17.5107C17.3495 17.5107 17.4479 17.4909 17.5396 17.4526C17.6313 17.4142 17.7144 17.358 17.7842 17.2872C17.854 17.2164 17.909 17.1325 17.9461 17.0403C17.9831 16.9481 18.0015 16.8494 18.0001 16.75V15.75C18.0015 15.6496 17.9828 15.55 17.945 15.457C17.9072 15.3639 17.8512 15.2795 17.7801 15.2085C17.7091 15.1376 17.6245 15.0816 17.5315 15.044C17.4384 15.0063 17.3387 14.9877 17.2384 14.9893V14.9893Z" fill="#C1C6C7"/>
</svg>
