<svg width="24" height="25" viewBox="0 0 24 25" fill="none" xmlns="http://www.w3.org/2000/svg">
<path d="M3.49862 11.5001C3.36611 11.4982 3.23454 11.5227 3.11157 11.5721C2.98861 11.6215 2.87668 11.6949 2.78232 11.7879C2.68795 11.881 2.61301 11.9919 2.56186 12.1141C2.51071 12.2364 2.48438 12.3676 2.48438 12.5001C2.48438 12.6326 2.51071 12.7638 2.56186 12.8861C2.61301 13.0083 2.68795 13.1192 2.78232 13.2123C2.87668 13.3053 2.98861 13.3787 3.11157 13.4281C3.23454 13.4775 3.36611 13.502 3.49862 13.5001H20.4986C20.6311 13.502 20.7627 13.4775 20.8857 13.4281C21.0086 13.3787 21.1206 13.3053 21.2149 13.2123C21.3093 13.1192 21.3842 13.0083 21.4354 12.8861C21.4865 12.7638 21.5129 12.6326 21.5129 12.5001C21.5129 12.3676 21.4865 12.2364 21.4354 12.1141C21.3842 11.9919 21.3093 11.881 21.2149 11.7879C21.1206 11.6949 21.0086 11.6215 20.8857 11.5721C20.7627 11.5227 20.6311 11.4982 20.4986 11.5001H3.49862Z" fill="#399977"/>
</svg>
