<svg width="24" height="24" viewBox="0 0 24 24" fill="none" xmlns="http://www.w3.org/2000/svg">
<path d="M3.23828 2.4893C3.20194 2.49025 3.16571 2.49384 3.12988 2.50004H2.25C2.15062 2.49864 2.05194 2.517 1.95972 2.55406C1.86749 2.59112 1.78355 2.64614 1.71277 2.71592C1.642 2.78571 1.58579 2.86886 1.54743 2.96055C1.50907 3.05225 1.48932 3.15065 1.48932 3.25004C1.48932 3.34944 1.50907 3.44784 1.54743 3.53953C1.58579 3.63123 1.642 3.71438 1.71277 3.78416C1.78355 3.85395 1.86749 3.90897 1.95972 3.94603C2.05194 3.98309 2.15062 4.00145 2.25 4.00004H2.5V13.5508C1.66325 13.6786 1 14.3808 1 15.25V20.75C1.00002 20.9489 1.07904 21.1397 1.21969 21.2804C1.36034 21.421 1.55109 21.5 1.75 21.5H15.75C15.9489 21.5 16.1397 21.421 16.2803 21.2804C16.421 21.1397 16.5 20.9489 16.5 20.75V15.25C16.5 14.3808 15.8368 13.6786 15 13.5508V4.00004H15.25C15.3494 4.00145 15.4481 3.98309 15.5403 3.94603C15.6325 3.90897 15.7164 3.85395 15.7872 3.78416C15.858 3.71438 15.9142 3.63123 15.9526 3.53953C15.9909 3.44784 16.0107 3.34944 16.0107 3.25004C16.0107 3.15065 15.9909 3.05225 15.9526 2.96055C15.9142 2.86886 15.858 2.78571 15.7872 2.71592C15.7164 2.64614 15.6325 2.59112 15.5403 2.55406C15.4481 2.517 15.3494 2.49864 15.25 2.50004H14.373C14.2925 2.48682 14.2104 2.48682 14.1299 2.50004H3.37305C3.32854 2.49241 3.28343 2.48882 3.23828 2.4893ZM4 4.00004H13.5V14.25C13.5 14.4489 13.579 14.6397 13.7197 14.7804C13.8603 14.921 14.0511 15 14.25 15H14.75C14.8975 15 15 15.1025 15 15.25V20H10V17C10 16.724 9.776 16.5 9.5 16.5H8C7.724 16.5 7.5 16.724 7.5 17V20H2.5V15.25C2.5 15.1025 2.60248 15 2.75 15H3.25C3.44891 15 3.63966 14.921 3.78031 14.7804C3.92096 14.6397 3.99998 14.4489 4 14.25V4.00004ZM6.5 6.00004C6.224 6.00004 6 6.22404 6 6.50004V7.50004C6 7.77604 6.224 8.00004 6.5 8.00004H7.5C7.776 8.00004 8 7.77604 8 7.50004V6.50004C8 6.22404 7.776 6.00004 7.5 6.00004H6.5ZM10 6.00004C9.724 6.00004 9.5 6.22404 9.5 6.50004V7.50004C9.5 7.77604 9.724 8.00004 10 8.00004H11C11.276 8.00004 11.5 7.77604 11.5 7.50004V6.50004C11.5 6.22404 11.276 6.00004 11 6.00004H10ZM16 6.00004V7.50004H20.25C20.94 7.50004 21.5 8.06004 21.5 8.75004V20H17.5V21C17.5 21.1765 17.4642 21.343 17.4082 21.5H22.25C22.665 21.5 23 21.165 23 20.75V8.75004C23 7.23504 21.765 6.00004 20.25 6.00004H16ZM6.5 9.50004C6.224 9.50004 6 9.72404 6 10V11C6 11.276 6.224 11.5 6.5 11.5H7.5C7.776 11.5 8 11.276 8 11V10C8 9.72404 7.776 9.50004 7.5 9.50004H6.5ZM10 9.50004C9.724 9.50004 9.5 9.72404 9.5 10V11C9.5 11.276 9.724 11.5 10 11.5H11C11.276 11.5 11.5 11.276 11.5 11V10C11.5 9.72404 11.276 9.50004 11 9.50004H10ZM18.5 9.50004C18.224 9.50004 18 9.72404 18 10V11C18 11.276 18.224 11.5 18.5 11.5H19.5C19.776 11.5 20 11.276 20 11V10C20 9.72404 19.776 9.50004 19.5 9.50004H18.5ZM6.5 13C6.224 13 6 13.224 6 13.5V14.5C6 14.776 6.224 15 6.5 15H7.5C7.776 15 8 14.776 8 14.5V13.5C8 13.224 7.776 13 7.5 13H6.5ZM10 13C9.724 13 9.5 13.224 9.5 13.5V14.5C9.5 14.776 9.724 15 10 15H11C11.276 15 11.5 14.776 11.5 14.5V13.5C11.5 13.224 11.276 13 11 13H10ZM18.5 13C18.224 13 18 13.224 18 13.5V14.5C18 14.776 18.224 15 18.5 15H19.5C19.776 15 20 14.776 20 14.5V13.5C20 13.224 19.776 13 19.5 13H18.5ZM4.5 16.5C4.224 16.5 4 16.724 4 17V18C4 18.276 4.224 18.5 4.5 18.5H5.5C5.776 18.5 6 18.276 6 18V17C6 16.724 5.776 16.5 5.5 16.5H4.5ZM12 16.5C11.724 16.5 11.5 16.724 11.5 17V18C11.5 18.276 11.724 18.5 12 18.5H13C13.276 18.5 13.5 18.276 13.5 18V17C13.5 16.724 13.276 16.5 13 16.5H12ZM18.5 16.5C18.224 16.5 18 16.724 18 17V18C18 18.276 18.224 18.5 18.5 18.5H19.5C19.776 18.5 20 18.276 20 18V17C20 16.724 19.776 16.5 19.5 16.5H18.5Z" />
</svg>
