<svg width="20" height="21" viewBox="0 0 20 21" fill="none" xmlns="http://www.w3.org/2000/svg">
<path d="M9.98397 0.986435C9.71892 0.99032 9.46626 1.09927 9.2815 1.28934C9.09674 1.47941 8.99499 1.73506 8.99862 2.00011V9.50011H1.49862C1.36611 9.49823 1.23454 9.52271 1.11157 9.57213C0.988606 9.62154 0.876685 9.6949 0.782315 9.78795C0.687946 9.88099 0.613009 9.99186 0.561862 10.1141C0.510714 10.2364 0.484375 10.3676 0.484375 10.5001C0.484375 10.6326 0.510714 10.7638 0.561862 10.8861C0.613009 11.0084 0.687946 11.1192 0.782315 11.2123C0.876685 11.3053 0.988606 11.3787 1.11157 11.4281C1.23454 11.4775 1.36611 11.502 1.49862 11.5001H8.99862V19.0001C8.99674 19.1326 9.02122 19.2642 9.07064 19.3871C9.12005 19.5101 9.19341 19.622 9.28646 19.7164C9.3795 19.8108 9.49037 19.8857 9.61263 19.9369C9.73489 19.988 9.86609 20.0143 9.99862 20.0143C10.1311 20.0143 10.2623 19.988 10.3846 19.9369C10.5069 19.8857 10.6177 19.8108 10.7108 19.7164C10.8038 19.622 10.8772 19.5101 10.9266 19.3871C10.976 19.2642 11.0005 19.1326 10.9986 19.0001V11.5001H18.4986C18.6311 11.502 18.7627 11.4775 18.8857 11.4281C19.0086 11.3787 19.1206 11.3053 19.2149 11.2123C19.3093 11.1192 19.3842 11.0084 19.4354 10.8861C19.4865 10.7638 19.5129 10.6326 19.5129 10.5001C19.5129 10.3676 19.4865 10.2364 19.4354 10.1141C19.3842 9.99186 19.3093 9.88099 19.2149 9.78795C19.1206 9.6949 19.0086 9.62154 18.8857 9.57213C18.7627 9.52271 18.6311 9.49823 18.4986 9.50011H10.9986V2.00011C11.0004 1.8664 10.9754 1.73369 10.9251 1.60981C10.8747 1.48594 10.8 1.37342 10.7054 1.27891C10.6108 1.1844 10.4983 1.10983 10.3743 1.05959C10.2504 1.00935 10.1177 0.984478 9.98397 0.986435Z" fill="#399977"/>
</svg>
