<svg width="24" height="24" viewBox="0 0 24 24" fill="none" xmlns="http://www.w3.org/2000/svg">
<path d="M16.9996 2.00098C16.5729 2.00098 16.1465 2.05273 15.7135 2.15723C15.4025 2.23173 15.1722 2.49645 15.1412 2.81445L15.1207 3.02539C15.0972 3.26589 14.9591 3.48154 14.7496 3.60254C14.5401 3.72304 14.2841 3.73674 14.0651 3.63574L13.8707 3.54785C13.5812 3.41635 13.2362 3.48187 13.0162 3.71387C12.4172 4.34387 11.9702 5.11441 11.7262 5.94141C11.6352 6.24791 11.7499 6.57767 12.0104 6.76367L12.1852 6.88867C12.3817 7.03017 12.4996 7.2585 12.4996 7.5C12.4996 7.7415 12.3822 7.96935 12.1862 8.11035L12.0104 8.23633C11.9944 8.24783 11.9844 8.26387 11.9694 8.27637L12.0055 8.51367C12.029 8.66667 12.1147 8.79359 12.2487 8.87109C12.3262 8.91559 12.4127 8.93945 12.4987 8.93945C12.5597 8.93945 12.6208 8.92732 12.6813 8.90332L13.5416 8.56738C13.7451 8.48838 13.9584 8.44824 14.1764 8.44824C14.6984 8.44824 15.1896 8.6786 15.5221 9.0791C16.1376 9.8191 16.6202 10.6526 16.9557 11.5576C17.1342 12.0396 17.0851 12.5592 16.8531 12.9912C16.9021 12.9927 16.9516 13 16.9996 13C17.4206 13 17.8537 12.9473 18.2867 12.8428C18.5972 12.7683 18.827 12.5045 18.858 12.1865L18.8785 11.9746C18.902 11.7341 19.0401 11.5185 19.2496 11.3975C19.4596 11.2775 19.7157 11.2643 19.9342 11.3643L20.1285 11.4531C20.418 11.5856 20.7635 11.5196 20.983 11.2871C21.582 10.6571 22.0291 9.88657 22.2731 9.05957C22.3641 8.75207 22.2494 8.42183 21.9889 8.23633L21.8141 8.11133C21.6176 7.96983 21.4996 7.7415 21.4996 7.5C21.4996 7.2585 21.6171 7.03065 21.8131 6.88965L21.9889 6.76367C22.2494 6.57817 22.3641 6.24841 22.2731 5.94141C22.0291 5.11441 21.582 4.34387 20.983 3.71387C20.763 3.48137 20.4175 3.41535 20.1285 3.54785L19.9352 3.63574C19.7142 3.73574 19.4586 3.72204 19.2496 3.60254C19.0401 3.48154 18.902 3.26637 18.8785 3.02637L18.858 2.81445C18.827 2.49595 18.5968 2.23173 18.2858 2.15723C17.8528 2.05273 17.4264 2.00098 16.9996 2.00098ZM16.9996 6C17.8281 6 18.4996 6.6715 18.4996 7.5C18.4996 8.3285 17.8281 9 16.9996 9C16.1711 9 15.4996 8.3285 15.4996 7.5C15.4996 6.6715 16.1711 6 16.9996 6ZM8.95081 6.99805C8.54699 6.9993 8.15951 7.04046 7.73401 7.11621C7.41751 7.17171 7.17118 7.42321 7.12268 7.74121L6.98206 8.66406C6.91356 9.11656 6.64663 9.5078 6.24963 9.7373C5.85363 9.9663 5.38124 10.0034 4.95374 9.83594L4.09241 9.49902C3.79191 9.38252 3.4493 9.46927 3.2428 9.71777C2.7008 10.3698 2.2756 11.1058 1.9801 11.9062C1.8681 12.2093 1.96295 12.55 2.21545 12.752L2.93713 13.3291C3.29463 13.6146 3.49963 14.0415 3.49963 14.5C3.49963 14.9585 3.29463 15.3854 2.93713 15.6709L2.21545 16.248C1.96295 16.45 1.8686 16.7907 1.9801 17.0938C2.2761 17.8942 2.7008 18.6302 3.2428 19.2822C3.4493 19.5307 3.79291 19.619 4.09241 19.501L4.95374 19.1641C5.38074 18.9971 5.85363 19.0342 6.24963 19.2627C6.64663 19.4922 6.91403 19.8829 6.98303 20.3359L7.12268 21.2588C7.17118 21.5768 7.41751 21.8283 7.73401 21.8838C8.17251 21.9623 8.58613 22 8.99963 22C9.41313 22 9.82676 21.9628 10.2653 21.8848C10.5818 21.8293 10.8281 21.5768 10.8766 21.2588L11.0162 20.3359H11.0172C11.0857 19.8834 11.3526 19.4922 11.7496 19.2627C12.1466 19.0342 12.619 18.998 13.0455 19.165L13.9069 19.502C14.2074 19.619 14.55 19.5307 14.7565 19.2822C15.2985 18.6302 15.7237 17.8952 16.0192 17.0947C16.1312 16.7912 16.0363 16.45 15.7838 16.248L15.0621 15.6709C14.7046 15.3854 14.4996 14.9585 14.4996 14.5C14.4996 14.0415 14.7051 13.6141 15.0631 13.3281L15.7838 12.752C16.0363 12.5505 16.1302 12.2083 16.0182 11.9053C15.7222 11.1073 15.297 10.3722 14.7535 9.71875C14.547 9.47025 14.2039 9.38252 13.9039 9.49902L13.0455 9.83496C12.619 10.0025 12.1466 9.9663 11.7496 9.7373C11.3526 9.5078 11.0852 9.11706 11.0162 8.66406L10.8766 7.74512C10.8281 7.42562 10.5803 7.17364 10.2623 7.11914C9.77458 7.03539 9.35462 6.9968 8.95081 6.99805ZM8.99963 12C10.3801 12 11.4996 13.1195 11.4996 14.5C11.4996 15.8805 10.3801 17 8.99963 17C7.61913 17 6.49963 15.8805 6.49963 14.5C6.49963 13.1195 7.61913 12 8.99963 12Z" />
</svg>
