<svg width="24" height="24" viewBox="0 0 24 24" fill="none" xmlns="http://www.w3.org/2000/svg">
<path d="M19.5873 5.00781C20.4308 5.00781 20.6528 5.64581 20.4033 7.14381C20.1178 8.85681 19.2953 14.5283 18.6393 18.0588C18.3883 19.4098 17.9358 19.9923 17.2773 19.9923C16.9153 19.9923 16.4913 19.8163 16.0043 19.4948C15.3443 19.0588 12.0123 16.8553 11.2888 16.3378C10.6288 15.8663 9.7183 15.2988 10.8603 14.1818C11.2668 13.7838 13.9303 11.2403 16.0053 9.26081C16.2268 9.04931 16.0413 8.72681 15.7953 8.72681C15.7393 8.72681 15.6798 8.74381 15.6218 8.78231C12.8248 10.6373 8.9463 13.2118 8.4528 13.5473C7.9593 13.8823 7.4783 14.0973 6.8373 14.0973C6.5098 14.0973 6.1403 14.0413 5.7058 13.9163C4.7343 13.6373 3.7858 13.3048 3.4163 13.1778C1.9938 12.6898 2.3313 12.0573 3.7128 11.4493C9.2518 9.01281 16.4193 6.04181 17.4088 5.63081C18.3728 5.23031 19.0888 5.00781 19.5873 5.00781ZM19.5873 3.50781C18.9033 3.50781 18.0798 3.72831 16.8343 4.24481L16.6848 4.30681C11.3673 6.51481 6.5458 8.56381 3.1088 10.0758C2.5718 10.3123 0.938301 11.0308 1.0018 12.5338C1.0288 13.1823 1.3858 14.0663 2.9298 14.5958L3.0438 14.6348C3.4748 14.7833 4.3723 15.0928 5.2923 15.3573C5.8523 15.5183 6.3583 15.5963 6.8378 15.5963C7.6698 15.5963 8.3143 15.3588 8.8183 15.0823C8.8158 15.1663 8.8178 15.2508 8.8243 15.3358C8.9153 16.4918 9.8093 17.1258 10.3433 17.5048L10.4178 17.5578C11.2063 18.1218 14.7748 20.4793 15.1788 20.7458C15.9393 21.2478 16.6258 21.4913 17.2783 21.4913C18.3043 21.4913 19.6298 20.9433 20.1148 18.3323C20.5753 15.8558 21.1073 12.3963 21.4958 9.87031C21.6613 8.79231 21.7973 7.90831 21.8838 7.38981C22.0583 6.34281 22.1383 5.15681 21.4098 4.29731C21.1038 3.93731 20.5398 3.50781 19.5873 3.50781Z" fill="#C1C6C7"/>
</svg>
