<svg width="24" height="24" viewBox="0 0 24 24" fill="none" xmlns="http://www.w3.org/2000/svg">
<path d="M12 2C6.48603 2 2 6.48604 2 12C2 17.514 6.48603 22 12 22C17.514 22 22 17.514 22 12C22 6.48604 17.514 2 12 2ZM12 3.5C16.7033 3.5 20.5 7.2967 20.5 12C20.5 16.7033 16.7033 20.5 12 20.5C7.29669 20.5 3.5 16.7033 3.5 12C3.5 7.2967 7.29669 3.5 12 3.5ZM12 6C11.0625 6 10.2644 6.37857 9.75195 6.95508C9.2395 7.53159 9 8.27083 9 9C9 9.72917 9.2395 10.4684 9.75195 11.0449C10.2644 11.6214 11.0625 12 12 12C12.9375 12 13.7356 11.6214 14.248 11.0449C14.7605 10.4684 15 9.72917 15 9C15 8.27083 14.7605 7.53159 14.248 6.95508C13.7356 6.37857 12.9375 6 12 6ZM12 7.5C12.5625 7.5 12.8894 7.68393 13.127 7.95117C13.3645 8.21841 13.5 8.60417 13.5 9C13.5 9.39583 13.3645 9.78159 13.127 10.0488C12.8894 10.3161 12.5625 10.5 12 10.5C11.4375 10.5 11.1106 10.3161 10.873 10.0488C10.6355 9.78159 10.5 9.39583 10.5 9C10.5 8.60417 10.6355 8.21841 10.873 7.95117C11.1106 7.68393 11.4375 7.5 12 7.5ZM8.62988 13C7.73913 13 7 13.7385 7 14.6299V15.1709C7 16.1649 7.62826 17.0287 8.52344 17.5996C9.41862 18.1705 10.6146 18.501 12 18.501C13.3854 18.501 14.5814 18.1705 15.4766 17.5996C16.3717 17.0287 17 16.1649 17 15.1709V14.6299C17 13.7391 16.2615 13 15.3701 13H8.62988ZM8.62988 14.5H15.3701C15.4508 14.5 15.5 14.5496 15.5 14.6299V15.1709C15.5 15.5269 15.2679 15.9536 14.6699 16.335C14.072 16.7163 13.1421 17.001 12 17.001C10.8579 17.001 9.92802 16.7163 9.33008 16.335C8.73213 15.9536 8.5 15.5269 8.5 15.1709V14.6299C8.5 14.5492 8.54963 14.5 8.62988 14.5Z" fill="#399977"/>
</svg>
