<svg width="24" height="24" viewBox="0 0 24 24" fill="none" xmlns="http://www.w3.org/2000/svg">
<path d="M2.71772 5.47852C1.597 5.47852 0.74361 6.58054 1.05269 7.66406C1.85742 10.4884 3.05036 13.2542 4.83101 15.4287C6.61165 17.6033 9.01991 19.1795 12.0996 19.4922C13.1247 19.5962 14.0087 18.7606 14.0087 17.7471V15.7236C14.0087 15.5974 14.095 15.5077 14.1933 15.5049C14.2115 15.5044 14.2261 15.5039 14.2353 15.5039C14.589 15.5039 15.3157 15.947 15.9541 16.6357C16.5924 17.3245 17.157 18.1771 17.4287 18.6494V18.6504C17.736 19.1838 18.3088 19.5059 18.9179 19.5059H21.3544C22.5679 19.5068 23.3799 18.136 22.7861 17.0742C21.8537 15.4066 19.9936 13.7572 19.0634 12.9346C20.7677 11.063 21.8977 9.02339 22.3984 7.6709C22.7762 6.64904 21.9971 5.49902 20.8984 5.49902H19.1591C18.4031 5.49902 17.6982 5.86739 17.4101 6.45703C16.0565 9.23084 14.8499 10.2496 14 10.9834V7.21973C14 6.28076 13.2208 5.50664 12.2851 5.50488L9.23921 5.5C8.26926 5.4988 7.66783 6.69675 8.24897 7.47363L8.83686 8.26074L8.83784 8.2627C8.9386 8.39594 8.99214 8.5556 8.99214 8.71973V8.7207L9.00386 11.8594C7.79238 10.5817 6.4762 7.87528 6.07905 6.66797V6.66699C5.84711 5.96175 5.17983 5.48556 4.44331 5.4834H4.44233L2.7187 5.47852H2.71772ZM2.71772 6.97852L4.4394 6.9834C4.54523 6.98365 4.62306 7.04075 4.65425 7.13574C5.14739 8.63536 6.44308 11.4926 8.08589 13.0928C8.51249 13.5084 9.13863 13.5926 9.62397 13.3955C10.1093 13.1984 10.5048 12.6875 10.5048 12.0879V12.0869L10.4921 8.71973C10.4921 8.22934 10.3316 7.75242 10.0371 7.36133L10.0361 7.35938L9.76753 7.00098L12.2822 7.00488C12.4135 7.00514 12.5 7.09069 12.5 7.21973V11.0215C12.5 12.2389 14.0331 12.9383 14.955 12.1426H14.956C15.801 11.4126 17.2964 10.1099 18.7578 7.11523C18.7917 7.04587 18.7622 6.99902 19.1591 6.99902H20.8984C20.9996 6.99902 21.0293 7.04725 20.9912 7.15039C20.5657 8.29951 19.4804 10.3034 17.871 12.0371C17.375 12.5715 17.3952 13.4546 17.956 13.9512C18.8351 14.7287 20.7537 16.5128 21.4765 17.8057C21.5427 17.9239 21.4929 18.006 21.3554 18.0059H18.9179C18.834 18.0059 18.7651 17.9649 18.7285 17.9014C18.4036 17.3366 17.8079 16.429 17.0546 15.6162C16.3014 14.8035 15.4046 14.0039 14.2353 14.0039C14.2022 14.0039 14.175 14.0044 14.1542 14.0049H14.1523H14.1513C13.2207 14.0311 12.5087 14.8209 12.5087 15.7236V17.7471C12.5087 17.9026 12.3888 18.014 12.2509 18C9.58908 17.7297 7.58277 16.4222 5.99116 14.4785C4.39955 12.5348 3.26283 9.94756 2.49507 7.25293C2.45214 7.10245 2.54445 6.97852 2.71772 6.97852Z" fill="#C1C6C7"/>
</svg>
