<svg width="24" height="24" viewBox="0 0 24 24" fill="none" xmlns="http://www.w3.org/2000/svg">
<path d="M4.75 4C3.24011 4 2 5.24011 2 6.75V9.75V12.75V17.25C2 18.7599 3.24011 20 4.75 20H19.25C20.7599 20 22 18.7599 22 17.25V12.75V9.75V6.75C22 5.24011 20.7599 4 19.25 4H4.75ZM4.75 5.5H19.25C19.9491 5.5 20.5 6.05089 20.5 6.75V7.30664C20.1239 7.11235 19.6996 7 19.25 7H4.75C4.3004 7 3.87614 7.11235 3.5 7.30664V6.75C3.5 6.05089 4.05089 5.5 4.75 5.5ZM4.75 8.5H19.25C19.9491 8.5 20.5 9.05089 20.5 9.75V10.3066C20.1239 10.1123 19.6996 10 19.25 10H15.0908C14.312 10 13.6569 10.5315 13.4229 11.2285C13.2235 11.8205 12.668 12.25 12 12.25C11.332 12.25 10.777 11.8202 10.5781 11.2285C10.3437 10.5327 9.68894 10 8.91016 10H4.75C4.3004 10 3.87614 10.1123 3.5 10.3066V9.75C3.5 9.05089 4.05089 8.5 4.75 8.5ZM4.75 11.5H8.91016C9.01738 11.5 9.10769 11.5629 9.15625 11.707C9.55662 12.8969 10.6853 13.75 12 13.75C13.315 13.75 14.444 12.8971 14.8447 11.707C14.8447 11.7067 14.8447 11.7064 14.8447 11.7061C14.8927 11.5631 14.9836 11.5 15.0908 11.5H19.25C19.9491 11.5 20.5 12.0509 20.5 12.75V17.25C20.5 17.9491 19.9491 18.5 19.25 18.5H4.75C4.05089 18.5 3.5 17.9491 3.5 17.25V12.75C3.5 12.0509 4.05089 11.5 4.75 11.5Z" />
</svg>
