<svg width="24" height="24" viewBox="0 0 24 24" fill="none" xmlns="http://www.w3.org/2000/svg">
<path d="M11.9287 4.25C8.75236 4.25 5.80117 4.47631 4.11719 4.82812C4.1136 4.82907 4.11002 4.83005 4.10645 4.83105C2.83774 5.11535 1.64309 6.02412 1.3916 7.44727C1.39127 7.44922 1.39094 7.45117 1.39062 7.45312C1.19742 8.60013 1 10.0953 1 12.25C1 14.4006 1.1981 15.8562 1.44238 17.0635C1.70004 18.4446 2.86711 19.3809 4.15527 19.6689C4.16144 19.6707 4.16762 19.6723 4.17383 19.6738C5.93135 20.0201 8.79923 20.25 11.9756 20.25C15.1519 20.25 18.0213 20.0201 19.7793 19.6738C19.7855 19.6723 19.7917 19.6707 19.7979 19.6689C21.0666 19.3847 22.2612 18.4759 22.5127 17.0527C22.5134 17.0492 22.514 17.0456 22.5146 17.042C22.7049 15.8716 22.9514 14.3778 23 12.2197C23.0001 12.2142 23.0001 12.2087 23 12.2031C23 10.0438 22.7529 8.53934 22.5117 7.34766C22.2561 5.96354 21.0877 5.02474 19.7979 4.73633C19.7781 4.73195 19.7583 4.72836 19.7383 4.72559C18.0232 4.48448 15.1056 4.25 11.9287 4.25ZM11.9287 5.75C15.0089 5.75 17.8631 5.98068 19.4834 6.20605C20.2797 6.38912 20.9125 6.94532 21.0371 7.62012C21.0377 7.62435 21.0384 7.62859 21.0391 7.63281C21.2717 8.78104 21.4981 10.1463 21.499 12.1924C21.4523 14.245 21.2255 15.6223 21.0352 16.793C20.9052 17.5222 20.296 18.0172 19.4766 18.2031C17.9026 18.5119 15.071 18.75 11.9756 18.75C8.87962 18.75 6.04881 18.511 4.47559 18.2021C3.67626 18.0206 3.04097 17.4627 2.91602 16.7861C2.91508 16.7819 2.9141 16.7777 2.91309 16.7734C2.68302 15.6381 2.5 14.3143 2.5 12.25C2.5 10.1893 2.68271 8.811 2.86816 7.70898C2.99738 6.97779 3.60822 6.4816 4.42969 6.2959C5.88713 5.99211 8.82998 5.75 11.9287 5.75ZM10.2305 8.01172C9.3342 8.0408 8.5 8.76267 8.5 9.74316V14.2578C8.5 15.5651 9.98323 16.4129 11.1191 15.7715C11.1191 15.7712 11.1191 15.7708 11.1191 15.7705L15.1143 13.5137C16.2584 12.8673 16.2584 11.1327 15.1143 10.4863L11.1191 8.22949C10.8352 8.06913 10.5292 8.00202 10.2305 8.01172ZM10.2363 9.49023C10.2814 9.49268 10.3306 9.50677 10.3809 9.53516L14.376 11.793C14.5789 11.9076 14.5789 12.0934 14.376 12.208L10.3809 14.4648C10.1798 14.5784 10 14.4725 10 14.2578V9.74316C10 9.63582 10.0451 9.55582 10.1152 9.5166C10.1503 9.49699 10.1913 9.48779 10.2363 9.49023Z" fill="#C1C6C7"/>
</svg>
