<svg width="32" height="32" viewBox="0 0 32 32" fill="none" xmlns="http://www.w3.org/2000/svg">
<path d="M9.26953 4C8.38032 4 7.53479 4.39549 6.96484 5.07943L4.69531 7.80339H4.69401C4.246 8.34219 4 9.02234 4 9.72396V24.3333C4 26.3465 5.65348 28 7.66667 28H24.3333C26.3465 28 28 26.3465 28 24.3333V9.72396C28 9.02234 27.7538 8.3425 27.3047 7.80339L25.0352 5.07943C24.4652 4.39549 23.6197 4 22.7305 4H9.26953ZM9.26953 6H22.7305C23.0279 6 23.3086 6.13132 23.4987 6.35938L25.4206 8.66667H6.57812L8.5013 6.35938C8.69135 6.13132 8.97208 6 9.26953 6ZM6 10.6667H26V24.3333C26 25.2655 25.2655 26 24.3333 26H7.66667C6.73452 26 6 25.2655 6 24.3333V10.6667ZM13 13.3333C12.8675 13.3315 12.7359 13.3559 12.613 13.4054C12.49 13.4548 12.3781 13.5281 12.2837 13.6212C12.1893 13.7142 12.1144 13.8251 12.0632 13.9473C12.0121 14.0696 11.9858 14.2008 11.9858 14.3333C11.9858 14.4659 12.0121 14.5971 12.0632 14.7193C12.1144 14.8416 12.1893 14.9524 12.2837 15.0455C12.3781 15.1385 12.49 15.2119 12.613 15.2613C12.7359 15.3107 12.8675 15.3352 13 15.3333H19C19.1325 15.3352 19.2641 15.3107 19.387 15.2613C19.51 15.2119 19.6219 15.1385 19.7163 15.0455C19.8107 14.9524 19.8856 14.8416 19.9368 14.7193C19.9879 14.5971 20.0142 14.4659 20.0142 14.3333C20.0142 14.2008 19.9879 14.0696 19.9368 13.9473C19.8856 13.8251 19.8107 13.7142 19.7163 13.6212C19.6219 13.5281 19.51 13.4548 19.387 13.4054C19.2641 13.3559 19.1325 13.3315 19 13.3333H13Z" fill="#C1C6C7"/>
</svg>
