<svg width="40" height="40" viewBox="0 0 40 40" fill="none" xmlns="http://www.w3.org/2000/svg">
<rect width="40" height="40" rx="20" fill="#399977"/>
<path d="M12 18.7471C12 18.8964 12.0446 19.0422 12.128 19.166C12.2114 19.2898 12.3298 19.3859 12.4681 19.442C12.6065 19.4981 12.7584 19.5117 12.9044 19.481C13.0505 19.4503 13.1841 19.3767 13.2881 19.2696L19.0078 13.5499L19.0078 28.2393C19.0064 28.3387 19.0248 28.4374 19.0618 28.5296C19.0989 28.6218 19.1539 28.7058 19.2237 28.7765C19.2935 28.8473 19.3766 28.9035 19.4683 28.9419C19.56 28.9802 19.6584 29 19.7578 29C19.8572 29 19.9556 28.9802 20.0473 28.9419C20.139 28.9035 20.2221 28.8473 20.2919 28.7765C20.3617 28.7058 20.4167 28.6218 20.4538 28.5296C20.4909 28.4374 20.5092 28.3387 20.5078 28.2393L20.5078 13.5499L26.2275 19.2696C26.2966 19.3416 26.3794 19.399 26.471 19.4386C26.5626 19.4782 26.6612 19.4991 26.761 19.5001C26.8607 19.5012 26.9597 19.4822 27.0521 19.4445C27.1445 19.4068 27.2284 19.351 27.299 19.2805C27.3695 19.2099 27.4253 19.126 27.463 19.0336C27.5007 18.9412 27.5196 18.8423 27.5186 18.7425C27.5176 18.6427 27.4967 18.5441 27.4571 18.4525C27.4175 18.3609 27.3601 18.2782 27.2881 18.209L20.2881 11.209C20.1474 11.0684 19.9567 10.9895 19.7578 10.9895C19.5589 10.9895 19.3682 11.0684 19.2275 11.209L12.2275 18.209C12.1555 18.279 12.0983 18.3626 12.0592 18.455C12.0201 18.5475 12 18.6468 12 18.7471Z" fill="white"/>
</svg>
