<svg width="33" height="32" viewBox="0 0 33 32" fill="none" xmlns="http://www.w3.org/2000/svg">
<path d="M16.5267 2.00032C16.2729 1.99389 16.0262 2.0842 15.8366 2.25293L13.4473 4.37662L11.4342 2.86751C11.2857 2.75607 11.1091 2.68819 10.9241 2.67147C10.7392 2.65476 10.5532 2.68986 10.3871 2.77285C10.221 2.85584 10.0813 2.98345 9.98357 3.14137C9.88588 3.29929 9.83408 3.48129 9.83398 3.66699V10.0003C9.83398 13.6702 12.8308 16.667 16.5007 16.667C20.1705 16.667 23.1673 13.6702 23.1673 10.0003V3.66699C23.1672 3.48129 23.1154 3.29929 23.0177 3.14137C22.92 2.98345 22.7803 2.85584 22.6142 2.77285C22.4481 2.68986 22.2621 2.65476 22.0772 2.67147C21.8922 2.68819 21.7156 2.75607 21.5671 2.86751L19.554 4.37662L17.1647 2.25293C16.9885 2.09611 16.7625 2.00664 16.5267 2.00032ZM16.5007 4.33886L18.8366 6.41438C19.009 6.56749 19.2291 6.65632 19.4595 6.66581C19.6899 6.6753 19.9165 6.60488 20.1009 6.46647L21.1673 5.66699V8.00032H11.834V5.66699L12.9004 6.46647C13.0848 6.60488 13.3114 6.6753 13.5418 6.66581C13.7722 6.65632 13.9923 6.56749 14.1647 6.41438L16.5007 4.33886ZM11.834 10.0003H21.1673C21.1673 12.5891 19.0894 14.667 16.5007 14.667C13.9119 14.667 11.834 12.5891 11.834 10.0003ZM8.83398 19.3337C7.18898 19.3337 5.83398 20.6887 5.83398 22.3337V23.1331C5.83398 25.0937 7.07713 26.8523 8.97331 28.0615C10.8695 29.2707 13.4639 30.0003 16.5007 30.0003C19.5374 30.0003 22.1318 29.2707 24.028 28.0615C25.9242 26.8523 27.1673 25.0937 27.1673 23.1331V22.3337C27.1673 20.6887 25.8123 19.3337 24.1673 19.3337H8.83398ZM8.83398 21.3337H24.1673C24.7317 21.3337 25.1673 21.7693 25.1673 22.3337V23.1331C25.1673 24.2432 24.4523 25.4189 22.9525 26.3753C21.4527 27.3318 19.2132 28.0003 16.5007 28.0003C13.7881 28.0003 11.5486 27.3318 10.0488 26.3753C8.54901 25.4189 7.83398 24.2432 7.83398 23.1331V22.3337C7.83398 21.7693 8.26965 21.3337 8.83398 21.3337Z" fill="#399977"/>
</svg>
