<svg width="24" height="24" viewBox="0 0 24 24" fill="none" xmlns="http://www.w3.org/2000/svg">
<path d="M19.7609 20.5107C19.9598 20.5106 20.1505 20.4316 20.2912 20.291C20.4318 20.1503 20.5108 19.9596 20.5109 19.7607V12.7607C20.5123 12.6613 20.4939 12.5626 20.4568 12.4704C20.4198 12.3782 20.3648 12.2942 20.295 12.2234C20.2252 12.1527 20.142 12.0965 20.0503 12.0581C19.9587 12.0197 19.8603 12 19.7609 12C19.6615 12 19.5631 12.0197 19.4714 12.0581C19.3797 12.0965 19.2965 12.1527 19.2267 12.2234C19.157 12.2942 19.1019 12.3782 19.0649 12.4704C19.0278 12.5626 19.0095 12.6613 19.0109 12.7607V17.9501L4.79113 3.73039C4.72202 3.65842 4.63924 3.60095 4.54765 3.56136C4.45605 3.52178 4.35748 3.50086 4.2577 3.49985C4.15792 3.49883 4.05894 3.51774 3.96656 3.55546C3.87418 3.59317 3.79025 3.64894 3.71969 3.7195C3.64913 3.79006 3.59336 3.87399 3.55565 3.96637C3.51793 4.05875 3.49902 4.15773 3.50004 4.25751C3.50105 4.35729 3.52197 4.45586 3.56155 4.54746C3.60114 4.63905 3.65861 4.72183 3.73058 4.79094L17.9503 19.0107H12.7609C12.6615 19.0093 12.5628 19.0276 12.4706 19.0647C12.3783 19.1017 12.2944 19.1568 12.2236 19.2265C12.1529 19.2963 12.0967 19.3795 12.0583 19.4712C12.0199 19.5629 12.0002 19.6613 12.0002 19.7607C12.0002 19.8601 12.0199 19.9585 12.0583 20.0502C12.0967 20.1418 12.1529 20.225 12.2236 20.2948C12.2944 20.3646 12.3783 20.4196 12.4706 20.4567C12.5628 20.4937 12.6615 20.5121 12.7609 20.5107H19.7609Z" fill="#F3003A"/>
</svg>
