<svg width="24" height="24" viewBox="0 0 24 24" fill="none" xmlns="http://www.w3.org/2000/svg">
<path d="M19.7609 3.50008C19.9598 3.50009 20.1505 3.57912 20.2912 3.71977C20.4318 3.86041 20.5108 4.05117 20.5109 4.25007V11.2501C20.5123 11.3495 20.4939 11.4481 20.4568 11.5404C20.4198 11.6326 20.3648 11.7165 20.295 11.7873C20.2252 11.8581 20.142 11.9143 20.0503 11.9526C19.9587 11.991 19.8603 12.0108 19.7609 12.0108C19.6615 12.0108 19.5631 11.991 19.4714 11.9526C19.3797 11.9143 19.2965 11.8581 19.2267 11.7873C19.157 11.7165 19.1019 11.6326 19.0649 11.5404C19.0278 11.4481 19.0095 11.3495 19.0109 11.2501V6.06062L4.79113 20.2803C4.72202 20.3523 4.63924 20.4098 4.54765 20.4494C4.45605 20.489 4.35748 20.5099 4.2577 20.5109C4.15792 20.5119 4.05894 20.493 3.96656 20.4553C3.87418 20.4176 3.79025 20.3618 3.71969 20.2912C3.64913 20.2207 3.59336 20.1368 3.55565 20.0444C3.51793 19.952 3.49902 19.853 3.50004 19.7532C3.50105 19.6535 3.52197 19.5549 3.56155 19.4633C3.60114 19.3717 3.65861 19.2889 3.73058 19.2198L17.9503 5.00007H12.7609C12.6615 5.00148 12.5628 4.98312 12.4706 4.94606C12.3783 4.909 12.2944 4.85398 12.2236 4.7842C12.1529 4.71441 12.0967 4.63126 12.0583 4.53956C12.0199 4.44787 12.0002 4.34947 12.0002 4.25007C12.0002 4.15068 12.0199 4.05228 12.0583 3.96059C12.0967 3.86889 12.1529 3.78574 12.2236 3.71595C12.2944 3.64617 12.3783 3.59115 12.4706 3.55409C12.5628 3.51703 12.6615 3.49867 12.7609 3.50008H19.7609Z" fill="#399977"/>
</svg>
