<svg width="28" height="28" viewBox="0 0 28 28" fill="none" xmlns="http://www.w3.org/2000/svg">
<rect width="28" height="28" rx="14" fill="black"/>
<path d="M18.8861 12.1787L19.6995 11.3654C20.5441 10.5207 20.5441 9.14606 19.6995 8.30106C19.2905 7.89239 18.7468 7.66772 18.1671 7.66772C17.5875 7.66772 17.0435 7.89272 16.6348 8.30139L15.8218 9.11439L18.8861 12.1787ZM15.1148 9.82139L9.09181 15.8444C8.96348 15.9727 8.86581 16.1311 8.80915 16.3027L7.69248 19.6764C7.63281 19.8557 7.67981 20.0534 7.81348 20.1871C7.90915 20.2824 8.03648 20.3334 8.16715 20.3334C8.21981 20.3334 8.27281 20.3251 8.32448 20.3081L11.6971 19.1911C11.8695 19.1344 12.0281 19.0367 12.1565 18.9081L18.1791 12.8854L15.1148 9.82139Z" fill="white"/>
</svg>
