<svg width="60" height="60" viewBox="0 0 60 60" fill="none" xmlns="http://www.w3.org/2000/svg">
<path d="M11.9092 6.24997C11.6601 6.24546 11.4126 6.29062 11.1812 6.38282C10.9497 6.47502 10.739 6.61242 10.5613 6.78697C10.3835 6.96153 10.2423 7.16976 10.146 7.39949C10.0496 7.62922 9.99998 7.87585 10 8.12497V46.875C10 50.6497 13.1003 53.75 16.875 53.75H43.125C46.8997 53.75 50 50.6497 50 46.875V8.12497C50 7.81253 49.922 7.50503 49.773 7.2304C49.624 6.95578 49.4087 6.72274 49.1468 6.55246C48.8848 6.38218 48.5844 6.28006 48.273 6.25537C47.9615 6.23069 47.6488 6.28422 47.3633 6.41111L42.4609 8.59128L36.9458 6.38425C36.4991 6.20576 36.0009 6.20576 35.5542 6.38425L30 8.60593L24.4458 6.38425C23.9991 6.20576 23.5009 6.20576 23.0542 6.38425L17.5391 8.59128L12.6367 6.41111C12.4074 6.30927 12.16 6.25447 11.9092 6.24997ZM23.75 10.144L29.3042 12.3657C29.7509 12.5442 30.2491 12.5442 30.6958 12.3657L36.25 10.144L41.8042 12.3657C42.0366 12.4587 42.2854 12.5043 42.5357 12.4997C42.786 12.4951 43.0329 12.4404 43.2617 12.3388L46.25 11.0107V46.875C46.25 48.6228 44.8728 50 43.125 50H16.875C15.1272 50 13.75 48.6228 13.75 46.875V11.0107L16.7383 12.3388C16.9671 12.4404 17.214 12.4951 17.4643 12.4997C17.7147 12.5043 17.9634 12.4587 18.1958 12.3657L23.75 10.144ZM19.375 21.25C19.1265 21.2465 18.8799 21.2924 18.6493 21.385C18.4187 21.4777 18.2089 21.6152 18.0319 21.7897C17.855 21.9641 17.7145 22.172 17.6186 22.4012C17.5227 22.6305 17.4733 22.8765 17.4733 23.125C17.4733 23.3735 17.5227 23.6195 17.6186 23.8487C17.7145 24.0779 17.855 24.2858 18.0319 24.4603C18.2089 24.6347 18.4187 24.7723 18.6493 24.8649C18.8799 24.9576 19.1265 25.0035 19.375 25H40.625C40.8735 25.0035 41.1201 24.9576 41.3507 24.8649C41.5813 24.7723 41.7911 24.6347 41.9681 24.4603C42.145 24.2858 42.2855 24.0779 42.3814 23.8487C42.4773 23.6195 42.5267 23.3735 42.5267 23.125C42.5267 22.8765 42.4773 22.6305 42.3814 22.4012C42.2855 22.172 42.145 21.9641 41.9681 21.7897C41.7911 21.6152 41.5813 21.4777 41.3507 21.385C41.1201 21.2924 40.8735 21.2465 40.625 21.25H19.375ZM19.375 32.5C19.1265 32.4965 18.8799 32.5424 18.6493 32.635C18.4187 32.7277 18.2089 32.8652 18.0319 33.0397C17.855 33.2141 17.7145 33.422 17.6186 33.6512C17.5227 33.8805 17.4733 34.1265 17.4733 34.375C17.4733 34.6235 17.5227 34.8695 17.6186 35.0987C17.7145 35.3279 17.855 35.5358 18.0319 35.7103C18.2089 35.8847 18.4187 36.0223 18.6493 36.1149C18.8799 36.2076 19.1265 36.2535 19.375 36.25H30.625C30.8735 36.2535 31.1201 36.2076 31.3507 36.1149C31.5813 36.0223 31.7911 35.8847 31.9681 35.7103C32.145 35.5358 32.2855 35.3279 32.3814 35.0987C32.4773 34.8695 32.5267 34.6235 32.5267 34.375C32.5267 34.1265 32.4773 33.8805 32.3814 33.6512C32.2855 33.422 32.145 33.2141 31.9681 33.0397C31.7911 32.8652 31.5813 32.7277 31.3507 32.635C31.1201 32.5424 30.8735 32.4965 30.625 32.5H19.375ZM38.125 32.5C37.8765 32.4965 37.6299 32.5424 37.3993 32.635C37.1687 32.7277 36.9589 32.8652 36.7819 33.0397C36.605 33.2141 36.4645 33.422 36.3686 33.6512C36.2727 33.8805 36.2233 34.1265 36.2233 34.375C36.2233 34.6235 36.2727 34.8695 36.3686 35.0987C36.4645 35.3279 36.605 35.5358 36.7819 35.7103C36.9589 35.8847 37.1687 36.0223 37.3993 36.1149C37.6299 36.2076 37.8765 36.2535 38.125 36.25H40.625C40.8735 36.2535 41.1201 36.2076 41.3507 36.1149C41.5813 36.0223 41.7911 35.8847 41.9681 35.7103C42.145 35.5358 42.2855 35.3279 42.3814 35.0987C42.4773 34.8695 42.5267 34.6235 42.5267 34.375C42.5267 34.1265 42.4773 33.8805 42.3814 33.6512C42.2855 33.422 42.145 33.2141 41.9681 33.0397C41.7911 32.8652 41.5813 32.7277 41.3507 32.635C41.1201 32.5424 40.8735 32.4965 40.625 32.5H38.125ZM19.375 40C19.1265 39.9965 18.8799 40.0424 18.6493 40.135C18.4187 40.2277 18.2089 40.3652 18.0319 40.5397C17.855 40.7141 17.7145 40.922 17.6186 41.1512C17.5227 41.3805 17.4733 41.6265 17.4733 41.875C17.4733 42.1235 17.5227 42.3695 17.6186 42.5987C17.7145 42.8279 17.855 43.0358 18.0319 43.2103C18.2089 43.3847 18.4187 43.5223 18.6493 43.6149C18.8799 43.7076 19.1265 43.7535 19.375 43.75H30.625C30.8735 43.7535 31.1201 43.7076 31.3507 43.6149C31.5813 43.5223 31.7911 43.3847 31.9681 43.2103C32.145 43.0358 32.2855 42.8279 32.3814 42.5987C32.4773 42.3695 32.5267 42.1235 32.5267 41.875C32.5267 41.6265 32.4773 41.3805 32.3814 41.1512C32.2855 40.922 32.145 40.7141 31.9681 40.5397C31.7911 40.3652 31.5813 40.2277 31.3507 40.135C31.1201 40.0424 30.8735 39.9965 30.625 40H19.375ZM38.125 40C37.8765 39.9965 37.6299 40.0424 37.3993 40.135C37.1687 40.2277 36.9589 40.3652 36.7819 40.5397C36.605 40.7141 36.4645 40.922 36.3686 41.1512C36.2727 41.3805 36.2233 41.6265 36.2233 41.875C36.2233 42.1235 36.2727 42.3695 36.3686 42.5987C36.4645 42.8279 36.605 43.0358 36.7819 43.2103C36.9589 43.3847 37.1687 43.5223 37.3993 43.6149C37.6299 43.7076 37.8765 43.7535 38.125 43.75H40.625C40.8735 43.7535 41.1201 43.7076 41.3507 43.6149C41.5813 43.5223 41.7911 43.3847 41.9681 43.2103C42.145 43.0358 42.2855 42.8279 42.3814 42.5987C42.4773 42.3695 42.5267 42.1235 42.5267 41.875C42.5267 41.6265 42.4773 41.3805 42.3814 41.1512C42.2855 40.922 42.145 40.7141 41.9681 40.5397C41.7911 40.3652 41.5813 40.2277 41.3507 40.135C41.1201 40.0424 40.8735 39.9965 40.625 40H38.125Z" fill="#399977"/>
</svg>
