<svg width="60" height="60" viewBox="0 0 60 60" fill="none" xmlns="http://www.w3.org/2000/svg">
<path d="M13.0957 6.22337C12.5988 6.23114 12.1254 6.43579 11.7793 6.79239C11.4333 7.14899 11.2429 7.62836 11.25 8.12523V18.1252C11.2465 18.3737 11.2924 18.6204 11.385 18.8509C11.4777 19.0815 11.6152 19.2914 11.7897 19.4683C11.9642 19.6452 12.172 19.7857 12.4013 19.8816C12.6305 19.9775 12.8765 20.0269 13.125 20.0269C13.3735 20.0269 13.6195 19.9775 13.8487 19.8816C14.078 19.7857 14.2858 19.6452 14.4603 19.4683C14.6348 19.2914 14.7723 19.0815 14.865 18.8509C14.9576 18.6204 15.0035 18.3737 15 18.1252V8.12523C15.0036 7.87427 14.9568 7.62515 14.8623 7.39262C14.7679 7.16008 14.6277 6.94888 14.4501 6.77152C14.2725 6.59417 14.0611 6.45426 13.8285 6.3601C13.5958 6.26595 13.3467 6.21945 13.0957 6.22337ZM20.5957 6.22337C20.0988 6.23114 19.6254 6.43579 19.2793 6.79239C18.9333 7.14899 18.7429 7.62836 18.75 8.12523V11.8752C18.7465 12.1237 18.7924 12.3704 18.885 12.6009C18.9777 12.8315 19.1152 13.0414 19.2897 13.2183C19.4642 13.3952 19.672 13.5357 19.9013 13.6316C20.1305 13.7275 20.3765 13.7769 20.625 13.7769C20.8735 13.7769 21.1195 13.7275 21.3487 13.6316C21.578 13.5357 21.7858 13.3952 21.9603 13.2183C22.1348 13.0414 22.2723 12.8315 22.365 12.6009C22.4576 12.3704 22.5035 12.1237 22.5 11.8752V8.12523C22.5036 7.87427 22.4568 7.62515 22.3623 7.39262C22.2679 7.16008 22.1277 6.94888 21.9501 6.77152C21.7725 6.59417 21.5611 6.45426 21.3285 6.3601C21.0958 6.26595 20.8467 6.21945 20.5957 6.22337ZM39.3457 6.22337C38.8488 6.23114 38.3754 6.43579 38.0293 6.79239C37.6833 7.14899 37.4929 7.62836 37.5 8.12523V11.8752C37.4965 12.1237 37.5424 12.3704 37.635 12.6009C37.7277 12.8315 37.8652 13.0414 38.0397 13.2183C38.2142 13.3952 38.422 13.5357 38.6513 13.6316C38.8805 13.7275 39.1265 13.7769 39.375 13.7769C39.6235 13.7769 39.8695 13.7275 40.0987 13.6316C40.328 13.5357 40.5358 13.3952 40.7103 13.2183C40.8848 13.0414 41.0223 12.8315 41.115 12.6009C41.2076 12.3704 41.2535 12.1237 41.25 11.8752V8.12523C41.2536 7.87427 41.2068 7.62515 41.1123 7.39262C41.0179 7.16008 40.8777 6.94888 40.7001 6.77152C40.5225 6.59417 40.3111 6.45426 40.0785 6.3601C39.8458 6.26595 39.5967 6.21945 39.3457 6.22337ZM46.8457 6.22337C46.3488 6.23114 45.8754 6.43579 45.5293 6.79239C45.1833 7.14899 44.9929 7.62836 45 8.12523V18.1252C44.9965 18.3737 45.0424 18.6204 45.135 18.8509C45.2277 19.0815 45.3652 19.2914 45.5397 19.4683C45.7142 19.6452 45.922 19.7857 46.1513 19.8816C46.3805 19.9775 46.6265 20.0269 46.875 20.0269C47.1235 20.0269 47.3695 19.9775 47.5987 19.8816C47.828 19.7857 48.0358 19.6452 48.2103 19.4683C48.3848 19.2914 48.5223 19.0815 48.615 18.8509C48.7076 18.6204 48.7535 18.3737 48.75 18.1252V8.12523C48.7536 7.87427 48.7068 7.62515 48.6123 7.39262C48.5179 7.16008 48.3777 6.94888 48.2001 6.77152C48.0225 6.59417 47.8111 6.45426 47.5785 6.3601C47.3458 6.26595 47.0967 6.21945 46.8457 6.22337ZM30.0024 13.7527C28.6608 13.7527 27.3189 14.1468 26.1646 14.9368L12.3218 24.4094C10.871 25.3997 10 27.0477 10 28.8039V39.9441C10 41.7003 10.8708 43.3469 12.3169 44.3386C12.3169 44.3394 12.3169 44.3402 12.3169 44.341L26.1621 53.8137C28.4707 55.3936 31.5268 55.3936 33.8354 53.8137L47.6782 44.341C49.129 43.3494 49.9976 41.6989 49.9976 39.9441V28.8088V28.8039C49.9998 27.047 49.1294 25.3993 47.6831 24.4094L33.8379 14.9368C32.6836 14.1468 31.3441 13.7527 30.0024 13.7527ZM30.0024 17.4978C30.602 17.4978 31.2005 17.6761 31.7212 18.0325L44.6411 26.8752L31.7188 35.718C30.6774 36.4306 29.3202 36.4306 28.2788 35.718L15.3589 26.8752L28.2812 18.0325C28.8019 17.6761 29.4029 17.4978 30.0024 17.4978ZM13.75 30.3225L26.1621 38.8137C28.4707 40.3936 31.5268 40.3936 33.8354 38.8137L46.2476 30.3225V39.9441C46.2476 40.4667 45.9932 40.952 45.564 41.2453C45.5632 41.2453 45.5623 41.2453 45.5615 41.2453L31.7188 50.718C30.6774 51.4306 29.3202 51.4306 28.2788 50.718L14.436 41.2453C14.0046 40.9495 13.75 40.4654 13.75 39.9441V30.3225Z" fill="#399977"/>
</svg>
