<svg width="60" height="60" viewBox="0 0 60 60" fill="none" xmlns="http://www.w3.org/2000/svg">
<path d="M14.375 2.5C6.45811 2.5 0 8.95812 0 16.875C0 19.9156 0.958551 22.7364 2.58057 25.0635C2.52539 25.2455 2.49822 25.4348 2.5 25.625V39.375C2.5 42.4594 5.04062 45 8.125 45H9.01855C9.8428 47.873 12.5003 50 15.625 50C18.7497 50 21.4072 47.873 22.2314 45H37.7686C38.5928 47.873 41.2503 50 44.375 50C47.4997 50 50.1572 47.873 50.9814 45H51.875C54.9594 45 57.5 42.4594 57.5 39.375V31.4209C57.5 30.6316 57.3335 29.8564 57.0166 29.1406C57.0158 29.1398 57.015 29.139 57.0142 29.1382L53.3276 20.8423V20.8398C52.4274 18.8129 50.406 17.5 48.1885 17.5H39.9365C39.6179 14.7083 37.2457 12.5 34.375 12.5H28.064C26.2053 6.71116 20.7672 2.5 14.375 2.5ZM14.375 6.25C20.2652 6.25 25 10.9848 25 16.875C25 22.7652 20.2652 27.5 14.375 27.5C8.48476 27.5 3.75 22.7652 3.75 16.875C3.75 10.9848 8.48476 6.25 14.375 6.25ZM14.3457 8.72314C13.8488 8.73091 13.3754 8.93556 13.0293 9.29216C12.6833 9.64876 12.4929 10.1281 12.5 10.625V16.875C12.5001 17.3722 12.6977 17.8491 13.0493 18.2007L15.5493 20.7007C15.7221 20.8806 15.929 21.0243 16.158 21.1233C16.387 21.2222 16.6334 21.2745 16.8829 21.277C17.1323 21.2796 17.3798 21.2323 17.6107 21.138C17.8417 21.0437 18.0515 20.9043 18.2279 20.7279C18.4043 20.5515 18.5437 20.3417 18.638 20.1107C18.7323 19.8798 18.7796 19.6323 18.777 19.3829C18.7745 19.1334 18.7222 18.887 18.6233 18.658C18.5243 18.429 18.3806 18.2221 18.2007 18.0493L16.25 16.0986V10.625C16.2536 10.374 16.2068 10.1249 16.1123 9.89239C16.0179 9.65986 15.8777 9.44865 15.7001 9.2713C15.5225 9.09394 15.3111 8.95403 15.0785 8.85988C14.8458 8.76572 14.5967 8.71922 14.3457 8.72314ZM28.7183 16.25H34.375C35.4331 16.25 36.25 17.0669 36.25 18.125V19.375V41.25H22.2314C21.4072 38.377 18.7497 36.25 15.625 36.25C12.5003 36.25 9.8428 38.377 9.01855 41.25H8.125C7.06688 41.25 6.25 40.4331 6.25 39.375V28.7158C8.56462 30.3105 11.3625 31.25 14.375 31.25C22.2919 31.25 28.75 24.7919 28.75 16.875C28.75 16.6642 28.7273 16.4586 28.7183 16.25ZM40 21.25H48.1885C48.9353 21.25 49.5973 21.6813 49.8999 22.3633L52.1826 27.5H40V21.25ZM40 31.25H53.7329C53.7382 31.3069 53.75 31.3641 53.75 31.4209V39.375C53.75 40.4331 52.9331 41.25 51.875 41.25H50.9814C50.1572 38.377 47.4997 36.25 44.375 36.25C42.7175 36.25 41.1921 36.8491 40 37.8394V31.25ZM15.625 40C17.3109 40 18.6431 41.291 18.7329 42.9517C18.7222 43.067 18.7222 43.183 18.7329 43.2983C18.6431 44.959 17.3109 46.25 15.625 46.25C13.9391 46.25 12.6069 44.959 12.5171 43.2983C12.5278 43.183 12.5278 43.067 12.5171 42.9517C12.6069 41.291 13.9391 40 15.625 40ZM44.375 40C46.1205 40 47.5 41.3795 47.5 43.125C47.5 44.8705 46.1205 46.25 44.375 46.25C42.6295 46.25 41.25 44.8705 41.25 43.125C41.25 41.3795 42.6295 40 44.375 40Z" fill="#399977"/>
</svg>
