<svg width="60" height="60" viewBox="0 0 60 60" fill="none" xmlns="http://www.w3.org/2000/svg">
<path d="M30 5L28.5449 5.69336H28.5425L28.1665 7.26318L29.1455 8.54492H29.1479L30 8.75L31.4575 8.05664L31.8359 6.48682L30.8545 5.20508L30 5ZM22.4976 6.26953L21.04 6.96289L20.6616 8.53271L21.6431 9.81201L22.4976 10.0195L23.9526 9.32373L24.3311 7.75635L23.3521 6.47461L22.4976 6.26953ZM37.5049 6.26953L36.0474 6.96289L35.6689 8.53271L36.6504 9.81445L37.5049 10.0195L38.96 9.32373L39.3384 7.75635L38.3569 6.47461L37.5049 6.26953ZM15.8081 9.89258L14.353 10.5859L13.9746 12.1558L14.9561 13.4375L15.8081 13.6426L17.2656 12.9492L17.644 11.3794L16.6626 10.0977L15.8081 9.89258ZM44.1919 9.89258L42.7344 10.5884L42.356 12.1558L43.3374 13.4375L44.1919 13.6426L45.647 12.9492L46.0254 11.3794L45.0464 10.0977L44.1919 9.89258ZM30 11.25C22.1431 11.25 15.4055 16.1209 12.6221 22.9956C12.5917 23.0656 12.5656 23.1373 12.5439 23.2104C11.72 25.3192 11.25 27.6042 11.25 30C11.25 39.9328 19.0328 48.0714 28.8135 48.689C29.1168 48.7845 29.4394 48.8013 29.751 48.7378C29.8347 48.7389 29.916 48.75 30 48.75C40.3331 48.75 48.75 40.3331 48.75 30C48.75 19.6669 40.3331 11.25 30 11.25ZM30 15C30.8539 15 31.6857 15.0862 32.5 15.2222V16.875C32.5 17.2438 32.2438 17.5 31.875 17.5C28.7459 17.5 26.1938 19.6722 25.3735 22.5513C23.1002 22.6907 21.25 24.5701 21.25 26.875V27.9736L16.582 23.3057C19.0362 18.379 24.1048 15 30 15ZM10.6494 15.4834L9.19434 16.1768L8.81592 17.7466L9.79492 19.0259L10.6494 19.2334L12.1069 18.5376L12.4854 16.9702L11.5039 15.6885L10.6494 15.4834ZM49.3506 15.4834L47.8931 16.1768L47.5171 17.7466L48.4961 19.0283L49.3506 19.2334L50.8081 18.54L51.1841 16.9702L50.2051 15.6885L49.3506 15.4834ZM36.25 16.3696C41.4171 18.734 45 23.9293 45 30C45 33.8126 43.579 37.2753 41.25 39.917V38.125C41.25 35.7313 39.2687 33.75 36.875 33.75H35C35 31.7005 33.2995 30 31.25 30H25V26.875C25 26.5062 25.2562 26.25 25.625 26.25H26.875C27.3723 26.25 27.8491 26.0524 28.2008 25.7008C28.5524 25.3491 28.75 24.8723 28.75 24.375C28.75 22.6272 30.1272 21.25 31.875 21.25C34.2687 21.25 36.25 19.2687 36.25 16.875V16.3696ZM7.60498 22.4536L6.14746 23.147L5.77148 24.7168L6.75049 25.9985L7.60498 26.2036L9.0625 25.5103L9.43848 23.9404L8.45947 22.6587L7.60498 22.4536ZM52.395 22.4536L50.9399 23.1494L50.5615 24.7168L51.5405 25.9985L52.395 26.2036L53.8525 25.5103L54.231 23.9404L53.2495 22.6611L52.395 22.4536ZM15.2563 27.2827L23.75 35.7764V36.875C23.75 39.048 25.4081 40.8035 27.5 41.123V44.7778C20.3931 43.5913 15 37.4526 15 30C15 29.0704 15.0958 28.1648 15.2563 27.2827ZM6.97021 30.0342L5.51514 30.7275L5.13672 32.2974L6.11816 33.5791L6.97021 33.7842L8.42773 33.0884L8.80615 31.521L7.82471 30.2393L6.97021 30.0342ZM53.0298 30.0342L51.5723 30.7275L51.1938 32.2974L52.1753 33.5791L53.0298 33.7842L54.4849 33.0908L54.8633 31.521L53.8818 30.2393L53.0298 30.0342ZM27.019 33.75H31.25C31.25 35.7995 32.9505 37.5 35 37.5H36.875C37.2438 37.5 37.5 37.7562 37.5 38.125V42.9883C35.6342 44.0649 33.517 44.7506 31.25 44.9365V39.375C31.25 38.8777 31.0524 38.4009 30.7008 38.0492C30.3491 37.6976 29.8723 37.5 29.375 37.5H28.125C27.7562 37.5 27.5 37.2438 27.5 36.875V35C27.499 34.5383 27.3278 34.0933 27.019 33.75ZM8.82812 37.4097L7.37305 38.1055L6.99463 39.6729L7.97607 40.9546L8.82812 41.1597L10.2856 40.4663L10.6641 38.8989L9.68262 37.6172L8.82812 37.4097ZM51.1694 37.4121L49.7144 38.1055L49.3359 39.6753L50.3174 40.9546L51.1694 41.1621L52.627 40.4663L53.0054 38.8989L52.0239 37.6172L51.1694 37.4121ZM13.0054 43.7695L11.5479 44.4629L11.1719 46.0327L12.1509 47.3145L13.0054 47.5195L14.4629 46.8262L14.8389 45.2563L13.8599 43.9746L13.0054 43.7695ZM46.9946 43.7695L45.5371 44.4653L45.1587 46.0327L46.1401 47.3145L46.9946 47.5195L48.4497 46.8262L48.8281 45.2563L47.8491 43.9746L46.9946 43.7695ZM18.9917 48.4668L17.5366 49.1602L17.1582 50.73L18.1372 52.0093L18.9917 52.2168L20.4492 51.521L20.8252 49.9536L19.8462 48.6719L18.9917 48.4668ZM41.0083 48.4668L39.5508 49.1602L39.1724 50.73L40.1538 52.0117L41.0083 52.2168L42.4634 51.521L42.8418 49.9536L41.8604 48.6719L41.0083 48.4668ZM26.1963 50.9106L24.7412 51.604L24.3628 53.1738L25.3418 54.4556L26.1963 54.6606L27.6538 53.9673L28.0322 52.3975L27.0508 51.1157L26.1963 50.9106ZM33.8037 50.9106L32.3462 51.6064L31.9678 53.1738L32.9492 54.4556L33.8037 54.6606L35.2588 53.9673L35.6372 52.3975L34.6558 51.1157L33.8037 50.9106Z" fill="#399977"/>
</svg>
