<svg width="25" height="24" viewBox="0 0 25 24" fill="none" xmlns="http://www.w3.org/2000/svg">
<path d="M6.55078 3C5.04089 3 3.80078 4.24011 3.80078 5.75V18.25C3.80078 19.7599 5.04089 21 6.55078 21H19.0508C20.5607 21 21.8008 19.7599 21.8008 18.25V5.75C21.8008 4.24011 20.5607 3 19.0508 3H6.55078ZM6.55078 4.5H19.0508C19.7499 4.5 20.3008 5.05089 20.3008 5.75V18.25C20.3008 18.3163 20.2908 18.3801 20.2812 18.4434L14.208 12.5674C13.8187 12.1907 13.3095 12.0029 12.8008 12.0029C12.292 12.0029 11.7838 12.1907 11.3945 12.5674L5.32031 18.4434C5.31075 18.3801 5.30078 18.3163 5.30078 18.25V5.75C5.30078 5.05089 5.85167 4.5 6.55078 4.5ZM16.0508 6.5C15.3633 6.5 14.7527 6.78482 14.3652 7.2207C13.9778 7.65659 13.8008 8.20833 13.8008 8.75C13.8008 9.29167 13.9778 9.84341 14.3652 10.2793C14.7527 10.7152 15.3633 11 16.0508 11C16.7383 11 17.3489 10.7152 17.7363 10.2793C18.1238 9.84341 18.3008 9.29167 18.3008 8.75C18.3008 8.20833 18.1238 7.65659 17.7363 7.2207C17.3489 6.78482 16.7383 6.5 16.0508 6.5ZM16.0508 8C16.3633 8 16.5027 8.09018 16.6152 8.2168C16.7278 8.34341 16.8008 8.54167 16.8008 8.75C16.8008 8.95833 16.7278 9.15659 16.6152 9.2832C16.5027 9.40982 16.3633 9.5 16.0508 9.5C15.7383 9.5 15.5989 9.40982 15.4863 9.2832C15.3738 9.15659 15.3008 8.95833 15.3008 8.75C15.3008 8.54167 15.3738 8.34341 15.4863 8.2168C15.5989 8.09018 15.7383 8 16.0508 8ZM12.8018 13.4941C12.9315 13.4941 13.0608 13.5447 13.165 13.6455L19.2012 19.4854C19.1514 19.4912 19.1023 19.5 19.0508 19.5H6.55078C6.49923 19.5 6.45017 19.4912 6.40039 19.4854L12.4375 13.6455C12.5417 13.5447 12.672 13.4941 12.8018 13.4941Z" fill="#399977"/>
</svg>
