<svg width="40" height="40" viewBox="0 0 40 40" fill="none" xmlns="http://www.w3.org/2000/svg">
<path d="M22.0591 2.4888C21.7344 2.49826 21.4262 2.63369 21.1997 2.8664L17.8664 6.19974C17.632 6.43417 17.5004 6.75206 17.5004 7.08353C17.5004 7.41499 17.632 7.73289 17.8664 7.96732L21.1997 11.3006C21.3149 11.4206 21.4528 11.5164 21.6055 11.5824C21.7582 11.6483 21.9224 11.6832 22.0887 11.6849C22.255 11.6866 22.42 11.6551 22.574 11.5922C22.7279 11.5294 22.8678 11.4364 22.9854 11.3188C23.103 11.2012 23.196 11.0613 23.2588 10.9074C23.3217 10.7534 23.3532 10.5884 23.3515 10.4221C23.3498 10.2558 23.315 10.0915 23.249 9.93887C23.183 9.78621 23.0872 9.64825 22.9673 9.53307L21.7677 8.33353H28.7501C30.3752 8.33353 31.6668 9.62514 31.6668 11.2502V14.5835C31.6645 14.7492 31.6951 14.9136 31.7568 15.0673C31.8186 15.221 31.9103 15.3609 32.0266 15.4789C32.1429 15.5969 32.2815 15.6905 32.4343 15.7545C32.5872 15.8184 32.7512 15.8513 32.9168 15.8513C33.0825 15.8513 33.2465 15.8184 33.3993 15.7545C33.5521 15.6905 33.6907 15.5969 33.807 15.4789C33.9233 15.3609 34.015 15.221 34.0768 15.0673C34.1386 14.9136 34.1692 14.7492 34.1668 14.5835V11.2502C34.1668 8.27358 31.7268 5.83353 28.7501 5.83353H21.7677L22.9673 4.63398C23.1476 4.45835 23.2707 4.23237 23.3205 3.98562C23.3703 3.73886 23.3444 3.48283 23.2463 3.25102C23.1481 3.01922 22.9823 2.82244 22.7705 2.68644C22.5586 2.55044 22.3107 2.48155 22.0591 2.4888ZM11.2501 5.83353C8.27353 5.83353 5.83348 8.27358 5.83348 11.2502V18.2326L4.63394 17.0331C4.51742 16.9131 4.37801 16.8177 4.22397 16.7526C4.06993 16.6874 3.90438 16.6538 3.73713 16.6538C3.48836 16.6539 3.24526 16.7282 3.03895 16.8672C2.83263 17.0062 2.67248 17.2036 2.57897 17.4341C2.48547 17.6646 2.46287 17.9178 2.51406 18.1612C2.56526 18.4047 2.68792 18.6273 2.86636 18.8006L6.19969 22.134C6.43412 22.3683 6.75202 22.5 7.08348 22.5C7.41494 22.5 7.73284 22.3683 7.96727 22.134L11.3006 18.8006C11.4206 18.6855 11.5163 18.5475 11.5823 18.3948C11.6483 18.2422 11.6832 18.0779 11.6848 17.9116C11.6865 17.7453 11.655 17.5803 11.5922 17.4264C11.5293 17.2724 11.4364 17.1325 11.3188 17.0149C11.2012 16.8973 11.0613 16.8044 10.9073 16.7415C10.7533 16.6786 10.5884 16.6471 10.4221 16.6488C10.2558 16.6505 10.0915 16.6854 9.93883 16.7514C9.78617 16.8173 9.64821 16.9131 9.53302 17.0331L8.33348 18.2326V11.2502C8.33348 9.62514 9.62509 8.33353 11.2501 8.33353H13.7501C13.9158 8.33587 14.0802 8.30527 14.2339 8.2435C14.3877 8.18173 14.5276 8.09003 14.6455 7.97373C14.7635 7.85742 14.8572 7.71883 14.9211 7.56601C14.985 7.41319 15.0179 7.24918 15.0179 7.08353C15.0179 6.91787 14.985 6.75387 14.9211 6.60104C14.8572 6.44822 14.7635 6.30963 14.6455 6.19333C14.5276 6.07702 14.3877 5.98532 14.2339 5.92355C14.0802 5.86178 13.9158 5.83118 13.7501 5.83353H11.2501ZM32.8989 18.3335C32.5736 18.3383 32.263 18.4697 32.033 18.6997L28.6997 22.0331C28.5797 22.1483 28.4839 22.2862 28.418 22.4389C28.352 22.5915 28.3171 22.7558 28.3154 22.9221C28.3138 23.0884 28.3453 23.2534 28.4081 23.4074C28.471 23.5613 28.5639 23.7012 28.6815 23.8188C28.7991 23.9364 28.939 24.0294 29.093 24.0922C29.247 24.1551 29.4119 24.1866 29.5782 24.1849C29.7445 24.1832 29.9088 24.1483 30.0615 24.0824C30.2141 24.0164 30.3521 23.9206 30.4673 23.8006L31.6668 22.6011V28.7502C31.6668 30.3752 30.3752 31.6669 28.7501 31.6669H25.4168C25.2512 31.6645 25.0867 31.6951 24.933 31.7569C24.7793 31.8187 24.6394 31.9104 24.5214 32.0267C24.4035 32.143 24.3098 32.2816 24.2459 32.4344C24.1819 32.5872 24.149 32.7512 24.149 32.9169C24.149 33.0825 24.1819 33.2465 24.2459 33.3993C24.3098 33.5522 24.4035 33.6908 24.5214 33.8071C24.6394 33.9234 24.7793 34.0151 24.933 34.0768C25.0867 34.1386 25.2512 34.1692 25.4168 34.1669H28.7501C31.7268 34.1669 34.1668 31.7268 34.1668 28.7502V22.6011L35.3664 23.8006C35.4815 23.9206 35.6195 24.0164 35.7722 24.0824C35.9248 24.1483 36.0891 24.1832 36.2554 24.1849C36.4217 24.1866 36.5867 24.1551 36.7406 24.0922C36.8946 24.0294 37.0345 23.9364 37.1521 23.8188C37.2697 23.7012 37.3626 23.5613 37.4255 23.4074C37.4884 23.2534 37.5199 23.0884 37.5182 22.9221C37.5165 22.7558 37.4816 22.5915 37.4157 22.4389C37.3497 22.2862 37.2539 22.1483 37.1339 22.0331L33.8006 18.6997C33.6824 18.5815 33.5417 18.4882 33.3869 18.4253C33.232 18.3624 33.0661 18.3312 32.8989 18.3335ZM7.06395 24.9823C6.73271 24.9875 6.41707 25.1239 6.18636 25.3616C5.95565 25.5994 5.82873 25.919 5.83348 26.2502V28.7502C5.83348 31.7268 8.27353 34.1669 11.2501 34.1669H17.3992L16.1997 35.3664C16.0797 35.4816 15.9839 35.6195 15.918 35.7722C15.852 35.9249 15.8171 36.0892 15.8154 36.2555C15.8138 36.4218 15.8453 36.5867 15.9081 36.7407C15.971 36.8947 16.0639 37.0345 16.1815 37.1521C16.2991 37.2697 16.439 37.3627 16.593 37.4255C16.747 37.4884 16.9119 37.5199 17.0782 37.5182C17.2445 37.5165 17.4088 37.4817 17.5615 37.4157C17.7141 37.3497 17.8521 37.2539 17.9673 37.134L21.1932 33.9081C21.3459 33.7909 21.4696 33.6401 21.5544 33.4673C21.6393 33.2945 21.6832 33.1045 21.6825 32.912C21.6819 32.7195 21.6368 32.5297 21.5508 32.3575C21.4648 32.1853 21.3402 32.0353 21.1867 31.9191L17.9673 28.6997C17.8508 28.5798 17.7113 28.4844 17.5573 28.4192C17.4033 28.3541 17.2377 28.3205 17.0705 28.3205C16.8217 28.3206 16.5786 28.3948 16.3723 28.5338C16.166 28.6728 16.0058 28.8702 15.9123 29.1007C15.8188 29.3313 15.7962 29.5845 15.8474 29.8279C15.8986 30.0713 16.0213 30.294 16.1997 30.4673L17.3992 31.6669H11.2501C9.62509 31.6669 8.33348 30.3752 8.33348 28.7502V26.2502C8.33588 26.0829 8.30467 25.9168 8.2417 25.7618C8.17873 25.6068 8.08528 25.466 7.96689 25.3477C7.8485 25.2295 7.70758 25.1362 7.55247 25.0734C7.39737 25.0107 7.23125 24.9797 7.06395 24.9823Z" fill="#399977"/>
</svg>
