<svg width="24" height="25" viewBox="0 0 24 25" fill="none" xmlns="http://www.w3.org/2000/svg">
<path d="M11.9992 3.02637C11.222 3.02637 10.4448 3.40537 10.0246 4.16406L2.2844 18.1475C1.46809 19.6224 2.57328 21.5 4.25901 21.5H19.7405C21.4262 21.5 22.5314 19.6224 21.7151 18.1475L13.9739 4.16406C13.5537 3.40537 12.7765 3.02637 11.9992 3.02637ZM11.9992 4.47461C12.2535 4.47461 12.5075 4.61282 12.6614 4.89062L20.4026 18.874C20.6993 19.4101 20.3517 20 19.7405 20H4.25901C3.64773 20 3.30021 19.4101 3.5969 18.874L11.3371 4.89062C11.491 4.61282 11.745 4.47461 11.9992 4.47461ZM11.9875 8.48926C11.7888 8.49236 11.5994 8.57423 11.461 8.71686C11.3225 8.8595 11.2464 9.05125 11.2492 9.25V14.25C11.2478 14.3494 11.2662 14.4481 11.3033 14.5403C11.3403 14.6325 11.3953 14.7164 11.4651 14.7872C11.5349 14.858 11.6181 14.9142 11.7098 14.9526C11.8014 14.9909 11.8998 15.0107 11.9992 15.0107C12.0986 15.0107 12.197 14.9909 12.2887 14.9526C12.3804 14.9142 12.4636 14.858 12.5334 14.7872C12.6031 14.7164 12.6582 14.6325 12.6952 14.5403C12.7323 14.4481 12.7506 14.3494 12.7492 14.25V9.25C12.7507 9.14962 12.732 9.04997 12.6942 8.95695C12.6564 8.86394 12.6003 8.77946 12.5293 8.70852C12.4583 8.63758 12.3737 8.58161 12.2806 8.54395C12.1876 8.50629 12.0879 8.48769 11.9875 8.48926ZM11.9992 16.5C11.734 16.5 11.4797 16.6054 11.2921 16.7929C11.1046 16.9804 10.9992 17.2348 10.9992 17.5C10.9992 17.7652 11.1046 18.0196 11.2921 18.2071C11.4797 18.3946 11.734 18.5 11.9992 18.5C12.2645 18.5 12.5188 18.3946 12.7063 18.2071C12.8939 18.0196 12.9992 17.7652 12.9992 17.5C12.9992 17.2348 12.8939 16.9804 12.7063 16.7929C12.5188 16.6054 12.2645 16.5 11.9992 16.5Z" fill="#399977"/>
</svg>
