<svg width="40" height="40" viewBox="0 0 40 40" fill="none" xmlns="http://www.w3.org/2000/svg">
<path d="M11.9778 5.84326C9.53448 5.84326 7.09144 6.77961 5.23786 8.65088C1.53065 12.3925 1.53083 18.4811 5.23786 22.2235L18.4833 35.591C18.4976 35.6054 18.5123 35.6196 18.5272 35.6333C19.6498 36.6604 21.2441 36.7257 22.3472 36.0549C23.0221 35.6445 23.4099 34.9015 23.5956 34.0773C25.2292 33.8665 26.5168 32.6045 26.7629 30.9718C28.3626 30.7248 29.6056 29.4597 29.8423 27.8501C30.892 27.6502 31.8085 27.03 32.3261 26.159C32.6868 25.552 32.8473 24.8102 32.7867 24.061C32.9399 23.9947 33.0782 23.8985 33.1936 23.7778L34.7333 22.2235C38.4405 18.4818 38.4419 12.3933 34.7349 8.65088C32.8813 6.77961 30.4367 5.84326 27.9934 5.84326C25.5501 5.84326 23.1071 6.77961 21.2535 8.65088L19.9856 9.93018L18.7177 8.65088C16.8641 6.77961 14.421 5.84326 11.9778 5.84326ZM11.9778 8.32373C13.7708 8.32373 15.5639 9.01909 16.942 10.4103L18.2261 11.7059L15.4022 14.5575C15.4017 14.5575 15.4012 14.5575 15.4006 14.5575C14.6943 15.2704 14.3805 16.2578 14.5152 17.1405C14.6499 18.0232 15.1714 18.7806 15.9003 19.271C17.358 20.2519 19.6563 20.0327 21.4895 18.1821L23.0683 16.5871L29.9335 23.4784C30.4963 24.0483 30.4211 24.4716 30.1776 24.8813C29.9336 25.2919 29.4993 25.5604 28.9114 25.4152C28.6945 25.3615 28.4672 25.367 28.2532 25.4309C28.0391 25.4949 27.8461 25.615 27.6942 25.7789C27.5423 25.9427 27.4372 26.1442 27.3896 26.3625C27.342 26.5808 27.3538 26.8078 27.4237 27.02C27.7283 27.9425 26.8231 28.8537 25.9296 28.5532C25.7095 28.4793 25.4732 28.468 25.2472 28.5208C25.0211 28.5736 24.8142 28.6882 24.6496 28.852C24.4851 29.0157 24.3693 29.222 24.3154 29.4478C24.2615 29.6736 24.2715 29.9099 24.3443 30.1304C24.6489 31.0528 23.7436 31.9625 22.8502 31.6619C22.6301 31.588 22.3938 31.5768 22.1678 31.6295C21.9417 31.6823 21.7348 31.797 21.5702 31.9607C21.4056 32.1244 21.2899 32.3307 21.236 32.5565C21.182 32.7823 21.1921 33.0187 21.2649 33.2391C21.4046 33.6623 21.269 33.7853 21.0484 33.9194C20.8282 34.0533 20.5739 34.115 20.2167 33.7892L7.01357 20.464C4.25726 17.6814 4.25745 13.192 7.01357 10.4103C8.39165 9.01909 10.1847 8.32373 11.9778 8.32373ZM27.9934 8.32373C29.7864 8.32373 31.5795 9.01909 32.9576 10.4103C35.7139 13.1929 35.7137 17.6823 32.9576 20.464L31.7125 21.7205C31.7108 21.7189 31.7092 21.7173 31.7076 21.7157C31.7065 21.7151 31.7054 21.7146 31.7043 21.714L27.2203 17.2121C28.6293 17.1851 29.9951 16.7477 31.2209 15.8058C31.3526 15.7063 31.4632 15.5818 31.5464 15.4393C31.6297 15.2968 31.6839 15.1393 31.706 14.9758C31.728 14.8123 31.7175 14.646 31.675 14.4865C31.6325 14.3271 31.5588 14.1777 31.4583 14.0468C31.3578 13.916 31.2323 13.8064 31.0892 13.7243C30.9461 13.6421 30.7881 13.5892 30.6244 13.5684C30.4607 13.5476 30.2946 13.5595 30.1355 13.6032C29.9764 13.647 29.8275 13.7218 29.6975 13.8234C27.8295 15.2587 26.12 15.211 23.716 13.7469C23.4758 13.6008 23.1933 13.54 22.9142 13.5742C22.6351 13.6085 22.3757 13.7358 22.178 13.9357L19.7138 16.4227C18.467 17.6813 17.6855 17.4601 17.2951 17.1974C17.1 17.0661 17.0054 16.8921 16.9859 16.7645C16.9664 16.6369 16.9605 16.5364 17.178 16.3169L23.0292 10.4103C24.4073 9.01909 26.2003 8.32373 27.9934 8.32373Z" fill="#399977"/>
</svg>
