<svg width="60" height="60" viewBox="0 0 60 60" fill="none" xmlns="http://www.w3.org/2000/svg">
<path d="M30 5C16.2151 5 5 16.2151 5 30C5 43.7849 16.2151 55 30 55C43.7849 55 55 43.7849 55 30C55 16.2151 43.7849 5 30 5ZM30 8.75C41.7583 8.75 51.25 18.2417 51.25 30C51.25 41.7583 41.7583 51.25 30 51.25C18.2417 51.25 8.75 41.7583 8.75 30C8.75 18.2417 18.2417 8.75 30 8.75ZM22.5 20.625C21.6712 20.625 20.8763 20.9542 20.2903 21.5403C19.7042 22.1263 19.375 22.9212 19.375 23.75C19.375 24.5788 19.7042 25.3737 20.2903 25.9597C20.8763 26.5458 21.6712 26.875 22.5 26.875C23.3288 26.875 24.1237 26.5458 24.7097 25.9597C25.2958 25.3737 25.625 24.5788 25.625 23.75C25.625 22.9212 25.2958 22.1263 24.7097 21.5403C24.1237 20.9542 23.3288 20.625 22.5 20.625ZM37.5 20.625C36.6712 20.625 35.8763 20.9542 35.2903 21.5403C34.7042 22.1263 34.375 22.9212 34.375 23.75C34.375 24.5788 34.7042 25.3737 35.2903 25.9597C35.8763 26.5458 36.6712 26.875 37.5 26.875C38.3288 26.875 39.1237 26.5458 39.7097 25.9597C40.2958 25.3737 40.625 24.5788 40.625 23.75C40.625 22.9212 40.2958 22.1263 39.7097 21.5403C39.1237 20.9542 38.3288 20.625 37.5 20.625ZM19.7168 34.9805C19.3601 34.9745 19.0091 35.0704 18.705 35.257C18.4009 35.4435 18.1564 35.7129 18 36.0335C17.8437 36.3542 17.782 36.7128 17.8223 37.0672C17.8626 37.4217 18.0032 37.7573 18.2275 38.0347C20.9704 41.5204 25.2412 43.75 30 43.75C34.7588 43.75 39.0296 41.5204 41.7725 38.0347C41.9287 37.8416 42.0449 37.6194 42.1145 37.381C42.1842 37.1426 42.2057 36.8927 42.178 36.6459C42.1503 36.3991 42.0738 36.1603 41.953 35.9433C41.8322 35.7263 41.6695 35.5354 41.4743 35.3818C41.2791 35.2282 41.0554 35.1149 40.8161 35.0485C40.5768 34.9821 40.3267 34.9638 40.0803 34.9949C39.8339 35.0259 39.5961 35.1055 39.3807 35.2292C39.1653 35.3529 38.9767 35.5181 38.8257 35.7153C36.7686 38.3296 33.5912 40 30 40C26.4088 40 23.2314 38.3296 21.1743 35.7153C21.0025 35.4909 20.7821 35.3082 20.5297 35.181C20.2773 35.0537 19.9994 34.9852 19.7168 34.9805Z" fill="#399977"/>
</svg>
