<svg width="60" height="60" viewBox="0 0 60 60" fill="none" xmlns="http://www.w3.org/2000/svg">
<path d="M9.3459 7.47337C8.84904 7.48114 8.37558 7.68579 8.02951 8.04239C7.68344 8.39899 7.49307 8.87836 7.50019 9.37523V50.6252C7.50024 51.1225 7.6978 51.5994 8.04942 51.951C8.40104 52.3026 8.87793 52.5002 9.37519 52.5002H50.6252C50.8737 52.5037 51.1203 52.4578 51.3509 52.3652C51.5815 52.2725 51.7913 52.135 51.9683 51.9605C52.1452 51.7861 52.2857 51.5782 52.3816 51.349C52.4775 51.1197 52.5269 50.8737 52.5269 50.6252C52.5269 50.3767 52.4775 50.1307 52.3816 49.9015C52.2857 49.6723 52.1452 49.4644 51.9683 49.2899C51.7913 49.1155 51.5815 48.9779 51.3509 48.8853C51.1203 48.7926 50.8737 48.7467 50.6252 48.7502H11.2502V9.37523C11.2538 9.12427 11.207 8.87515 11.1125 8.64262C11.0181 8.41008 10.8779 8.19888 10.7003 8.02152C10.5227 7.84417 10.3113 7.70426 10.0787 7.6101C9.84604 7.51595 9.59685 7.46945 9.3459 7.47337ZM28.1252 11.2502C26.4064 11.2502 24.88 11.9623 23.9113 13.052C22.9427 14.1417 22.5002 15.5211 22.5002 16.8752C22.5002 18.2294 22.9427 19.6088 23.9113 20.6985C24.88 21.7882 26.4064 22.5002 28.1252 22.5002C29.8439 22.5002 31.3704 21.7882 32.3391 20.6985C33.3077 19.6088 33.7502 18.2294 33.7502 16.8752C33.7502 15.5211 33.3077 14.1417 32.3391 13.052C31.3704 11.9623 29.8439 11.2502 28.1252 11.2502ZM18.1252 15.0002C17.6279 15.0002 17.151 15.1978 16.7994 15.5494C16.4477 15.901 16.2502 16.3779 16.2502 16.8752C16.2502 17.3725 16.4477 17.8494 16.7994 18.2011C17.151 18.5527 17.6279 18.7502 18.1252 18.7502C18.6225 18.7502 19.0994 18.5527 19.451 18.2011C19.8026 17.8494 20.0002 17.3725 20.0002 16.8752C20.0002 16.3779 19.8026 15.901 19.451 15.5494C19.0994 15.1978 18.6225 15.0002 18.1252 15.0002ZM28.1252 15.0002C28.9064 15.0002 29.255 15.2257 29.5363 15.5422C29.8177 15.8588 30.0002 16.3544 30.0002 16.8752C30.0002 17.3961 29.8177 17.8917 29.5363 18.2082C29.255 18.5248 28.9064 18.7502 28.1252 18.7502C27.3439 18.7502 26.9954 18.5248 26.7141 18.2082C26.4327 17.8917 26.2502 17.3961 26.2502 16.8752C26.2502 16.3544 26.4327 15.8588 26.7141 15.5422C26.9954 15.2257 27.3439 15.0002 28.1252 15.0002ZM38.1252 15.0002C37.6279 15.0002 37.151 15.1978 36.7994 15.5494C36.4477 15.901 36.2502 16.3779 36.2502 16.8752C36.2502 17.3725 36.4477 17.8494 36.7994 18.2011C37.151 18.5527 37.6279 18.7502 38.1252 18.7502C38.6225 18.7502 39.0994 18.5527 39.451 18.2011C39.8026 17.8494 40.0002 17.3725 40.0002 16.8752C40.0002 16.3779 39.8026 15.901 39.451 15.5494C39.0994 15.1978 38.6225 15.0002 38.1252 15.0002ZM48.1252 15.0002C47.6279 15.0002 47.151 15.1978 46.7994 15.5494C46.4477 15.901 46.2502 16.3779 46.2502 16.8752C46.2502 17.3725 46.4477 17.8494 46.7994 18.2011C47.151 18.5527 47.6279 18.7502 48.1252 18.7502C48.6225 18.7502 49.0994 18.5527 49.451 18.2011C49.8027 17.8494 50.0002 17.3725 50.0002 16.8752C50.0002 16.3779 49.8027 15.901 49.451 15.5494C49.0994 15.1978 48.6225 15.0002 48.1252 15.0002ZM48.1252 22.5002C46.4064 22.5002 44.88 23.2123 43.9113 24.302C42.9427 25.3917 42.5002 26.7711 42.5002 28.1252C42.5002 29.4794 42.9427 30.8588 43.9113 31.9485C44.88 33.0382 46.4064 33.7502 48.1252 33.7502C49.8439 33.7502 51.3704 33.0382 52.3391 31.9485C53.3077 30.8588 53.7502 29.4794 53.7502 28.1252C53.7502 26.7711 53.3077 25.3917 52.3391 24.302C51.3704 23.2123 49.8439 22.5002 48.1252 22.5002ZM18.1252 26.2502C17.6279 26.2502 17.151 26.4478 16.7994 26.7994C16.4477 27.151 16.2502 27.6279 16.2502 28.1252C16.2502 28.6225 16.4477 29.0994 16.7994 29.4511C17.151 29.8027 17.6279 30.0002 18.1252 30.0002C18.6225 30.0002 19.0994 29.8027 19.451 29.4511C19.8026 29.0994 20.0002 28.6225 20.0002 28.1252C20.0002 27.6279 19.8026 27.151 19.451 26.7994C19.0994 26.4478 18.6225 26.2502 18.1252 26.2502ZM28.1252 26.2502C27.6279 26.2502 27.151 26.4478 26.7994 26.7994C26.4477 27.151 26.2502 27.6279 26.2502 28.1252C26.2502 28.6225 26.4477 29.0994 26.7994 29.4511C27.151 29.8027 27.6279 30.0002 28.1252 30.0002C28.6225 30.0002 29.0994 29.8027 29.451 29.4511C29.8026 29.0994 30.0002 28.6225 30.0002 28.1252C30.0002 27.6279 29.8026 27.151 29.451 26.7994C29.0994 26.4478 28.6225 26.2502 28.1252 26.2502ZM38.1252 26.2502C37.6279 26.2502 37.151 26.4478 36.7994 26.7994C36.4477 27.151 36.2502 27.6279 36.2502 28.1252C36.2502 28.6225 36.4477 29.0994 36.7994 29.4511C37.151 29.8027 37.6279 30.0002 38.1252 30.0002C38.6225 30.0002 39.0994 29.8027 39.451 29.4511C39.8026 29.0994 40.0002 28.6225 40.0002 28.1252C40.0002 27.6279 39.8026 27.151 39.451 26.7994C39.0994 26.4478 38.6225 26.2502 38.1252 26.2502ZM48.1252 26.2502C48.9064 26.2502 49.255 26.4757 49.5363 26.7922C49.8177 27.1088 50.0002 27.6044 50.0002 28.1252C50.0002 28.6461 49.8177 29.1417 49.5363 29.4582C49.255 29.7748 48.9064 30.0002 48.1252 30.0002C47.3439 30.0002 46.9954 29.7748 46.7141 29.4582C46.4327 29.1417 46.2502 28.6461 46.2502 28.1252C46.2502 27.6044 46.4327 27.1088 46.7141 26.7922C46.9954 26.4757 47.3439 26.2502 48.1252 26.2502ZM38.1252 33.7502C36.4064 33.7502 34.88 34.4623 33.9113 35.552C32.9427 36.6417 32.5002 38.0211 32.5002 39.3752C32.5002 40.7294 32.9427 42.1088 33.9113 43.1985C34.88 44.2882 36.4064 45.0002 38.1252 45.0002C39.8439 45.0002 41.3704 44.2882 42.3391 43.1985C43.3077 42.1088 43.7502 40.7294 43.7502 39.3752C43.7502 38.0211 43.3077 36.6417 42.3391 35.552C41.3704 34.4623 39.8439 33.7502 38.1252 33.7502ZM18.1252 37.5002C17.6279 37.5002 17.151 37.6978 16.7994 38.0494C16.4477 38.401 16.2502 38.8779 16.2502 39.3752C16.2502 39.8725 16.4477 40.3494 16.7994 40.7011C17.151 41.0527 17.6279 41.2502 18.1252 41.2502C18.6225 41.2502 19.0994 41.0527 19.451 40.7011C19.8026 40.3494 20.0002 39.8725 20.0002 39.3752C20.0002 38.8779 19.8026 38.401 19.451 38.0494C19.0994 37.6978 18.6225 37.5002 18.1252 37.5002ZM28.1252 37.5002C27.6279 37.5002 27.151 37.6978 26.7994 38.0494C26.4477 38.401 26.2502 38.8779 26.2502 39.3752C26.2502 39.8725 26.4477 40.3494 26.7994 40.7011C27.151 41.0527 27.6279 41.2502 28.1252 41.2502C28.6225 41.2502 29.0994 41.0527 29.451 40.7011C29.8026 40.3494 30.0002 39.8725 30.0002 39.3752C30.0002 38.8779 29.8026 38.401 29.451 38.0494C29.0994 37.6978 28.6225 37.5002 28.1252 37.5002ZM38.1252 37.5002C38.9064 37.5002 39.255 37.7257 39.5363 38.0422C39.8177 38.3588 40.0002 38.8544 40.0002 39.3752C40.0002 39.8961 39.8177 40.3917 39.5363 40.7082C39.255 41.0248 38.9064 41.2502 38.1252 41.2502C37.3439 41.2502 36.9954 41.0248 36.7141 40.7082C36.4327 40.3917 36.2502 39.8961 36.2502 39.3752C36.2502 38.8544 36.4327 38.3588 36.7141 38.0422C36.9954 37.7257 37.3439 37.5002 38.1252 37.5002ZM48.1252 37.5002C47.6279 37.5002 47.151 37.6978 46.7994 38.0494C46.4477 38.401 46.2502 38.8779 46.2502 39.3752C46.2502 39.8725 46.4477 40.3494 46.7994 40.7011C47.151 41.0527 47.6279 41.2502 48.1252 41.2502C48.6225 41.2502 49.0994 41.0527 49.451 40.7011C49.8027 40.3494 50.0002 39.8725 50.0002 39.3752C50.0002 38.8779 49.8027 38.401 49.451 38.0494C49.0994 37.6978 48.6225 37.5002 48.1252 37.5002Z" fill="#399977"/>
</svg>
