<svg width="24" height="24" viewBox="0 0 24 24" fill="none" xmlns="http://www.w3.org/2000/svg">
<path d="M12 2C6.477 2 2 6.477 2 12C2 17.523 6.477 22 12 22C17.523 22 22 17.523 22 12C22 6.477 17.523 2 12 2Z" fill="#399977"/>
<path d="M15.7808 15.7802C16.0738 15.4872 16.0738 15.0127 15.7808 14.7197L13.0608 12.0002L15.7803 9.28074C16.0732 8.98774 16.0732 8.51324 15.7803 8.22024C15.4872 7.92724 15.0128 7.92724 14.7197 8.22024L12.0003 10.9397L9.28075 8.22024C8.98775 7.92724 8.51325 7.92724 8.22025 8.22024C7.92725 8.51324 7.92725 8.98774 8.22025 9.28074L10.9398 12.0002L8.21975 14.7202C7.92675 15.0132 7.92675 15.4877 8.21975 15.7807C8.36625 15.9272 8.55825 16.0002 8.75025 16.0002C8.94225 16.0002 9.13425 15.9272 9.28075 15.7802L12.0003 13.0607L14.7197 15.7807C14.8663 15.9272 15.0583 16.0002 15.2503 16.0002C15.4423 16.0002 15.6343 15.9272 15.7808 15.7802Z" fill="white"/>
</svg>
