<svg width="60" height="60" viewBox="0 0 60 60" fill="none" xmlns="http://www.w3.org/2000/svg">
<path d="M46.875 6.25C45.1562 6.25 43.6298 6.96204 42.6611 8.05176C42.1436 8.63394 41.7875 9.30048 41.5576 10H22.1875C18.3514 10 14.969 11.996 13.0176 15.0049C11.3433 15.0342 9.85928 15.7351 8.91113 16.8018C7.9425 17.8915 7.5 19.2708 7.5 20.625C7.5 21.9792 7.9425 23.3585 8.91113 24.4482C9.78663 25.4332 11.1197 26.1046 12.6367 26.2256C14.5046 29.5899 18.0847 31.875 22.1875 31.875H37.8125C40.0049 31.875 41.9452 32.8561 43.2593 34.3896C43.0495 34.5602 42.8365 34.7294 42.6611 34.9268C41.6925 36.0165 41.25 37.3958 41.25 38.75C41.25 40.1042 41.6925 41.4835 42.6611 42.5732C42.921 42.8656 43.2264 43.1254 43.5596 43.3569C42.2526 45.1057 40.1796 46.25 37.8125 46.25H18.4424C18.2125 45.5505 17.8564 44.8839 17.3389 44.3018C16.3702 43.212 14.8438 42.5 13.125 42.5C11.4063 42.5 9.87977 43.212 8.91113 44.3018C7.9425 45.3915 7.5 46.7708 7.5 48.125C7.5 49.4792 7.9425 50.8585 8.91113 51.9482C9.87977 53.038 11.4063 53.75 13.125 53.75C14.8438 53.75 16.3702 53.038 17.3389 51.9482C17.8564 51.3661 18.2125 50.6995 18.4424 50H37.8125C41.9153 50 45.4967 47.7162 47.3657 44.3506C48.8817 44.2291 50.2138 43.5577 51.0889 42.5732C52.0575 41.4835 52.5 40.1042 52.5 38.75C52.5 37.3958 52.0575 36.0165 51.0889 34.9268C50.1407 33.8601 48.6567 33.1592 46.9824 33.1299C45.031 30.121 41.6486 28.125 37.8125 28.125H22.1875C19.8204 28.125 17.7485 26.9814 16.4404 25.2319C16.7736 25.0004 17.079 24.7406 17.3389 24.4482C18.3075 23.3585 18.75 21.9792 18.75 20.625C18.75 19.2708 18.3075 17.8915 17.3389 16.8018C17.1635 16.6044 16.9505 16.4352 16.7407 16.2646C18.0548 14.7311 19.9951 13.75 22.1875 13.75H41.5576C41.7875 14.4495 42.1436 15.1161 42.6611 15.6982C43.6298 16.788 45.1562 17.5 46.875 17.5C48.5938 17.5 50.1202 16.788 51.0889 15.6982C52.0575 14.6085 52.5 13.2292 52.5 11.875C52.5 10.5208 52.0575 9.14147 51.0889 8.05176C50.1202 6.96204 48.5938 6.25 46.875 6.25ZM46.875 10C47.6562 10 48.0048 10.2255 48.2861 10.542C48.5675 10.8585 48.75 11.3542 48.75 11.875C48.75 12.3958 48.5675 12.8915 48.2861 13.208C48.0048 13.5245 47.6562 13.75 46.875 13.75C46.0938 13.75 45.7452 13.5245 45.4639 13.208C45.217 12.9303 45.0528 12.5125 45.0146 12.063C45.0284 11.9364 45.0292 11.8088 45.0171 11.6821C45.0561 11.2345 45.2179 10.8187 45.4639 10.542C45.7452 10.2255 46.0938 10 46.875 10ZM13.125 18.75C13.9062 18.75 14.2548 18.9755 14.5361 19.292C14.8175 19.6085 15 20.1042 15 20.625C15 21.1458 14.8175 21.6415 14.5361 21.958C14.2548 22.2745 13.9062 22.5 13.125 22.5C12.3438 22.5 11.9952 22.2745 11.7139 21.958C11.4325 21.6415 11.25 21.1458 11.25 20.625C11.25 20.1042 11.4325 19.6085 11.7139 19.292C11.9952 18.9755 12.3438 18.75 13.125 18.75ZM46.875 36.875C47.6562 36.875 48.0048 37.1005 48.2861 37.417C48.5675 37.7335 48.75 38.2292 48.75 38.75C48.75 39.2708 48.5675 39.7665 48.2861 40.083C48.0048 40.3995 47.6562 40.625 46.875 40.625C46.0938 40.625 45.7452 40.3995 45.4639 40.083C45.1825 39.7665 45 39.2708 45 38.75C45 38.2292 45.1825 37.7335 45.4639 37.417C45.7452 37.1005 46.0938 36.875 46.875 36.875ZM13.125 46.25C13.9062 46.25 14.2548 46.4755 14.5361 46.792C14.783 47.0697 14.9472 47.4875 14.9854 47.937C14.9716 48.0636 14.9708 48.1912 14.9829 48.3179C14.9439 48.7655 14.7821 49.1813 14.5361 49.458C14.2548 49.7745 13.9062 50 13.125 50C12.3438 50 11.9952 49.7745 11.7139 49.458C11.4325 49.1415 11.25 48.6458 11.25 48.125C11.25 47.6042 11.4325 47.1085 11.7139 46.792C11.9952 46.4755 12.3438 46.25 13.125 46.25Z" fill="#399977"/>
</svg>
