<svg width="28" height="27" viewBox="0 0 28 27" fill="none" xmlns="http://www.w3.org/2000/svg">
<path d="M4.99984 0.333496C2.61855 0.333496 0.666504 2.28554 0.666504 4.66683V15.3335V19.3009C0.666504 20.6254 2.2879 21.4499 3.35921 20.672L6.06234 18.7059C6.40091 20.7601 8.18457 22.3335 10.3332 22.3335H18.6743L24.6405 26.672C24.9371 26.8874 25.2852 26.9976 25.6366 26.9976C25.8992 26.9976 26.1634 26.936 26.4074 26.8114C26.9787 26.5207 27.3332 25.9416 27.3332 25.3009V10.6668C27.3332 8.2775 25.3892 6.3335 22.9998 6.3335H21.9998V4.66683C21.9998 2.28554 20.0478 0.333496 17.6665 0.333496H4.99984ZM4.99984 2.3335H17.6665C18.9665 2.3335 19.9998 3.36679 19.9998 4.66683V12.0002C19.9998 13.3002 18.9665 14.3335 17.6665 14.3335H8.99984C8.78835 14.3335 8.5823 14.4005 8.4113 14.5249L2.6665 18.7033V15.3335V4.66683C2.6665 3.36679 3.6998 2.3335 4.99984 2.3335ZM6.99984 5.00016C6.86732 4.99829 6.73576 5.02277 6.61279 5.07218C6.48983 5.1216 6.3779 5.19496 6.28353 5.288C6.18917 5.38105 6.11423 5.49192 6.06308 5.61418C6.01193 5.73643 5.98559 5.86764 5.98559 6.00016C5.98559 6.13269 6.01193 6.26389 6.06308 6.38615C6.11423 6.50841 6.18917 6.61928 6.28353 6.71232C6.3779 6.80537 6.48983 6.87873 6.61279 6.92814C6.73576 6.97756 6.86732 7.00204 6.99984 7.00016H15.6665C15.799 7.00204 15.9306 6.97756 16.0535 6.92814C16.1765 6.87873 16.2884 6.80537 16.3828 6.71232C16.4772 6.61928 16.5521 6.50841 16.6033 6.38615C16.6544 6.26389 16.6807 6.13269 16.6807 6.00016C16.6807 5.86764 16.6544 5.73643 16.6033 5.61418C16.5521 5.49192 16.4772 5.38105 16.3828 5.288C16.2884 5.19496 16.1765 5.1216 16.0535 5.07218C15.9306 5.02277 15.799 4.99829 15.6665 5.00016H6.99984ZM21.9998 8.3335H22.9998C24.2865 8.3335 25.3332 9.38016 25.3332 10.6668V24.7033L19.5884 20.5249C19.4177 20.4009 19.2112 20.3335 18.9998 20.3335H10.3332C9.0465 20.3335 7.99984 19.2868 7.99984 18.0002V17.297L9.32536 16.3335H17.6665C20.0478 16.3335 21.9998 14.3815 21.9998 12.0002V8.3335ZM6.99984 9.66683C6.86732 9.66496 6.73576 9.68944 6.61279 9.73885C6.48983 9.78827 6.3779 9.86163 6.28353 9.95467C6.18917 10.0477 6.11423 10.1586 6.06308 10.2808C6.01193 10.4031 5.98559 10.5343 5.98559 10.6668C5.98559 10.7994 6.01193 10.9306 6.06308 11.0528C6.11423 11.1751 6.18917 11.2859 6.28353 11.379C6.3779 11.472 6.48983 11.5454 6.61279 11.5948C6.73576 11.6442 6.86732 11.6687 6.99984 11.6668H13.6665C13.799 11.6687 13.9306 11.6442 14.0535 11.5948C14.1765 11.5454 14.2884 11.472 14.3828 11.379C14.4772 11.2859 14.5521 11.1751 14.6033 11.0528C14.6544 10.9306 14.6807 10.7994 14.6807 10.6668C14.6807 10.5343 14.6544 10.4031 14.6033 10.2808C14.5521 10.1586 14.4772 10.0477 14.3828 9.95467C14.2884 9.86163 14.1765 9.78827 14.0535 9.73885C13.9306 9.68944 13.799 9.66496 13.6665 9.66683H6.99984Z" fill="#399977"/>
</svg>
