<svg width="60" height="60" viewBox="0 0 60 60" fill="none" xmlns="http://www.w3.org/2000/svg">
<rect x="1" y="1" width="58" height="58" rx="29" stroke="#399977" stroke-width="2"/>
<path d="M29.4559 24.0002C29.5803 24.0003 29.7019 24.0374 29.805 24.1069C29.9082 24.1764 29.9883 24.2751 30.035 24.3904C30.0818 24.5056 30.0931 24.6322 30.0675 24.7539C30.0419 24.8757 29.9805 24.987 29.8913 25.0736L25.1249 29.8401H37.3661C37.4489 29.8389 37.5311 29.8542 37.608 29.8851C37.6849 29.916 37.7548 29.9618 37.8138 30.02C37.8728 30.0781 37.9196 30.1474 37.9516 30.2238C37.9835 30.3003 38 30.3823 38 30.4651C38 30.5479 37.9835 30.6299 37.9516 30.7063C37.9196 30.7827 37.8728 30.852 37.8138 30.9102C37.7548 30.9683 37.6849 31.0142 37.608 31.0451C37.5311 31.076 37.4489 31.0913 37.3661 31.0901H25.1249L29.8913 35.8565C29.9513 35.9141 29.9992 35.9831 30.0322 36.0594C30.0652 36.1358 30.0826 36.2179 30.0834 36.3011C30.0843 36.3842 30.0685 36.4667 30.0371 36.5437C30.0057 36.6207 29.9592 36.6906 29.9004 36.7494C29.8416 36.8082 29.7717 36.8547 29.6947 36.8861C29.6177 36.9175 29.5352 36.9333 29.4521 36.9324C29.3689 36.9316 29.2868 36.9142 29.2104 36.8812C29.1341 36.8482 29.0651 36.8003 29.0075 36.7403L23.1742 30.907C23.057 30.7898 22.9912 30.6308 22.9912 30.4651C22.9912 30.2994 23.057 30.1404 23.1742 30.0232L29.0075 24.1899C29.0658 24.1299 29.1355 24.0822 29.2125 24.0496C29.2895 24.017 29.3723 24.0002 29.4559 24.0002Z" fill="#399977" stroke="#399977"/>
</svg>
