<svg width="32" height="32" viewBox="0 0 32 32" fill="none" xmlns="http://www.w3.org/2000/svg">
<path d="M16.0007 2.66602C12.3306 2.66602 9.33398 5.66263 9.33398 9.33268C9.33398 13.0027 12.3306 15.9993 16.0007 15.9993C19.6707 15.9993 22.6673 13.0027 22.6673 9.33268C22.6673 5.66263 19.6707 2.66602 16.0007 2.66602ZM16.0007 4.66602C18.5898 4.66602 20.6673 6.74351 20.6673 9.33268C20.6673 11.9219 18.5898 13.9993 16.0007 13.9993C13.4115 13.9993 11.334 11.9219 11.334 9.33268C11.334 6.74351 13.4115 4.66602 16.0007 4.66602ZM19.334 17.3327C18.2293 17.3327 17.334 18.228 17.334 19.3327V28.666C17.334 29.7707 18.2293 30.666 19.334 30.666H28.6673C29.772 30.666 30.6673 29.7707 30.6673 28.666V19.3327C30.6673 18.228 29.772 17.3327 28.6673 17.3327H19.334ZM8.33398 18.666C6.67998 18.666 5.33398 20.012 5.33398 21.666V22.666C5.33398 26.404 10.0193 29.3327 16.0007 29.3327C16.0233 29.3327 16.0451 29.3301 16.0671 29.3301C16.0237 29.1154 16.0007 28.8934 16.0007 28.666V27.3327C11.3027 27.3327 7.33398 25.1953 7.33398 22.666V21.666C7.33398 21.1147 7.78265 20.666 8.33398 20.666H16.0007V19.3327C16.0007 19.104 16.0244 18.8813 16.0684 18.666H8.33398ZM22.334 21.3327H25.6673C26.22 21.3327 26.6673 21.7807 26.6673 22.3327C26.6673 22.8847 26.22 23.3327 25.6673 23.3327H22.334C21.7813 23.3327 21.334 22.8847 21.334 22.3327C21.334 21.7807 21.7813 21.3327 22.334 21.3327Z" fill="#399977"/>
</svg>
