<svg width="148" height="30" viewBox="0 0 148 30" fill="none" xmlns="http://www.w3.org/2000/svg">
<path d="M44.9222 18.1661L40.7034 4.90479H36.604L42.6296 22.3593H47.3853L53.4023 4.90479H49.3114L45.0841 18.1661H44.9222Z" fill="#99C254"/>
<path d="M60.0884 19.1207C59.9861 18.9332 59.935 18.6718 59.935 18.3366V11.9957H62.398V9.26842H59.935V6.13206H56.3043V9.26842H54.5145V11.9957H56.3043V18.8139C56.2986 19.6718 56.4776 20.3821 56.8412 20.9446C57.2049 21.5071 57.7134 21.9218 58.3668 22.1889C59.0259 22.4559 59.7929 22.5724 60.6679 22.5383C61.1395 22.5213 61.5401 22.473 61.8696 22.3934C62.1992 22.3196 62.4549 22.2542 62.6367 22.1974L62.0657 19.4957C61.9747 19.5127 61.8441 19.5383 61.6736 19.5724C61.5032 19.6008 61.3327 19.615 61.1622 19.615C60.9179 19.615 60.702 19.5781 60.5145 19.5042C60.3327 19.4304 60.1907 19.3025 60.0884 19.1207Z" fill="#99C254"/>
<path fill-rule="evenodd" clip-rule="evenodd" d="M70.5372 22.615C69.2134 22.615 68.0685 22.3338 67.1026 21.7713C66.1424 21.2031 65.4009 20.4133 64.8782 19.4019C64.3554 18.3849 64.0941 17.2059 64.0941 15.865C64.0941 14.5127 64.3554 13.3309 64.8782 12.3196C65.4009 11.3025 66.1424 10.5127 67.1026 9.95024C68.0685 9.38206 69.2134 9.09797 70.5372 9.09797C71.8611 9.09797 73.0032 9.38206 73.9634 9.95024C74.9293 10.5127 75.6736 11.3025 76.1963 12.3196C76.7191 13.3309 76.9804 14.5127 76.9804 15.865C76.9804 17.2059 76.7191 18.3849 76.1963 19.4019C75.6736 20.4133 74.9293 21.2031 73.9634 21.7713C73.0032 22.3338 71.8611 22.615 70.5372 22.615ZM70.5543 19.8025C71.1566 19.8025 71.6594 19.6321 72.0628 19.2911C72.4662 18.9446 72.7702 18.473 72.9747 17.8764C73.185 17.2798 73.2901 16.6008 73.2901 15.8394C73.2901 15.0781 73.185 14.3991 72.9747 13.8025C72.7702 13.2059 72.4662 12.7343 72.0628 12.3877C71.6594 12.0411 71.1566 11.8679 70.5543 11.8679C69.9463 11.8679 69.435 12.0411 69.0202 12.3877C68.6111 12.7343 68.3014 13.2059 68.0912 13.8025C67.8867 14.3991 67.7844 15.0781 67.7844 15.8394C67.7844 16.6008 67.8867 17.2798 68.0912 17.8764C68.3014 18.473 68.6111 18.9446 69.0202 19.2911C69.435 19.6321 69.9463 19.8025 70.5543 19.8025Z" fill="#99C254"/>
<path d="M84.1992 9.7116C83.6367 10.1264 83.2361 10.74 82.9975 11.5525H82.8611V9.26842H79.3412V22.3593H82.9719V14.9531C82.9719 14.419 83.0912 13.9474 83.3299 13.5383C83.5742 13.1292 83.9037 12.811 84.3185 12.5838C84.7389 12.3508 85.2162 12.2343 85.7503 12.2343C86.0003 12.2343 86.2759 12.2542 86.577 12.294C86.8782 12.3338 87.1139 12.3792 87.2844 12.4304V9.20876C87.1253 9.16899 86.9407 9.13774 86.7304 9.11501C86.5202 9.09229 86.3242 9.08092 86.1424 9.08092C85.4094 9.08092 84.7617 9.29115 84.1992 9.7116Z" fill="#99C254"/>
<path d="M115.276 7.04408C115.663 7.40203 116.126 7.58101 116.665 7.58101C117.205 7.58101 117.665 7.40203 118.046 7.04408C118.432 6.68044 118.626 6.24578 118.626 5.7401C118.626 5.2401 118.432 4.81112 118.046 4.45317C117.665 4.08953 117.205 3.90771 116.665 3.90771C116.126 3.90771 115.663 4.08953 115.276 4.45317C114.895 4.81112 114.705 5.2401 114.705 5.7401C114.705 6.24578 114.895 6.68044 115.276 7.04408Z" fill="#2B2E2E"/>
<path fill-rule="evenodd" clip-rule="evenodd" d="M99.769 15.9589C98.8259 16.4532 97.6838 16.7003 96.3429 16.7003H93.2406V22.3594H89.5503V4.90487H96.4367C97.7605 4.90487 98.8884 5.15772 99.8202 5.6634C100.752 6.1634 101.462 6.85942 101.951 7.75146C102.445 8.63783 102.692 9.66056 102.692 10.8196C102.692 11.9787 102.442 13.0015 101.942 13.8878C101.442 14.7742 100.718 15.4645 99.769 15.9589ZM97.502 13.3765C97.0418 13.6208 96.4565 13.7429 95.7463 13.7429H93.2406V7.92192H95.7293C96.4452 7.92192 97.0361 8.04408 97.502 8.2884C97.9679 8.52703 98.3145 8.8651 98.5418 9.3026C98.7747 9.73442 98.8912 10.2401 98.8912 10.8196C98.8912 11.3935 98.7747 11.902 98.5418 12.3452C98.3145 12.7827 97.9679 13.1265 97.502 13.3765Z" fill="#2B2E2E"/>
<path d="M109.01 13.5384C108.771 13.9475 108.652 14.4191 108.652 14.9532V22.3594H105.021V9.26851H108.541V11.5526H108.677C108.916 10.7401 109.317 10.1265 109.879 9.71169C110.442 9.29124 111.089 9.08101 111.822 9.08101C112.004 9.08101 112.2 9.09237 112.41 9.1151C112.621 9.13783 112.805 9.16908 112.964 9.20885V12.4304C112.794 12.3793 112.558 12.3339 112.257 12.2941C111.956 12.2543 111.68 12.2344 111.43 12.2344C110.896 12.2344 110.419 12.3509 109.998 12.5839C109.584 12.8111 109.254 13.1293 109.01 13.5384Z" fill="#2B2E2E"/>
<path d="M127.295 22.6151C125.954 22.6151 124.801 22.331 123.835 21.7628C122.875 21.189 122.136 20.3935 121.619 19.3765C121.108 18.3594 120.852 17.189 120.852 15.8651C120.852 14.5242 121.111 13.3481 121.628 12.3367C122.15 11.3196 122.892 10.527 123.852 9.95885C124.812 9.38499 125.954 9.09806 127.278 9.09806C128.42 9.09806 129.42 9.30544 130.278 9.72021C131.136 10.135 131.815 10.7174 132.315 11.4674C132.815 12.2174 133.091 13.0981 133.142 14.1094H129.716C129.619 13.456 129.364 12.9304 128.949 12.5327C128.54 12.1293 128.003 11.9276 127.338 11.9276C126.775 11.9276 126.284 12.081 125.864 12.3878C125.449 12.689 125.125 13.1293 124.892 13.7089C124.659 14.2884 124.542 14.9901 124.542 15.814C124.542 16.6492 124.656 17.3594 124.883 17.9446C125.116 18.5299 125.443 18.9759 125.864 19.2827C126.284 19.5895 126.775 19.7429 127.338 19.7429C127.753 19.7429 128.125 19.6577 128.454 19.4873C128.79 19.3168 129.065 19.0696 129.281 18.7458C129.503 18.4162 129.648 18.0214 129.716 17.5611H133.142C133.085 18.5611 132.812 19.4418 132.324 20.2032C131.841 20.9589 131.173 21.5498 130.321 21.9759C129.469 22.402 128.46 22.6151 127.295 22.6151Z" fill="#2B2E2E"/>
<path fill-rule="evenodd" clip-rule="evenodd" d="M137.955 21.7969C138.927 22.3424 140.086 22.6151 141.432 22.6151C142.512 22.6151 143.464 22.4503 144.288 22.1208C145.117 21.7856 145.793 21.3196 146.316 20.7231C146.844 20.1208 147.194 19.4162 147.364 18.6094L144.006 18.3878C143.881 18.7174 143.699 18.9958 143.461 19.2231C143.222 19.4503 142.935 19.6208 142.6 19.7344C142.265 19.8481 141.895 19.9049 141.492 19.9049C140.884 19.9049 140.359 19.777 139.915 19.5214C139.472 19.2657 139.128 18.902 138.884 18.4304C138.645 17.9589 138.526 17.3992 138.526 16.7515V16.7429H147.441V15.7458C147.441 14.6321 147.285 13.6606 146.972 12.831C146.66 11.9958 146.222 11.3026 145.66 10.7515C145.103 10.2003 144.449 9.7884 143.699 9.51567C142.955 9.23726 142.151 9.09806 141.288 9.09806C140.003 9.09806 138.884 9.38215 137.93 9.95033C136.981 10.5185 136.245 11.3111 135.722 12.3282C135.199 13.3452 134.938 14.527 134.938 15.8736C134.938 17.2543 135.199 18.4503 135.722 19.4617C136.245 20.4674 136.989 21.2458 137.955 21.7969ZM138.53 14.4929C138.551 14.0229 138.672 13.5939 138.893 13.206C139.131 12.7799 139.461 12.4418 139.881 12.1918C140.307 11.9361 140.796 11.8083 141.347 11.8083C141.876 11.8083 142.339 11.9248 142.736 12.1577C143.14 12.385 143.455 12.7003 143.682 13.1037C143.91 13.5071 144.023 13.9702 144.023 14.4929H138.53Z" fill="#2B2E2E"/>
<path d="M114.841 9.26851V22.3594H118.472V9.26851H114.841Z" fill="#2B2E2E"/>
<path d="M8.14252 10.3594L2.56439 13.6406L4.01752 14.5312L0.83002 20.1094C-0.0957606 21.6797 -0.306698 23.4082 0.501895 24.7969C1.31049 26.1855 2.90424 26.8594 4.67377 26.8594H12.0331V23.8594H4.67377C3.58979 23.8594 3.20893 23.5195 3.08002 23.2969C2.95111 23.0742 2.83393 22.5879 3.40814 21.6094H3.45502L6.59564 16.125L8.14252 17.1094V10.3594Z" fill="#BF3D3A"/>
<path d="M26.8457 16.0312L24.2207 17.5781L26.6582 21.6094V21.6562C27.209 22.5352 27.1328 22.9922 26.9863 23.25C26.8398 23.5078 26.4473 23.8594 25.3926 23.8594H19.5332V21.6094L13.5332 25.3594L19.5332 29.1094V26.8594H25.3926C27.1855 26.8594 28.8203 26.1445 29.6113 24.75C30.3965 23.373 30.1562 21.6152 29.2363 20.1094H29.1895V20.0625L26.8457 16.0312Z" fill="#2D3857"/>
<path d="M15.127 0C13.5508 0 12.1152 1.04297 11.1895 2.53125L8.33008 7.35938L10.9082 8.85938L13.7676 4.125C14.3418 3.21094 14.8281 3 15.127 3C15.4258 3 15.8652 3.21094 16.4395 4.125L19.8613 9.89062L18.3145 10.8281L24.0332 14.1094V7.35938L22.4395 8.34375L19.0176 2.53125C18.0918 1.04297 16.7031 0 15.127 0Z" fill="#399977"/>
</svg>
