<svg width="40" height="40" viewBox="0 0 40 40" fill="none" xmlns="http://www.w3.org/2000/svg">
<path d="M5.39623 31.6667C4.46227 31.6667 3.66246 31.34 2.99679 30.6867C2.33113 30.0333 1.99887 29.2489 2 28.3333V8.33334C2 7.41667 2.33283 6.63167 2.99849 5.97834C3.66415 5.325 4.4634 4.99889 5.39623 5H15.5849L18.9811 8.33334H32.566C33.5 8.33334 34.2998 8.66 34.9655 9.31334C35.6311 9.96667 35.9634 10.7511 35.9623 11.6667V16.3333H32.566V11.6667H5.39623V28.3333H18.9811V31.6667H5.39623ZM29.6792 22.5417L31.5047 24.3333L24.9245 30.75V32.5H26.7075L33.2877 26.0833L35.0708 27.8333L27.7689 35H22.3774V29.7083L29.6792 22.5417ZM35.0708 27.8333L29.6792 22.5417L32.1415 20.125C32.4528 19.8194 32.8491 19.6667 33.3302 19.6667C33.8113 19.6667 34.2075 19.8194 34.5189 20.125L37.533 23.0833C37.8443 23.3889 38 23.7778 38 24.25C38 24.7222 37.8443 25.1111 37.533 25.4167L35.0708 27.8333Z" fill="#399977"/>
</svg>
