<svg width="24" height="24" viewBox="0 0 24 24" fill="none" xmlns="http://www.w3.org/2000/svg">
<path d="M21.6631 9.93956L13.9026 2.30456C13.3691 1.77956 12.6686 1.49506 11.9146 1.50006C11.1661 1.50606 10.4646 1.80356 9.93959 2.33706L2.30459 10.0976C1.78009 10.6311 1.49409 11.3371 1.50009 12.0856C1.50609 12.8341 1.80359 13.5356 2.33709 14.0606L10.0976 21.6956C10.6256 22.2151 11.3226 22.5001 12.0626 22.5001C12.0706 22.5001 12.0781 22.5001 12.0861 22.5001C12.8346 22.4941 13.5361 22.1966 14.0611 21.6631L21.6961 13.9026C22.2211 13.3691 22.5071 12.6631 22.5006 11.9141C22.4941 11.1651 22.1966 10.4646 21.6631 9.93956Z" fill="#F5F7F7"/>
<path d="M12.5308 17.2805L15.5308 14.2805C15.8233 13.9875 15.8233 13.5125 15.5298 13.22C15.2368 12.927 14.7623 12.927 14.4693 13.22L12.7498 14.9395V7.25C12.7498 6.8355 12.4143 6.5 11.9998 6.5C11.5853 6.5 11.2498 6.8355 11.2498 7.25V14.9395L9.53025 13.22C9.23725 12.927 8.76275 12.927 8.46975 13.22C8.17675 13.5125 8.17675 13.988 8.46975 14.2805L11.4697 17.2805C11.6163 17.427 11.8083 17.5 12.0003 17.5C12.1923 17.5 12.3843 17.427 12.5308 17.2805Z" fill="#C1C6C7"/>
</svg>
