<svg width="42" height="42" viewBox="0 0 42 42" fill="none" xmlns="http://www.w3.org/2000/svg">
<path d="M17.5 29.75H24.5M24.5 29.75V8.75H3.5V29.75H8.75M24.5 29.75H26.25M35 29.75H38.5V23.905C38.5007 22.9855 38.3203 22.0748 37.969 21.2251C37.6176 20.3753 37.1023 19.6031 36.4525 18.9525L33.25 15.75H24.5" stroke="#399977" stroke-width="2" stroke-linecap="round" stroke-linejoin="round"/>
<path d="M13.125 35C15.5412 35 17.5 33.0412 17.5 30.625C17.5 28.2088 15.5412 26.25 13.125 26.25C10.7088 26.25 8.75 28.2088 8.75 30.625C8.75 33.0412 10.7088 35 13.125 35Z" stroke="#399977" stroke-width="2" stroke-linecap="round" stroke-linejoin="round"/>
<path d="M30.625 35C33.0412 35 35 33.0412 35 30.625C35 28.2088 33.0412 26.25 30.625 26.25C28.2088 26.25 26.25 28.2088 26.25 30.625C26.25 33.0412 28.2088 35 30.625 35Z" stroke="#399977" stroke-width="2" stroke-linecap="round" stroke-linejoin="round"/>
</svg>
