<svg width="33" height="32" viewBox="0 0 33 32" fill="none" xmlns="http://www.w3.org/2000/svg">
<path d="M16.4997 1.33398C12.8296 1.33398 9.83301 4.3306 9.83301 8.00065C9.83301 11.6707 12.8296 14.6673 16.4997 14.6673C20.1697 14.6673 23.1663 11.6707 23.1663 8.00065C23.1663 4.3306 20.1697 1.33398 16.4997 1.33398ZM16.4997 3.33398C19.0889 3.33398 21.1663 5.41148 21.1663 8.00065C21.1663 10.5898 19.0889 12.6673 16.4997 12.6673C13.9105 12.6673 11.833 10.5898 11.833 8.00065C11.833 5.41148 13.9105 3.33398 16.4997 3.33398ZM8.48535 17.334C7.03214 17.334 5.83301 18.5331 5.83301 19.9863V21.0007C5.83301 23.4034 7.35252 25.2621 9.37077 26.3757C11.389 27.4892 13.9451 28.0006 16.4997 28.0006C19.0543 28.0006 21.6103 27.4892 23.6286 26.3757C25.3494 25.4262 26.6446 23.9091 27.0075 22.0007H27.1676V19.9863C27.1676 18.5331 25.9672 17.334 24.514 17.334H8.48535ZM8.48535 19.334H14.9606L15.9281 21.429L14.1702 25.8249C12.731 25.6111 11.389 25.2061 10.3369 24.6257C8.73016 23.7392 7.83301 22.5979 7.83301 21.0007V19.9863C7.83301 19.6142 8.11322 19.334 8.48535 19.334ZM18.0387 19.334H24.514C24.8861 19.334 25.1676 19.6142 25.1676 19.9863V20.0007H25.1663V21.0007C25.1663 22.5979 24.2692 23.7392 22.6624 24.6257C21.6103 25.2061 20.2684 25.6111 18.8291 25.8249L17.0713 21.429L18.0387 19.334Z" fill="#399977"/>
</svg>
