<svg width="60" height="60" viewBox="0 0 60 60" fill="none" xmlns="http://www.w3.org/2000/svg">
<path d="M42.5 5C35.6336 5 30 10.5367 30 17.3486C30 20.4079 31.1422 23.2203 33.0078 25.3711L33.0176 25.3809L33.0249 25.3906C33.0249 25.3906 37.9093 30.9042 39.7998 32.6807C41.3044 34.0953 43.6956 34.0953 45.2002 32.6807C47.3172 30.6901 51.98 25.3857 51.98 25.3857L51.9873 25.3784L51.9922 25.3711C53.8559 23.2209 55 20.4089 55 17.3486C55 10.5367 49.3664 5 42.5 5ZM42.5 8.75C47.3686 8.75 51.25 12.5931 51.25 17.3486C51.25 19.4789 50.4667 21.4036 49.1626 22.9102C49.1614 22.9115 49.1614 22.9137 49.1602 22.915C49.1409 22.9367 44.2791 28.3999 42.6318 29.9487C42.5464 30.0291 42.456 30.0291 42.3706 29.9487H42.3682V29.9463C41.0261 28.6851 35.856 22.926 35.8374 22.9053C34.5348 21.3998 33.75 19.4755 33.75 17.3486C33.75 12.5931 37.6314 8.75 42.5 8.75ZM23.0957 9.97314C22.6178 9.98134 22.1611 10.1717 21.8188 10.5054L8.27148 20.3589C7.78648 20.7114 7.5 21.275 7.5 21.875V48.125C7.5 48.83 7.8942 49.4774 8.52295 49.7974C8.7917 49.9336 9.085 50 9.375 50C9.76375 50 10.1523 49.8786 10.4785 49.6411L23.125 40.4443L35.7715 49.6411C36.429 50.1199 37.3198 50.1199 37.9785 49.6411L51.7285 39.6411C52.2135 39.2886 52.5 38.725 52.5 38.125V28.5596C51.4575 29.7208 50.015 31.3079 48.75 32.6416V37.1704L38.75 44.4434V35.1685C37.415 33.8135 35.7425 32.0928 35 31.2891V44.4434L25 37.1704V15.5566L27.5024 17.3755C27.5024 17.3655 27.5 17.3586 27.5 17.3486C27.5 15.9024 27.7191 14.5073 28.1104 13.1836L24.4507 10.5225C24.4474 10.5192 24.4442 10.5159 24.4409 10.5127C24.2637 10.338 24.0535 10.2003 23.8225 10.1077C23.5916 10.0151 23.3445 9.96933 23.0957 9.97314ZM42.5 14.375C41.6712 14.375 40.8763 14.7042 40.2903 15.2903C39.7042 15.8763 39.375 16.6712 39.375 17.5C39.375 18.3288 39.7042 19.1237 40.2903 19.7097C40.8763 20.2958 41.6712 20.625 42.5 20.625C43.3288 20.625 44.1237 20.2958 44.7097 19.7097C45.2958 19.1237 45.625 18.3288 45.625 17.5C45.625 16.6712 45.2958 15.8763 44.7097 15.2903C44.1237 14.7042 43.3288 14.375 42.5 14.375ZM21.25 15.5566V37.1704L11.25 44.4434V22.8296L21.25 15.5566ZM38.75 33.75C38.73 33.7362 38.735 33.7576 38.75 33.7964V33.75Z" fill="#399977"/>
</svg>
