<svg width="24" height="24" viewBox="0 0 24 24" fill="none" xmlns="http://www.w3.org/2000/svg">
<path d="M2.00008 7.5001C1.86757 7.49823 1.73601 7.52271 1.61304 7.57212C1.49007 7.62153 1.37815 7.6949 1.28378 7.78794C1.18941 7.88098 1.11447 7.99186 1.06333 8.11411C1.01218 8.23637 0.98584 8.36757 0.98584 8.5001C0.98584 8.63263 1.01218 8.76383 1.06333 8.88609C1.11447 9.00834 1.18941 9.11922 1.28378 9.21226C1.37815 9.3053 1.49007 9.37867 1.61304 9.42808C1.73601 9.47749 1.86757 9.50197 2.00008 9.5001H22.0001C22.1326 9.50197 22.2642 9.47749 22.3871 9.42808C22.5101 9.37867 22.622 9.3053 22.7164 9.21226C22.8108 9.11922 22.8857 9.00834 22.9368 8.88609C22.988 8.76383 23.0143 8.63263 23.0143 8.5001C23.0143 8.36757 22.988 8.23637 22.9368 8.11411C22.8857 7.99186 22.8108 7.88098 22.7164 7.78794C22.622 7.6949 22.5101 7.62153 22.3871 7.57212C22.2642 7.52271 22.1326 7.49823 22.0001 7.5001H2.00008ZM2.00008 14.5001C1.86757 14.4982 1.73601 14.5227 1.61304 14.5721C1.49007 14.6215 1.37815 14.6949 1.28378 14.7879C1.18941 14.881 1.11447 14.9919 1.06333 15.1141C1.01218 15.2364 0.98584 15.3676 0.98584 15.5001C0.98584 15.6326 1.01218 15.7638 1.06333 15.8861C1.11447 16.0083 1.18941 16.1192 1.28378 16.2123C1.37815 16.3053 1.49007 16.3787 1.61304 16.4281C1.73601 16.4775 1.86757 16.502 2.00008 16.5001H22.0001C22.1326 16.502 22.2642 16.4775 22.3871 16.4281C22.5101 16.3787 22.622 16.3053 22.7164 16.2123C22.8108 16.1192 22.8857 16.0083 22.9368 15.8861C22.988 15.7638 23.0143 15.6326 23.0143 15.5001C23.0143 15.3676 22.988 15.2364 22.9368 15.1141C22.8857 14.9919 22.8108 14.881 22.7164 14.7879C22.622 14.6949 22.5101 14.6215 22.3871 14.5721C22.2642 14.5227 22.1326 14.4982 22.0001 14.5001H2.00008Z" fill="#399977"/>
</svg>
