<svg width="32" height="32" viewBox="0 0 32 32" fill="none" xmlns="http://www.w3.org/2000/svg">
<path d="M16.0003 2.6665C8.63633 2.6665 2.66699 8.63584 2.66699 15.9998C2.66699 23.3638 8.63633 29.3332 16.0003 29.3332C23.3643 29.3332 29.3337 23.3638 29.3337 15.9998C29.3337 8.63584 23.3643 2.6665 16.0003 2.6665ZM21.041 19.6258C21.4317 20.0165 21.4317 20.6492 21.041 21.0398C20.8457 21.2358 20.5897 21.3332 20.3337 21.3332C20.0777 21.3332 19.8217 21.2358 19.6263 21.0405L16.0003 17.4138L12.3743 21.0398C12.179 21.2358 11.923 21.3332 11.667 21.3332C11.411 21.3332 11.155 21.2358 10.9597 21.0405C10.569 20.6498 10.569 20.0172 10.9597 19.6265L14.5863 15.9998L10.9603 12.3738C10.5697 11.9832 10.5697 11.3505 10.9603 10.9598C11.351 10.5692 11.9837 10.5692 12.3743 10.9598L16.0003 14.5858L19.6263 10.9598C20.017 10.5692 20.6497 10.5692 21.0403 10.9598C21.431 11.3505 21.431 11.9832 21.0403 12.3738L17.4143 15.9998L21.041 19.6258Z" fill="white"/>
</svg>
