<svg width="16" height="16" viewBox="0 0 16 16" fill="none" xmlns="http://www.w3.org/2000/svg">
<path d="M6.86192 13.1382C6.99225 13.2686 7.16258 13.3336 7.33325 13.3336C7.50392 13.3336 7.67425 13.2686 7.80458 13.1382C8.06492 12.8779 8.06492 12.4559 7.80458 12.1956L4.27592 8.66691H13.3333C13.7013 8.66691 13.9999 8.36824 13.9999 8.00024C13.9999 7.63224 13.7013 7.33357 13.3333 7.33357H4.27592L7.80458 3.80491C8.06492 3.54458 8.06492 3.12258 7.80458 2.86224C7.54425 2.60191 7.12225 2.60191 6.86192 2.86224L2.19525 7.52891C1.93492 7.78924 1.93492 8.21124 2.19525 8.47158L6.86192 13.1382Z" />
</svg>
