<svg width="16" height="16" viewBox="0 0 16 16" fill="none" xmlns="http://www.w3.org/2000/svg">
<rect width="16" height="16" rx="6" fill="#8E9394"/>
<path d="M5.67765 7.98138L5.67543 7.9836L5.68092 7.978L5.67765 7.98138Z" fill="white"/>
<path d="M4.70648 7.01023L4.70987 7.00695L4.70427 7.01244L4.70648 7.01023Z" fill="white"/>
<path fill-rule="evenodd" clip-rule="evenodd" d="M7.99137 4.00007C7.8127 4.00268 7.64185 4.07483 7.51551 4.2012L4.70648 7.01023C4.43399 7.27546 4.4306 7.71868 4.69989 7.98798C4.96919 8.25727 5.41241 8.25388 5.67765 7.98138L7.31435 6.34469V11.3111C7.3107 11.6969 7.62741 12 8.00109 12C8.38831 12 8.68784 11.701 8.68784 11.3133V6.34469L10.3245 7.98138C10.5898 8.25388 11.033 8.25727 11.3023 7.98798C11.5716 7.71868 11.5682 7.27547 11.2957 7.01024L8.48673 4.20125C8.35689 4.07139 8.17499 3.99749 7.99137 4.00007Z" fill="white"/>
</svg>
