<svg width="60" height="60" viewBox="0 0 60 60" fill="none" xmlns="http://www.w3.org/2000/svg">
<rect x="1" y="1" width="58" height="58" rx="29" stroke="#399977" stroke-width="2"/>
<path d="M30.5441 24.0002C30.4197 24.0003 30.2981 24.0374 30.195 24.1069C30.0918 24.1764 30.0117 24.2751 29.965 24.3904C29.9182 24.5056 29.9069 24.6322 29.9325 24.7539C29.9581 24.8757 30.0195 24.987 30.1087 25.0736L34.8751 29.8401H22.6339C22.5511 29.8389 22.4689 29.8542 22.392 29.8851C22.3151 29.916 22.2452 29.9618 22.1862 30.02C22.1272 30.0781 22.0804 30.1474 22.0484 30.2238C22.0165 30.3003 22 30.3823 22 30.4651C22 30.5479 22.0165 30.6299 22.0484 30.7063C22.0804 30.7827 22.1272 30.852 22.1862 30.9102C22.2452 30.9683 22.3151 31.0142 22.392 31.0451C22.4689 31.076 22.5511 31.0913 22.6339 31.0901H34.8751L30.1087 35.8565C30.0487 35.9141 30.0008 35.9831 29.9678 36.0594C29.9348 36.1358 29.9174 36.2179 29.9166 36.3011C29.9157 36.3842 29.9315 36.4667 29.9629 36.5437C29.9943 36.6207 30.0408 36.6906 30.0996 36.7494C30.1584 36.8082 30.2283 36.8547 30.3053 36.8861C30.3823 36.9175 30.4648 36.9333 30.5479 36.9324C30.6311 36.9316 30.7132 36.9142 30.7896 36.8812C30.8659 36.8482 30.9349 36.8003 30.9925 36.7403L36.8258 30.907C36.943 30.7898 37.0088 30.6308 37.0088 30.4651C37.0088 30.2994 36.943 30.1404 36.8258 30.0232L30.9925 24.1899C30.9342 24.1299 30.8645 24.0822 30.7875 24.0496C30.7105 24.017 30.6277 24.0002 30.5441 24.0002Z" fill="#399977" stroke="#399977"/>
</svg>
