<svg width="40" height="40" viewBox="0 0 40 40" fill="none" xmlns="http://www.w3.org/2000/svg">
<path d="M12.8971 4.98209C12.5659 4.98726 12.2502 5.1237 12.0195 5.36143C11.7888 5.59916 11.6619 5.91875 11.6666 6.24999V21.25C11.6643 21.4156 11.6949 21.5801 11.7567 21.7338C11.8184 21.8875 11.9101 22.0274 12.0264 22.1454C12.1427 22.2633 12.2813 22.357 12.4342 22.4209C12.587 22.4849 12.751 22.5178 12.9166 22.5178C13.0823 22.5178 13.2463 22.4849 13.3991 22.4209C13.5519 22.357 13.6905 22.2633 13.8068 22.1454C13.9231 22.0274 14.0148 21.8875 14.0766 21.7338C14.1384 21.5801 14.169 21.4156 14.1666 21.25V6.24999C14.169 6.08269 14.1378 5.9166 14.0749 5.76158C14.0119 5.60656 13.9184 5.46576 13.8 5.34752C13.6817 5.22928 13.5407 5.13601 13.3856 5.07324C13.2305 5.01047 13.0644 4.97947 12.8971 4.98209ZM7.8971 11.6488C7.56587 11.6539 7.25023 11.7904 7.01951 12.0281C6.7888 12.2658 6.66188 12.5854 6.66663 12.9167V21.25C6.66429 21.4156 6.69489 21.5801 6.75666 21.7338C6.81843 21.8875 6.91013 22.0274 7.02643 22.1454C7.14274 22.2633 7.28133 22.357 7.43415 22.4209C7.58697 22.4849 7.75098 22.5178 7.91663 22.5178C8.08229 22.5178 8.24629 22.4849 8.39912 22.4209C8.55194 22.357 8.69053 22.2633 8.80683 22.1454C8.92314 22.0274 9.01484 21.8875 9.07661 21.7338C9.13837 21.5801 9.16898 21.4156 9.16663 21.25V12.9167C9.16903 12.7494 9.13782 12.5833 9.07485 12.4282C9.01188 12.2732 8.91843 12.1324 8.80004 12.0142C8.68165 11.8959 8.54073 11.8027 8.38563 11.7399C8.23053 11.6771 8.0644 11.6461 7.8971 11.6488ZM17.8971 12.4821C17.5659 12.4873 17.2502 12.6237 17.0195 12.8614C16.7888 13.0992 16.6619 13.4187 16.6666 13.75V21.25C16.6643 21.4156 16.6949 21.5801 16.7567 21.7338C16.8184 21.8875 16.9101 22.0274 17.0264 22.1454C17.1427 22.2633 17.2813 22.357 17.4342 22.4209C17.587 22.4849 17.751 22.5178 17.9166 22.5178C18.0823 22.5178 18.2463 22.4849 18.3991 22.4209C18.5519 22.357 18.6905 22.2633 18.8068 22.1454C18.9231 22.0274 19.0148 21.8875 19.0766 21.7338C19.1384 21.5801 19.169 21.4156 19.1666 21.25V13.75C19.169 13.5827 19.1378 13.4166 19.0749 13.2616C19.0119 13.1066 18.9184 12.9658 18.8 12.8475C18.6817 12.7293 18.5407 12.636 18.3856 12.5732C18.2305 12.5105 18.0644 12.4795 17.8971 12.4821ZM2.8971 15.8154C2.56586 15.8206 2.25023 15.957 2.01951 16.1948C1.7888 16.4325 1.66188 16.7521 1.66663 17.0833V21.25C1.66429 21.4156 1.69489 21.5801 1.75666 21.7338C1.81843 21.8875 1.91013 22.0274 2.02643 22.1454C2.14274 22.2633 2.28133 22.357 2.43415 22.4209C2.58697 22.4849 2.75098 22.5178 2.91663 22.5178C3.08229 22.5178 3.24629 22.4849 3.39912 22.4209C3.55194 22.357 3.69053 22.2633 3.80683 22.1454C3.92314 22.0274 4.01484 21.8875 4.07661 21.7338C4.13837 21.5801 4.16898 21.4156 4.16663 21.25V17.0833C4.16903 16.916 4.13782 16.7499 4.07485 16.5949C4.01188 16.4399 3.91843 16.2991 3.80004 16.1809C3.68165 16.0626 3.54073 15.9693 3.38563 15.9066C3.23053 15.8438 3.0644 15.8128 2.8971 15.8154ZM22.8971 19.1488C22.5659 19.1539 22.2502 19.2904 22.0195 19.5281C21.7888 19.7658 21.6619 20.0854 21.6666 20.4167V27.9167C21.6643 28.0823 21.6949 28.2468 21.7567 28.4005C21.8184 28.5542 21.9101 28.6941 22.0264 28.812C22.1427 28.93 22.2813 29.0237 22.4342 29.0876C22.587 29.1515 22.751 29.1845 22.9166 29.1845C23.0823 29.1845 23.2463 29.1515 23.3991 29.0876C23.5519 29.0237 23.6905 28.93 23.8068 28.812C23.9231 28.6941 24.0148 28.5542 24.0766 28.4005C24.1384 28.2468 24.169 28.0823 24.1666 27.9167V20.4167C24.169 20.2494 24.1378 20.0833 24.0749 19.9282C24.0119 19.7732 23.9184 19.6324 23.8 19.5142C23.6817 19.3959 23.5407 19.3027 23.3856 19.2399C23.2305 19.1771 23.0644 19.1461 22.8971 19.1488ZM27.8971 19.1488C27.5659 19.1539 27.2502 19.2904 27.0195 19.5281C26.7888 19.7658 26.6619 20.0854 26.6666 20.4167V35.4167C26.6643 35.5823 26.6949 35.7468 26.7567 35.9005C26.8184 36.0542 26.9101 36.1941 27.0264 36.312C27.1427 36.43 27.2813 36.5237 27.4342 36.5876C27.587 36.6515 27.751 36.6845 27.9166 36.6845C28.0823 36.6845 28.2463 36.6515 28.3991 36.5876C28.5519 36.5237 28.6905 36.43 28.8068 36.312C28.9231 36.1941 29.0148 36.0542 29.0766 35.9005C29.1384 35.7468 29.169 35.5823 29.1666 35.4167V20.4167C29.169 20.2494 29.1378 20.0833 29.0749 19.9282C29.0119 19.7732 28.9184 19.6324 28.8 19.5142C28.6817 19.3959 28.5407 19.3027 28.3856 19.2399C28.2305 19.1771 28.0644 19.1461 27.8971 19.1488ZM32.8971 19.1488C32.5659 19.1539 32.2502 19.2904 32.0195 19.5281C31.7888 19.7658 31.6619 20.0854 31.6666 20.4167V28.75C31.6643 28.9156 31.6949 29.0801 31.7567 29.2338C31.8184 29.3875 31.9101 29.5274 32.0264 29.6454C32.1427 29.7633 32.2813 29.857 32.4342 29.9209C32.587 29.9849 32.751 30.0178 32.9166 30.0178C33.0823 30.0178 33.2463 29.9849 33.3991 29.9209C33.5519 29.857 33.6905 29.7633 33.8068 29.6454C33.9231 29.5274 34.0148 29.3875 34.0766 29.2338C34.1384 29.0801 34.169 28.9156 34.1666 28.75V20.4167C34.169 20.2494 34.1378 20.0833 34.0749 19.9282C34.0119 19.7732 33.9184 19.6324 33.8 19.5142C33.6817 19.3959 33.5407 19.3027 33.3856 19.2399C33.2305 19.1771 33.0644 19.1461 32.8971 19.1488ZM37.8971 19.1488C37.5659 19.1539 37.2502 19.2904 37.0195 19.5281C36.7888 19.7658 36.6619 20.0854 36.6666 20.4167V24.5833C36.6643 24.749 36.6949 24.9134 36.7567 25.0671C36.8184 25.2208 36.9101 25.3607 37.0264 25.4787C37.1427 25.5967 37.2813 25.6903 37.4342 25.7543C37.587 25.8182 37.751 25.8511 37.9166 25.8511C38.0823 25.8511 38.2463 25.8182 38.3991 25.7543C38.5519 25.6903 38.6905 25.5967 38.8068 25.4787C38.9231 25.3607 39.0148 25.2208 39.0766 25.0671C39.1384 24.9134 39.169 24.749 39.1666 24.5833V20.4167C39.169 20.2494 39.1378 20.0833 39.0749 19.9282C39.0119 19.7732 38.9184 19.6324 38.8 19.5142C38.6817 19.3959 38.5407 19.3027 38.3856 19.2399C38.2305 19.1771 38.0644 19.1461 37.8971 19.1488Z" fill="#399977"/>
</svg>
