<svg width="24" height="24" viewBox="0 0 24 24" fill="none" xmlns="http://www.w3.org/2000/svg">
<path d="M6.00058 9.69577C6.00754 9.86849 6.07621 10.0315 6.19209 10.1504L11.571 15.8114C11.6858 15.9323 11.8396 16 11.9997 16C12.1598 16 12.3135 15.9323 12.4283 15.8114L17.8073 10.1504C17.8665 10.0898 17.9141 10.017 17.9471 9.93627C17.9802 9.85556 17.9981 9.76853 17.9999 9.68024C18.0016 9.59195 17.9871 9.50418 17.9572 9.42201C17.9274 9.33985 17.8827 9.26494 17.8259 9.20164C17.7691 9.13834 17.7012 9.08792 17.6262 9.0533C17.5512 9.01869 17.4706 9.00057 17.3891 9.00001C17.3076 8.99945 17.2268 9.01646 17.1514 9.05004C17.076 9.08362 17.0076 9.1331 16.95 9.19561L11.9997 14.4053L7.04936 9.19561C6.96174 9.10077 6.84973 9.0368 6.72799 9.0121C6.60626 8.98739 6.48047 9.0031 6.36711 9.05716C6.25375 9.11122 6.15811 9.20111 6.0927 9.31506C6.0273 9.42901 5.99519 9.56171 6.00058 9.69577Z" fill="#C1C6C7"/>
</svg>
