<svg width="60" height="60" viewBox="0 0 60 60" fill="none" xmlns="http://www.w3.org/2000/svg">
<path d="M15.625 5C12.525 5 10 7.525 10 10.625V49.375C10 52.475 12.525 55 15.625 55H44.375C47.475 55 50 52.475 50 49.375V36.4868L46.25 40.2368V49.375C46.25 50.4125 45.4125 51.25 44.375 51.25H15.625C14.5875 51.25 13.75 50.4125 13.75 49.375V10.625C13.75 9.5875 14.5875 8.75 15.625 8.75H30V19.375C30 22.475 32.525 25 35.625 25H38.5132L42.2632 21.25H35.625C34.5875 21.25 33.75 20.4125 33.75 19.375V11.4014L42.937 20.5884L44.7754 18.7378C45.0504 18.4628 45.3372 18.2133 45.6372 17.9883L33.2007 5.54932C32.8632 5.21182 32.4 5 31.875 5H15.625ZM54.9512 17.4756C54.3017 17.4949 53.6852 17.7664 53.2324 18.2324L52.4048 19.0601C51.6161 18.8005 50.7948 18.7077 49.9902 18.8086C48.7118 18.969 47.4876 19.5583 46.5479 20.498C46.547 20.498 46.5462 20.498 46.5454 20.498L34.5874 32.4585C34.0825 32.9634 33.7085 33.5826 33.4985 34.2651C33.4985 34.266 33.4985 34.2668 33.4985 34.2676L31.333 41.3257C31.2336 41.6511 31.2246 41.9973 31.3069 42.3274C31.3892 42.6576 31.5598 42.959 31.8004 43.1996C32.041 43.4402 32.3424 43.6108 32.6726 43.6931C33.0027 43.7754 33.3489 43.7664 33.6743 43.667L40.7324 41.5015C40.7332 41.5015 40.734 41.5015 40.7349 41.5015C41.4174 41.2915 42.0366 40.9175 42.5415 40.4126L54.6021 28.3521C56.1441 26.8111 56.5702 24.5574 55.9326 22.6025L56.7676 21.7676C57.1288 21.4164 57.3756 20.9643 57.4755 20.4705C57.5754 19.9767 57.5238 19.4643 57.3274 19.0003C57.1311 18.5363 56.7991 18.1425 56.3751 17.8704C55.9511 17.5984 55.4548 17.4607 54.9512 17.4756ZM50.4175 22.5391C50.8565 22.4782 51.2965 22.5623 51.6479 22.8003C51.7595 22.8758 51.8535 22.9603 51.9434 23.0469C51.9704 23.0744 51.9981 23.1012 52.0264 23.1274C52.7332 23.8877 52.6737 24.9782 51.9507 25.7007L39.8901 37.7612C39.8176 37.8338 39.7289 37.8875 39.6313 37.9175L35.9546 39.0454L37.0825 35.3687C37.1125 35.2711 37.1662 35.1824 37.2388 35.1099L49.1992 23.1494C49.542 22.8067 49.9784 22.6 50.4175 22.5391ZM21.875 31.25C20.8375 31.25 20 32.0875 20 33.125C20 34.1625 20.8375 35 21.875 35H30.6616L31.1133 33.5376C31.3633 32.7001 31.7742 31.925 32.3242 31.25H21.875ZM21.875 40C20.8375 40 20 40.8375 20 41.875C20 42.9125 20.8375 43.75 21.875 43.75H29.1748C28.7123 42.775 28.613 41.6509 28.938 40.5884L29.126 40H21.875Z" fill="#399977"/>
</svg>
