<svg width="20" height="20" viewBox="0 0 20 20" fill="none" xmlns="http://www.w3.org/2000/svg">
<rect width="20" height="20" fill="white"/>
<path d="M10.5441 4C10.4197 4.00003 10.2981 4.03717 10.195 4.10667C10.0918 4.17616 10.0117 4.27486 9.96498 4.39012C9.91823 4.50538 9.90693 4.63198 9.93253 4.7537C9.95812 4.87542 10.0195 4.98674 10.1087 5.07341L14.8751 9.83984L2.6339 9.83984C2.55108 9.83867 2.46885 9.85397 2.392 9.88486C2.31514 9.91574 2.24519 9.96159 2.18621 10.0197C2.12723 10.0779 2.0804 10.1472 2.04843 10.2236C2.01646 10.3 2 10.382 2 10.4648C2 10.5477 2.01646 10.6297 2.04843 10.7061C2.0804 10.7825 2.12723 10.8518 2.18621 10.9099C2.24519 10.9681 2.31514 11.0139 2.392 11.0448C2.46885 11.0757 2.55108 11.091 2.6339 11.0898L14.8751 11.0898L10.1087 15.8563C10.0487 15.9139 10.0008 15.9829 9.96781 16.0592C9.93482 16.1355 9.9174 16.2177 9.91655 16.3008C9.91571 16.384 9.93146 16.4664 9.96289 16.5434C9.99432 16.6204 10.0408 16.6904 10.0996 16.7492C10.1584 16.8079 10.2283 16.8544 10.3053 16.8859C10.3823 16.9173 10.4648 16.933 10.5479 16.9322C10.6311 16.9313 10.7132 16.9139 10.7896 16.8809C10.8659 16.8479 10.9349 16.8001 10.9925 16.7401L16.8258 10.9067C16.943 10.7895 17.0088 10.6306 17.0088 10.4648C17.0088 10.2991 16.943 10.1402 16.8258 10.023L10.9925 4.18962C10.9342 4.12962 10.8645 4.08193 10.7875 4.04936C10.7105 4.01679 10.6277 4 10.5441 4Z" fill="#399977" stroke="#399977"/>
</svg>
