<svg width="14" height="13" viewBox="0 0 14 13" fill="none" xmlns="http://www.w3.org/2000/svg">
<path d="M7.00328 0.166514C6.90983 0.16593 6.81809 0.191544 6.73846 0.24045C6.65883 0.289356 6.5945 0.359597 6.55276 0.443206L4.83531 3.8781L0.757184 4.50571C0.665901 4.51981 0.580308 4.55892 0.509898 4.61871C0.439488 4.67849 0.387011 4.75661 0.358288 4.84439C0.329565 4.93218 0.325718 5.02621 0.347174 5.11605C0.368629 5.20589 0.414549 5.28803 0.47984 5.35336L3.3008 8.17432L2.67255 12.257C2.65849 12.3483 2.67003 12.4418 2.70587 12.527C2.74171 12.6122 2.80045 12.6858 2.87558 12.7396C2.95071 12.7934 3.03928 12.8253 3.13147 12.8319C3.22366 12.8384 3.31585 12.8192 3.39781 12.7765L7.00002 10.897L10.6022 12.7765C10.6842 12.8192 10.7764 12.8384 10.8686 12.8319C10.9608 12.8253 11.0493 12.7934 11.1245 12.7396C11.1996 12.6858 11.2583 12.6122 11.2942 12.527C11.33 12.4418 11.3416 12.3483 11.3275 12.257L10.6992 8.17432L13.5202 5.35336C13.5855 5.28803 13.6314 5.20589 13.6529 5.11605C13.6743 5.02621 13.6705 4.93218 13.6418 4.84439C13.613 4.75661 13.5606 4.67849 13.4901 4.61871C13.4197 4.55892 13.3341 4.51981 13.2429 4.50571L9.16474 3.8781L7.44729 0.443206C7.40604 0.360586 7.34273 0.291 7.26435 0.242161C7.18598 0.193323 7.09562 0.16714 7.00328 0.166514Z"/>
</svg>
