<svg width="33" height="33" viewBox="0 0 33 33" fill="none" xmlns="http://www.w3.org/2000/svg">
<path fill-rule="evenodd" clip-rule="evenodd" d="M3.16602 16.4998C3.16602 23.8518 9.14735 29.8332 16.4993 29.8332C23.8513 29.8332 29.8327 23.8518 29.8327 16.4998C29.8327 9.14784 23.8513 3.1665 16.4993 3.1665C9.14735 3.1665 3.16602 9.14784 3.16602 16.4998ZM12.2918 11.7928L8.29177 15.7928C7.90177 16.1835 7.90177 16.8168 8.29177 17.2075L12.2918 21.2075C12.4871 21.4028 12.7431 21.5002 12.9991 21.5002C13.2551 21.5002 13.5111 21.4028 13.7058 21.2068C14.0964 20.8162 14.0964 20.1835 13.7058 19.7928L11.4131 17.5002H21.5853L19.2927 19.7928C18.902 20.1835 18.902 20.8162 19.2927 21.2068C19.4873 21.4028 19.7433 21.5002 19.9993 21.5002C20.2553 21.5002 20.5113 21.4028 20.7067 21.2075L24.7067 17.2075C25.0967 16.8168 25.0967 16.1835 24.7067 15.7928L20.7067 11.7928C20.316 11.4022 19.6833 11.4022 19.2927 11.7928C18.902 12.1835 18.902 12.8162 19.2927 13.2068L21.5853 15.5002H11.4131L13.7058 13.2068C14.0964 12.8162 14.0964 12.1835 13.7058 11.7928C13.3151 11.4022 12.6824 11.4022 12.2918 11.7928Z" fill="#399977"/>
</svg>
