<svg viewBox="0 0 24 25" fill="none" xmlns="http://www.w3.org/2000/svg">
<path d="M11.9999 2.5C10.352 2.5 8.99994 3.85207 8.99994 5.5H5.87299C5.82848 5.49237 5.78337 5.48877 5.73822 5.48926C5.70188 5.49021 5.66565 5.4938 5.62982 5.5H3.74994C3.65056 5.49859 3.55188 5.51696 3.45966 5.55402C3.36743 5.59108 3.28349 5.6461 3.21271 5.71588C3.14194 5.78566 3.08573 5.86882 3.04737 5.96051C3.00901 6.0522 2.98926 6.15061 2.98926 6.25C2.98926 6.34939 3.00901 6.4478 3.04737 6.53949C3.08573 6.63118 3.14194 6.71434 3.21271 6.78412C3.28349 6.8539 3.36743 6.90892 3.45966 6.94598C3.55188 6.98304 3.65056 7.00141 3.74994 7H4.99994V19.75C4.99994 21.2599 6.24005 22.5 7.74994 22.5H16.2499C17.7598 22.5 18.9999 21.2599 18.9999 19.75V7H20.2499C20.3493 7.00141 20.448 6.98304 20.5402 6.94598C20.6324 6.90892 20.7164 6.8539 20.7872 6.78412C20.8579 6.71434 20.9141 6.63118 20.9525 6.53949C20.9909 6.4478 21.0106 6.34939 21.0106 6.25C21.0106 6.15061 20.9909 6.0522 20.9525 5.96051C20.9141 5.86882 20.8579 5.78566 20.7872 5.71588C20.7164 5.6461 20.6324 5.59108 20.5402 5.55402C20.448 5.51696 20.3493 5.49859 20.2499 5.5H18.373C18.2925 5.48677 18.2103 5.48677 18.1298 5.5H14.9999C14.9999 3.85207 13.6479 2.5 11.9999 2.5ZM11.9999 4C12.837 4 13.4999 4.66293 13.4999 5.5H10.4999C10.4999 4.66293 11.1629 4 11.9999 4ZM6.49994 7H17.4999V19.75C17.4999 20.4491 16.9491 21 16.2499 21H7.74994C7.05083 21 6.49994 20.4491 6.49994 19.75V7ZM10.2382 9.48926C10.0395 9.49236 9.8501 9.57423 9.71167 9.71686C9.57324 9.8595 9.49709 10.0513 9.49994 10.25V17.75C9.49853 17.8494 9.5169 17.9481 9.55396 18.0403C9.59102 18.1325 9.64604 18.2164 9.71582 18.2872C9.7856 18.358 9.86876 18.4142 9.96045 18.4526C10.0521 18.4909 10.1505 18.5107 10.2499 18.5107C10.3493 18.5107 10.4477 18.4909 10.5394 18.4526C10.6311 18.4142 10.7143 18.358 10.7841 18.2872C10.8538 18.2164 10.9089 18.1325 10.9459 18.0403C10.983 17.9481 11.0013 17.8494 10.9999 17.75V10.25C11.0014 10.1496 10.9827 10.05 10.9449 9.95695C10.9071 9.86394 10.851 9.77946 10.78 9.70852C10.709 9.63758 10.6244 9.58161 10.5313 9.54395C10.4383 9.50629 10.3386 9.48769 10.2382 9.48926ZM13.7382 9.48926C13.5395 9.49236 13.3501 9.57423 13.2117 9.71686C13.0732 9.8595 12.9971 10.0513 12.9999 10.25V17.75C12.9985 17.8494 13.0169 17.9481 13.054 18.0403C13.091 18.1325 13.146 18.2164 13.2158 18.2872C13.2856 18.358 13.3688 18.4142 13.4605 18.4526C13.5521 18.4909 13.6505 18.5107 13.7499 18.5107C13.8493 18.5107 13.9477 18.4909 14.0394 18.4526C14.1311 18.4142 14.2143 18.358 14.2841 18.2872C14.3538 18.2164 14.4089 18.1325 14.4459 18.0403C14.483 17.9481 14.5013 17.8494 14.4999 17.75V10.25C14.5014 10.1496 14.4827 10.05 14.4449 9.95695C14.4071 9.86394 14.351 9.77946 14.28 9.70852C14.209 9.63758 14.1244 9.58161 14.0313 9.54395C13.9383 9.50629 13.8386 9.48769 13.7382 9.48926Z" fill="#A8ADAD"/>
</svg>
