<svg width="40" height="40" viewBox="0 0 40 40" fill="none" xmlns="http://www.w3.org/2000/svg">
<path d="M10.8335 5.8335C9.271 5.8335 7.94084 6.46444 7.08675 7.42529C6.23266 8.38615 5.8335 9.61822 5.8335 10.8335C5.8335 12.0488 6.23266 13.2808 7.08675 14.2417C7.94084 15.2026 9.271 15.8335 10.8335 15.8335C12.396 15.8335 13.7261 15.2026 14.5802 14.2417C15.4343 13.2808 15.8335 12.0488 15.8335 10.8335C15.8335 9.61822 15.4343 8.38615 14.5802 7.42529C13.7261 6.46444 12.396 5.8335 10.8335 5.8335ZM29.1668 5.8335C27.6043 5.8335 26.2742 6.46444 25.4201 7.42529C24.566 8.38615 24.1668 9.61822 24.1668 10.8335C24.1668 12.0488 24.566 13.2808 25.4201 14.2417C26.2742 15.2026 27.6043 15.8335 29.1668 15.8335C30.7293 15.8335 32.0595 15.2026 32.9136 14.2417C33.7677 13.2808 34.1668 12.0488 34.1668 10.8335C34.1668 9.61822 33.7677 8.38615 32.9136 7.42529C32.0595 6.46444 30.7293 5.8335 29.1668 5.8335ZM10.8335 8.3335C11.771 8.3335 12.3158 8.64005 12.7118 9.08545C13.1077 9.53085 13.3335 10.1738 13.3335 10.8335C13.3335 11.4932 13.1077 12.1361 12.7118 12.5815C12.3158 13.0269 11.771 13.3335 10.8335 13.3335C9.896 13.3335 9.35115 13.0269 8.95524 12.5815C8.55933 12.1361 8.3335 11.4932 8.3335 10.8335C8.3335 10.1738 8.55933 9.53085 8.95524 9.08545C9.35115 8.64005 9.896 8.3335 10.8335 8.3335ZM29.1668 8.3335C30.1043 8.3335 30.6492 8.64005 31.0451 9.08545C31.441 9.53085 31.6668 10.1738 31.6668 10.8335C31.6668 11.4932 31.441 12.1361 31.0451 12.5815C30.6492 13.0269 30.1043 13.3335 29.1668 13.3335C28.2293 13.3335 27.6845 13.0269 27.2886 12.5815C26.8927 12.1361 26.6668 11.4932 26.6668 10.8335C26.6668 10.1738 26.8927 9.53085 27.2886 9.08545C27.6845 8.64005 28.2293 8.3335 29.1668 8.3335ZM20.0002 14.1668C18.4377 14.1668 17.1075 14.7978 16.2534 15.7586C15.3993 16.7195 15.0002 17.9516 15.0002 19.1668C15.0002 20.3821 15.3993 21.6142 16.2534 22.575C17.1075 23.5359 18.4377 24.1668 20.0002 24.1668C21.5627 24.1668 22.8928 23.5359 23.7469 22.575C24.601 21.6142 25.0002 20.3821 25.0002 19.1668C25.0002 17.9516 24.601 16.7195 23.7469 15.7586C22.8928 14.7978 21.5627 14.1668 20.0002 14.1668ZM20.0002 16.6668C20.9377 16.6668 21.4825 16.9734 21.8784 17.4188C22.2743 17.8642 22.5002 18.5071 22.5002 19.1668C22.5002 19.8266 22.2743 20.4695 21.8784 20.9149C21.4825 21.3603 20.9377 21.6668 20.0002 21.6668C19.0627 21.6668 18.5178 21.3603 18.1219 20.9149C17.726 20.4695 17.5002 19.8266 17.5002 19.1668C17.5002 18.5071 17.726 17.8642 18.1219 17.4188C18.5178 16.9734 19.0627 16.6668 20.0002 16.6668ZM6.25016 17.5002C4.64183 17.5002 3.3335 18.8085 3.3335 20.4168V22.5002C3.3335 25.3002 6.62516 27.5002 10.8335 27.5002H11.0093C11.3843 26.1585 12.3663 25.0666 13.633 24.5249C12.8413 24.8166 11.8835 25.0002 10.8335 25.0002C7.97516 25.0002 5.8335 23.6835 5.8335 22.5002V20.4168C5.8335 20.1835 6.01683 20.0002 6.25016 20.0002H13.384C13.3506 19.7252 13.3335 19.4502 13.3335 19.1668C13.3335 18.5918 13.4085 18.0335 13.5418 17.5002H6.25016ZM26.4585 17.5002C26.5918 18.0335 26.6668 18.5918 26.6668 19.1668C26.6668 19.4502 26.6497 19.7252 26.6164 20.0002H33.7502C33.9835 20.0002 34.1668 20.1835 34.1668 20.4168V22.5002C34.1668 23.6835 32.0252 25.0002 29.1668 25.0002C28.1168 25.0002 27.159 24.8166 26.3673 24.5249C27.634 25.0666 28.616 26.1585 28.991 27.5002H29.1668C33.3752 27.5002 36.6668 25.3002 36.6668 22.5002V20.4168C36.6668 18.8085 35.3585 17.5002 33.7502 17.5002H26.4585ZM15.4168 25.8335C13.821 25.8335 12.5002 27.1544 12.5002 28.7502V30.8335C12.5002 32.432 13.5668 33.7345 14.9383 34.5575C16.3099 35.3804 18.0716 35.8335 20.0002 35.8335C21.9287 35.8335 23.6905 35.3804 25.062 34.5575C26.4336 33.7345 27.5002 32.432 27.5002 30.8335V28.7502C27.5002 27.1544 26.1793 25.8335 24.5835 25.8335H15.4168ZM15.4168 28.3335H24.5835C24.8294 28.3335 25.0002 28.5043 25.0002 28.7502V30.8335C25.0002 31.3059 24.6667 31.8796 23.7762 32.4139C22.8857 32.9482 21.5233 33.3335 20.0002 33.3335C18.477 33.3335 17.1147 32.9482 16.2241 32.4139C15.3336 31.8796 15.0002 31.3059 15.0002 30.8335V28.7502C15.0002 28.5043 15.171 28.3335 15.4168 28.3335Z" fill="#399977"/>
</svg>
