<svg width="28" height="25" viewBox="0 0 28 25" fill="none" xmlns="http://www.w3.org/2000/svg">
<path d="M6.66699 0.666016C5.41699 0.666016 4.35287 1.17077 3.6696 1.93945C2.98632 2.70814 2.66699 3.69379 2.66699 4.66602C2.66699 5.63824 2.98632 6.6239 3.6696 7.39258C4.35287 8.16126 5.41699 8.66602 6.66699 8.66602C7.91699 8.66602 8.98111 8.16126 9.66439 7.39258C10.3477 6.6239 10.667 5.63824 10.667 4.66602C10.667 3.69379 10.3477 2.70814 9.66439 1.93945C8.98111 1.17077 7.91699 0.666016 6.66699 0.666016ZM21.3337 0.666016C20.0837 0.666016 19.0195 1.17077 18.3363 1.93945C17.653 2.70814 17.3337 3.69379 17.3337 4.66602C17.3337 5.63824 17.653 6.6239 18.3363 7.39258C19.0195 8.16126 20.0837 8.66602 21.3337 8.66602C22.5837 8.66602 23.6478 8.16126 24.3311 7.39258C25.0143 6.6239 25.3337 5.63824 25.3337 4.66602C25.3337 3.69379 25.0143 2.70814 24.3311 1.93945C23.6478 1.17077 22.5837 0.666016 21.3337 0.666016ZM6.66699 2.66602C7.41699 2.66602 7.85287 2.91126 8.1696 3.26758C8.48632 3.6239 8.66699 4.13824 8.66699 4.66602C8.66699 5.19379 8.48632 5.70814 8.1696 6.06445C7.85287 6.42077 7.41699 6.66602 6.66699 6.66602C5.91699 6.66602 5.48111 6.42077 5.16439 6.06445C4.84766 5.70814 4.66699 5.19379 4.66699 4.66602C4.66699 4.13824 4.84766 3.6239 5.16439 3.26758C5.48111 2.91126 5.91699 2.66602 6.66699 2.66602ZM21.3337 2.66602C22.0837 2.66602 22.5195 2.91126 22.8363 3.26758C23.153 3.6239 23.3337 4.13824 23.3337 4.66602C23.3337 5.19379 23.153 5.70814 22.8363 6.06445C22.5195 6.42077 22.0837 6.66602 21.3337 6.66602C20.5837 6.66602 20.1478 6.42077 19.8311 6.06445C19.5143 5.70814 19.3337 5.19379 19.3337 4.66602C19.3337 4.13824 19.5143 3.6239 19.8311 3.26758C20.1478 2.91126 20.5837 2.66602 21.3337 2.66602ZM14.0003 7.33268C12.7503 7.33268 11.6862 7.83744 11.0029 8.60612C10.3197 9.3748 10.0003 10.3605 10.0003 11.3327C10.0003 12.3049 10.3197 13.2906 11.0029 14.0592C11.6862 14.8279 12.7503 15.3327 14.0003 15.3327C15.2503 15.3327 16.3144 14.8279 16.9977 14.0592C17.681 13.2906 18.0003 12.3049 18.0003 11.3327C18.0003 10.3605 17.681 9.3748 16.9977 8.60612C16.3144 7.83744 15.2503 7.33268 14.0003 7.33268ZM14.0003 9.33268C14.7503 9.33268 15.1862 9.57793 15.5029 9.93425C15.8197 10.2906 16.0003 10.8049 16.0003 11.3327C16.0003 11.8605 15.8197 12.3748 15.5029 12.7311C15.1862 13.0874 14.7503 13.3327 14.0003 13.3327C13.2503 13.3327 12.8144 13.0874 12.4977 12.7311C12.181 12.3748 12.0003 11.8605 12.0003 11.3327C12.0003 10.8049 12.181 10.2906 12.4977 9.93425C12.8144 9.57793 13.2503 9.33268 14.0003 9.33268ZM3.00033 9.99935C1.71366 9.99935 0.666992 11.046 0.666992 12.3327V13.9993C0.666992 16.2393 3.30033 17.9993 6.66699 17.9993H6.80762C7.10762 16.926 7.89324 16.0525 8.90658 15.6191C8.27324 15.8525 7.50699 15.9993 6.66699 15.9993C4.38033 15.9993 2.66699 14.946 2.66699 13.9993V12.3327C2.66699 12.146 2.81366 11.9993 3.00033 11.9993H8.70736C8.68069 11.7793 8.66699 11.5593 8.66699 11.3327C8.66699 10.8727 8.72699 10.426 8.83366 9.99935H3.00033ZM19.167 9.99935C19.2737 10.426 19.3337 10.8727 19.3337 11.3327C19.3337 11.5593 19.32 11.7793 19.2933 11.9993H25.0003C25.187 11.9993 25.3337 12.146 25.3337 12.3327V13.9993C25.3337 14.946 23.6203 15.9993 21.3337 15.9993C20.4937 15.9993 19.7274 15.8525 19.0941 15.6191C20.1074 16.0525 20.893 16.926 21.193 17.9993H21.3337C24.7003 17.9993 27.3337 16.2393 27.3337 13.9993V12.3327C27.3337 11.046 26.287 9.99935 25.0003 9.99935H19.167ZM10.3337 16.666C9.05702 16.666 8.00033 17.7227 8.00033 18.9993V20.666C8.00033 21.9448 8.85361 22.9868 9.95085 23.6452C11.0481 24.3035 12.4575 24.666 14.0003 24.666C15.5432 24.666 16.9526 24.3035 18.0498 23.6452C19.147 22.9868 20.0003 21.9448 20.0003 20.666V18.9993C20.0003 17.7227 18.9436 16.666 17.667 16.666H10.3337ZM10.3337 18.666H17.667C17.8637 18.666 18.0003 18.8027 18.0003 18.9993V20.666C18.0003 21.0439 17.7336 21.5029 17.0212 21.9303C16.3087 22.3578 15.2188 22.666 14.0003 22.666C12.7818 22.666 11.6919 22.3578 10.9795 21.9303C10.2671 21.5029 10.0003 21.0439 10.0003 20.666V18.9993C10.0003 18.8027 10.137 18.666 10.3337 18.666Z" fill="#399977"/>
</svg>
